<svg width="199" height="43" viewBox="0 0 199 43" fill="none" xmlns="http://www.w3.org/2000/svg">
<g clip-path="url(#clip0)">
<path d="M4.54885 15.6559C7.21487 13.5619 9.84088 11.4698 12.4969 9.37584C13.6489 8.48983 14.2089 7.36382 13.9749 5.90782C13.9349 5.54581 14.1369 5.42381 14.5349 5.54581C15.4509 5.82581 16.2069 6.35182 16.6449 7.19782C17.2449 8.40583 18.1949 8.84983 19.3949 8.80983C21.1889 8.72783 22.301 9.69784 23.257 11.0698C24.297 12.5259 24.807 14.2179 25.205 15.9119C25.643 17.7279 25.847 19.5459 25.919 21.3939C26.001 22.8079 25.959 24.1799 26.001 25.5859C26.001 25.6679 26.001 25.7099 26.001 25.7499V29.5H8.39887V26.6719C8.39887 26.6719 8.25687 25.4819 9.13688 24.6099C10.0169 23.7379 10.9509 22.9219 10.9509 22.9219C11.4009 22.5539 11.8109 22.1339 12.1649 21.6759L15.4109 17.4759C15.2089 17.6399 15.0129 17.7959 14.8109 17.9599C13.8129 18.7239 12.7409 19.0459 11.5089 18.7239C10.7949 18.5599 10.0729 18.6419 9.43888 19.0439C9.08488 19.2799 8.69288 19.4839 8.29887 19.6879C7.37287 20.1679 6.23286 19.9479 5.56686 19.1479C5.15685 18.6559 4.74685 18.1639 4.33685 17.6799C3.81485 17.0619 3.91085 16.1559 4.54885 15.6559Z" fill="#C5C3C0"/>
<path d="M6.10508 36.054L8.10509 32.052C8.27509 31.714 8.6211 31.5 8.9991 31.5H24.9992C25.3772 31.5 25.7232 31.714 25.8932 32.052L27.8932 36.052C28.0492 36.362 28.0312 36.73 27.8492 37.024C27.6672 37.318 27.3452 37.5 26.9992 37.5H6.99909C6.65308 37.5 6.33108 37.32 6.14708 37.026C5.96508 36.732 5.94908 36.364 6.10508 36.054Z" fill="#C5C3C0"/>
</g>
<path d="M65.3203 34V8.63477H60.0117L52.3828 27.2324H52.0664L44.4375 8.63477H39.1289V34H43.3477V16.1582H43.5938L50.6074 33.1211H53.8418L60.8555 16.1582H61.1016V34H65.3203ZM73.2305 40.9785C77.5371 40.9785 79.5938 39.3965 81.2285 34.6152L88.1719 14.7695H83.5664L79.084 29.7812H78.7852L74.2852 14.7695H69.5039L76.377 34.0879L76.1484 34.9316C75.5859 36.707 74.5488 37.4102 72.7031 37.4102C72.4043 37.4102 71.7539 37.3926 71.5078 37.3398V40.9082C71.7891 40.9609 72.9668 40.9785 73.2305 40.9785ZM102.973 34.6328C108.826 34.6328 113.115 31.1348 113.713 25.9492H109.248C108.633 28.7969 106.189 30.5898 102.973 30.5898C98.6484 30.5898 95.959 27.0391 95.959 21.3086C95.959 15.5957 98.6484 12.0449 102.955 12.0449C106.154 12.0449 108.598 14.0137 109.23 17.0547H113.695C113.168 11.7637 108.721 8.00195 102.955 8.00195C95.7656 8.00195 91.3184 13.082 91.3184 21.3262C91.3184 29.5352 95.7832 34.6328 102.973 34.6328ZM118.477 34H122.836V22.8379C122.836 20.0781 124.436 18.2148 127.301 18.2148C129.832 18.2148 131.168 19.709 131.168 22.627V34H135.527V21.5898C135.527 17.0195 133.031 14.418 128.918 14.418C126.053 14.418 123.996 15.7188 123.082 17.8809H122.766V7.33398H118.477V34ZM148.764 17.8457C151.383 17.8457 153.105 19.6738 153.193 22.5215H144.141C144.334 19.709 146.162 17.8457 148.764 17.8457ZM153.229 28.709C152.596 30.1328 151.102 30.9238 148.939 30.9238C146.074 30.9238 144.229 28.9199 144.123 25.7207V25.4922H157.553V24.0859C157.553 18.0215 154.266 14.3828 148.781 14.3828C143.209 14.3828 139.746 18.2676 139.746 24.4551C139.746 30.6426 143.156 34.3867 148.816 34.3867C153.352 34.3867 156.568 32.207 157.359 28.709H153.229ZM161.49 20.2715C161.49 23.1719 163.23 24.877 166.922 25.7207L170.332 26.5117C172.16 26.916 172.986 27.6016 172.986 28.6914C172.986 30.1152 171.457 31.082 169.26 31.082C167.08 31.082 165.727 30.2383 165.305 28.8145H160.998C161.332 32.3125 164.355 34.3867 169.154 34.3867C173.953 34.3867 177.346 31.9258 177.346 28.2344C177.346 25.4043 175.641 23.8223 171.967 22.9961L168.574 22.2227C166.641 21.7832 165.727 21.1152 165.727 20.0254C165.727 18.6367 167.221 17.6875 169.207 17.6875C171.246 17.6875 172.529 18.5488 172.846 19.9023H176.941C176.625 16.4043 173.76 14.3828 169.189 14.3828C164.654 14.3828 161.49 16.791 161.49 20.2715ZM180.967 20.2715C180.967 23.1719 182.707 24.877 186.398 25.7207L189.809 26.5117C191.637 26.916 192.463 27.6016 192.463 28.6914C192.463 30.1152 190.934 31.082 188.736 31.082C186.557 31.082 185.203 30.2383 184.781 28.8145H180.475C180.809 32.3125 183.832 34.3867 188.631 34.3867C193.43 34.3867 196.822 31.9258 196.822 28.2344C196.822 25.4043 195.117 23.8223 191.443 22.9961L188.051 22.2227C186.117 21.7832 185.203 21.1152 185.203 20.0254C185.203 18.6367 186.697 17.6875 188.684 17.6875C190.723 17.6875 192.006 18.5488 192.322 19.9023H196.418C196.102 16.4043 193.236 14.3828 188.666 14.3828C184.131 14.3828 180.967 16.791 180.967 20.2715Z" fill="#C5C3C0"/>
<defs>
<clipPath id="clip0">
<rect width="32" height="32" fill="white" transform="matrix(-1 0 0 1 32 5.5)"/>
</clipPath>
</defs>
</svg>
