<svg width="65" height="64" viewBox="0 0 65 64" fill="none" xmlns="http://www.w3.org/2000/svg">
<path d="M44.8291 52.0532C44.4932 52.0532 44.1543 51.9678 43.8423 51.7896L19.0982 37.6827C18.1382 37.1363 17.8052 35.9146 18.3516 34.9546C18.8955 33.9922 20.1172 33.6587 21.0772 34.208L45.8208 48.3145C46.7808 48.8614 47.1143 50.0825 46.5679 51.0425C46.1997 51.6905 45.5225 52.0532 44.8291 52.0532Z" fill="black"/>
<path d="M20.0877 30.0532C19.3914 30.0532 18.7141 29.6904 18.3489 29.0454C17.802 28.0855 18.1355 26.8638 19.0955 26.3174L43.8396 12.2105C44.7966 11.6587 46.0208 11.9946 46.5647 12.9575C47.1116 13.9175 46.7781 15.1387 45.8181 15.6856L21.074 29.792C20.762 29.9678 20.4236 30.0532 20.0877 30.0532Z" fill="black"/>
<path d="M51.7915 20C46.2798 20 41.7915 15.5146 41.7915 10C41.7915 4.48535 46.2798 0 51.7915 0C57.3037 0 61.7915 4.48535 61.7915 10C61.7915 15.5146 57.3037 20 51.7915 20ZM51.7915 4C48.4849 4 45.7915 6.69043 45.7915 10C45.7915 13.3096 48.4849 16 51.7915 16C55.0981 16 57.7915 13.3096 57.7915 10C57.7915 6.69043 55.0981 4 51.7915 4Z" fill="#F65868"/>
<path d="M51.7915 64C46.2798 64 41.7915 59.5146 41.7915 54C41.7915 48.4854 46.2798 44 51.7915 44C57.3037 44 61.7915 48.4854 61.7915 54C61.7915 59.5146 57.3037 64 51.7915 64ZM51.7915 48C48.4849 48 45.7915 50.6904 45.7915 54C45.7915 57.3096 48.4849 60 51.7915 60C55.0981 60 57.7915 57.3096 57.7915 54C57.7915 50.6904 55.0981 48 51.7915 48Z" fill="#F65868"/>
<path d="M13.125 42C7.61279 42 3.125 37.5146 3.125 32C3.125 26.4854 7.61279 22 13.125 22C18.6372 22 23.125 26.4854 23.125 32C23.125 37.5146 18.6372 42 13.125 42ZM13.125 26C9.81836 26 7.125 28.6904 7.125 32C7.125 35.3096 9.81836 38 13.125 38C16.4316 38 19.125 35.3096 19.125 32C19.125 28.6904 16.4316 26 13.125 26Z" fill="#F65868"/>
</svg>
