<svg width="65" height="64" viewBox="0 0 65 64" fill="none" xmlns="http://www.w3.org/2000/svg">
<g clip-path="url(#clip0)">
<path d="M57.0526 26.2782C58.3208 24.3354 58.0866 21.8075 56.4829 20.1307C55.7762 19.3917 55.4808 18.3535 55.6926 17.3532C56.1734 15.0834 55.0418 12.8107 52.9407 11.8266C52.0147 11.3929 51.3642 10.5314 51.2003 9.52212C50.8287 7.23187 48.9524 5.5215 46.6378 5.36275C45.6177 5.29275 44.6998 4.7245 44.1824 3.8425C43.0084 1.84137 40.6417 0.924247 38.4254 1.61225C37.4489 1.9155 36.3879 1.717 35.5868 1.08162C33.7692 -0.360378 31.2306 -0.360378 29.4131 1.08162C28.6121 1.71725 27.5508 1.9155 26.5744 1.61225C24.3587 0.924122 21.9913 1.84125 20.8174 3.8425C20.3001 4.7245 19.3823 5.29275 18.3622 5.36275C16.0474 5.5215 14.1713 7.232 13.7996 9.52212C13.6358 10.5314 12.9852 11.3929 12.0593 11.8266C9.9583 12.8109 8.82668 15.0835 9.3073 17.3532C9.51918 18.3535 9.22368 19.3919 8.51705 20.1309C6.91355 21.8076 6.67918 24.3356 7.94743 26.2785C8.5063 27.1346 8.60593 28.2096 8.2138 29.154C7.32418 31.2967 8.01905 33.7386 9.9033 35.0921C10.7338 35.6887 11.2149 36.6551 11.1904 37.6772C11.1351 39.9966 12.6651 42.0226 14.9111 42.6041C15.5741 42.7757 16.1501 43.1594 16.5628 43.6826L11.3973 56.153C10.6734 57.9006 12.3118 59.7002 14.1184 59.1456L19.7737 57.4101C19.9389 57.3597 20.1172 57.4336 20.1981 57.586L22.9697 62.812C23.8563 64.4837 26.2869 64.3657 27.0099 62.6201L32.3938 49.6225C32.4644 49.6201 32.5351 49.6201 32.6057 49.6225L37.9896 62.6201C38.7139 64.3685 41.1444 64.4814 42.0299 62.8121L44.8016 57.586C44.8823 57.4335 45.0607 57.3596 45.2259 57.4102L50.8811 59.1457C52.6887 59.7006 54.3258 57.8997 53.6023 56.1531L48.4367 43.6827C48.8494 43.1595 49.4254 42.7759 50.0884 42.6042C52.3344 42.0229 53.8643 39.9969 53.8091 37.6774C53.7845 36.6552 54.2658 35.6889 55.0963 35.0924C56.9807 33.7387 57.6753 31.2969 56.7857 29.1541C56.3942 28.2094 56.4938 27.1344 57.0526 26.2782ZM25.2781 61.9024C25.1604 62.1864 24.7697 62.2037 24.6263 61.9334L21.8547 56.7074C21.3533 55.762 20.2469 55.304 19.2241 55.6177L13.5688 57.3532C13.2754 57.443 13.0123 57.154 13.1298 56.8704L17.7126 45.8062C18.7466 47.2226 20.4751 48.012 22.2947 47.7995C23.3102 47.6811 24.3168 48.0709 24.9874 48.8426C25.9603 49.9626 27.3312 50.5571 28.7298 50.557C29.1722 50.557 29.6172 50.4951 30.0534 50.374L25.2781 61.9024ZM51.4314 57.3531L45.7763 55.6176C44.7534 55.3039 43.6468 55.762 43.1456 56.7072L40.3739 61.9332C40.2308 62.2034 39.8396 62.1859 39.7221 61.9022L34.9477 50.3761C36.7626 50.8799 38.7324 50.3161 40.0128 48.8424C40.6833 48.0705 41.6896 47.6805 42.7056 47.7992C44.5269 48.0121 46.2543 47.2225 47.2877 45.8061L51.8707 56.8699C51.9884 57.1546 51.7238 57.4425 51.4314 57.3531ZM55.4827 25.2535C54.5849 26.6289 54.4249 28.3556 55.0547 29.8726C55.6084 31.2065 55.1761 32.7265 54.0029 33.5692C52.6689 34.5275 51.8959 36.0799 51.9352 37.7217C51.9697 39.1657 51.0172 40.427 49.6189 40.7889C48.3111 41.1275 47.2128 41.9787 46.5542 43.1299C46.5524 43.1332 46.5506 43.1365 46.5488 43.1397C46.4092 43.3851 46.2882 43.6434 46.1908 43.914C45.7014 45.2729 44.3586 46.1056 42.9232 45.9374C41.2921 45.7466 39.6747 46.3732 38.5976 47.6131C37.6504 48.7034 36.0968 48.9937 34.8196 48.3194C34.3852 48.0899 33.9252 47.9306 33.4554 47.8385C33.4516 47.8376 33.4477 47.8367 33.4438 47.836C32.8198 47.7151 32.1786 47.7152 31.5546 47.8365C31.5523 47.837 31.5502 47.8375 31.5479 47.8379C31.0771 47.93 30.6162 48.0895 30.1808 48.3194C28.9036 48.9939 27.3501 48.7034 26.4029 47.6131C25.4532 46.52 24.0841 45.9037 22.6552 45.9037C22.4634 45.9037 22.2703 45.9149 22.0772 45.9375C20.6432 46.1054 19.2988 45.2731 18.8094 43.9141C18.7121 43.6437 18.5913 43.3859 18.4518 43.1406C18.4497 43.1366 18.4476 43.1329 18.4454 43.1289C17.7867 41.9782 16.6888 41.1274 15.3813 40.7889C13.9831 40.4269 13.0307 39.1657 13.0652 37.7219C13.1044 36.0799 12.3314 34.5276 10.9974 33.5692C9.82443 32.7266 9.3918 31.2065 9.94568 29.8725C10.5754 28.3555 10.4154 26.6287 9.51768 25.2534C8.7283 24.044 8.87405 22.4702 9.87243 21.4265C11.0076 20.2395 11.4822 18.5715 11.1419 16.9647C10.8427 15.5517 11.5472 14.137 12.8551 13.5242C14.3424 12.8275 15.3874 11.4436 15.6507 9.82237C15.8821 8.39662 17.0501 7.33187 18.4909 7.23312C20.1296 7.12075 21.6041 6.20787 22.4351 4.791C23.1659 3.54525 24.6399 2.9745 26.0188 3.40275C27.5874 3.88987 29.2921 3.57125 30.5788 2.55037C31.7101 1.65262 33.2906 1.65262 34.4222 2.55037C35.7088 3.57112 37.4132 3.89 38.9821 3.40275C40.3614 2.97437 41.8352 3.54537 42.5658 4.791C43.3968 6.20775 44.8713 7.12062 46.5099 7.23312C47.9508 7.332 49.1188 8.39675 49.3502 9.82237C49.6134 11.4436 50.6586 12.8275 52.1458 13.5244C53.4538 14.137 54.1582 15.5517 53.8589 16.9647C53.5187 18.5715 53.9932 20.2395 55.1284 21.4265C56.1263 22.4702 56.2721 24.044 55.4827 25.2535Z" fill="black"/>
<path d="M14.7439 24.0162C15.2572 24.0793 15.7256 23.714 15.7887 23.2003C16.824 14.7859 24.0084 8.44079 32.5 8.44079C40.9957 8.44079 48.1804 14.7893 49.2122 23.2082C49.2705 23.6833 49.6747 24.0317 50.1415 24.0317C50.1796 24.0317 50.218 24.0293 50.2567 24.0245C50.7706 23.9615 51.1361 23.4939 51.0732 22.98C49.9262 13.6224 41.9415 6.56592 32.5 6.56592C23.0629 6.56592 15.0786 13.6187 13.9279 22.9713C13.8647 23.4852 14.23 23.9529 14.7439 24.0162Z" fill="black"/>
<path d="M50.2569 26.5325C49.7445 26.47 49.2754 26.8351 49.2124 27.349C48.1809 35.7682 40.9961 42.1171 32.5 42.1171C24.0078 42.1171 16.8234 35.7714 15.7885 27.3564C15.7254 26.8426 15.2579 26.4775 14.7436 26.5404C14.2299 26.6035 13.8644 27.0714 13.9276 27.5852C15.0779 36.9386 23.0621 43.9919 32.4999 43.9919C41.9419 43.9919 49.9266 36.935 51.0731 27.5769C51.1363 27.0631 50.7708 26.5955 50.2569 26.5325Z" fill="black"/>
<path d="M45.7375 21.4101C45.4992 20.6769 44.8475 20.1851 44.0769 20.1575L36.7267 19.8939L34.2046 12.9849C33.9402 12.2606 33.2712 11.7926 32.5002 11.7926C31.7292 11.7926 31.0602 12.2606 30.7959 12.9849L28.2737 19.8939L20.9236 20.1575C20.1531 20.1851 19.5012 20.6769 19.263 21.4101C19.0247 22.1434 19.263 22.9244 19.8701 23.3996L25.6615 27.9332L23.641 35.0052C23.4291 35.7466 23.6954 36.5185 24.3192 36.9717C24.9424 37.4245 25.7587 37.44 26.3989 37.009L32.5001 32.9019L38.6015 37.0087C39.2409 37.4392 40.0572 37.4247 40.6811 36.9715C41.305 36.5184 41.5711 35.7465 41.3592 35.005L39.3387 27.9331L45.1301 23.3995C45.7374 22.9242 45.9757 22.1434 45.7375 21.4101ZM38.1512 26.4819C37.5669 26.9394 37.321 27.696 37.525 28.4092L39.5112 35.3611L33.5135 31.324C33.2056 31.1167 32.8529 31.0131 32.5001 31.0131C32.1474 31.0131 31.7946 31.1167 31.4869 31.3239L25.489 35.361L27.4752 28.4092C27.6791 27.6957 27.4334 26.9394 26.8491 26.4819L21.1559 22.0251L28.3815 21.7659C29.123 21.7392 29.7665 21.2716 30.0209 20.5747L32.5002 13.783L34.9796 20.5747C35.2341 21.2716 35.8775 21.7392 36.619 21.7657L43.8444 22.025L38.1512 26.4819Z" fill="#F65868"/>
</g>
<defs>
<clipPath id="clip0">
<rect width="64" height="64" fill="white" transform="translate(0.5)"/>
</clipPath>
</defs>
</svg>
