<svg width="64" height="64" viewBox="0 0 64 64" fill="none" xmlns="http://www.w3.org/2000/svg">
<g clip-path="url(#clip0)">
<path d="M46.8794 28.1405C46.5729 27.365 45.6958 26.9852 44.9201 27.2915C44.1446 27.5981 43.7646 28.4753 44.0711 29.2508C44.8384 31.1915 45.2273 33.2425 45.2273 35.3471C45.2273 44.4896 37.7894 51.9277 28.6467 51.9277C19.5033 51.9277 12.0644 44.4896 12.0644 35.3471C12.0644 26.2046 19.5033 18.7665 28.6467 18.7665C30.7587 18.7665 32.8132 19.1578 34.7532 19.9297C35.5278 20.2383 36.4059 19.8597 36.7143 19.0851C37.0227 18.3102 36.6444 17.4322 35.8697 17.124C33.5729 16.21 31.1427 15.7466 28.6468 15.7466C17.8383 15.7466 9.04468 24.5392 9.04468 35.347C9.04468 46.1547 17.8379 54.9475 28.6467 54.9475C39.4543 54.9475 48.2471 46.1548 48.2471 35.3471C48.2471 32.8607 47.7868 30.4362 46.8794 28.1405Z" fill="black"/>
<path d="M56.1883 27.4508C55.9589 26.6491 55.1235 26.1857 54.3213 26.4146C53.5195 26.6441 53.0556 27.4799 53.285 28.2816C53.9395 30.5693 54.2714 32.9466 54.2714 35.3468C54.2714 49.4773 42.7761 60.9736 28.6465 60.9736C14.516 60.9736 3.01988 49.4774 3.01988 35.3468C3.01988 21.2162 14.5159 9.72032 28.6465 9.72032C31.0522 9.72032 33.4335 10.0537 35.7238 10.7113C36.5254 10.9413 37.3616 10.4783 37.5916 9.67669C37.8218 8.87507 37.3586 8.03882 36.557 7.80882C33.9959 7.07332 31.3342 6.70032 28.6465 6.70032C12.8507 6.70044 0 19.5512 0 35.3469C0 51.1427 12.8507 63.9936 28.6465 63.9936C44.4412 63.9936 57.2912 51.1428 57.2912 35.3469C57.2912 32.6654 56.9201 30.0088 56.1883 27.4508Z" fill="black"/>
<path d="M39.1596 34.4251C39.0856 33.5945 38.3517 32.9845 37.5215 33.0554C36.6908 33.1295 36.0775 33.863 36.1517 34.6936C36.1708 34.9086 36.1806 35.1285 36.1806 35.3471C36.1806 39.5018 32.8006 42.8815 28.6462 42.8815C24.4907 42.8815 21.11 39.5015 21.11 35.3471C21.1102 31.1915 24.4908 27.8109 28.6463 27.8109C28.8785 27.8109 29.1057 27.821 29.3221 27.8409C30.1532 27.9171 30.8877 27.3064 30.9643 26.4759C31.0408 25.6455 30.4297 24.9104 29.5993 24.8336C29.2913 24.8053 28.9707 24.7909 28.6465 24.7909C22.8258 24.7909 18.0903 29.5261 18.0903 35.3469C18.0903 41.1666 22.8258 45.9011 28.6465 45.9011C34.4661 45.9011 39.2007 41.1666 39.2007 35.3469C39.2006 35.0393 39.1868 34.7289 39.1596 34.4251Z" fill="black"/>
<path d="M63.7685 10.158C63.2994 9.02525 62.2039 8.29325 60.9778 8.29325H55.7129V3.0285C55.7129 1.80225 54.9809 0.706873 53.8482 0.237748C52.7159 -0.231252 51.4243 0.0258728 50.5575 0.892623L41.7605 9.68975C40.9053 10.5449 40.4344 11.6821 40.4344 12.892V21.4364L28.1632 33.7076C27.5735 34.2973 27.5735 35.2534 28.1632 35.8431C28.4579 36.1379 28.8444 36.2854 29.2308 36.2854C29.6172 36.2854 30.0037 36.1379 30.2984 35.8431L42.5698 23.5718H51.1142C52.324 23.5718 53.4614 23.1008 54.3164 22.2458L63.1135 13.4484C63.9805 12.5815 64.2375 11.2901 63.7685 10.158ZM43.4543 12.8919C43.4544 12.4888 43.6113 12.1098 43.896 11.8251L52.693 3.02937V9.17788L43.4542 18.4168V12.8919H43.4543ZM52.1812 20.1103C51.9007 20.3908 51.5117 20.5519 51.1143 20.5519H45.5898L54.8284 11.3133L60.9774 11.314L52.1812 20.1103Z" fill="#F65868"/>
<path d="M-81.7968 4.42583C-87.3671 4.42583 -92.785 1.52348 -95.7069 -3.63667C-100.082 -11.3164 -97.4139 -21.0898 -89.7343 -25.4609L108.219 -138.316C115.875 -142.73 125.668 -140.043 130.02 -132.34C134.395 -124.66 131.727 -114.891 124.047 -110.516L-73.9061 2.33598C-76.4022 3.74223 -79.1093 4.42583 -81.7968 4.42583Z" fill="black"/>
<path d="M116.133 180.426C113.445 180.426 110.734 179.742 108.238 178.316L-89.7148 65.461C-97.3944 61.0899 -100.059 51.3165 -95.6874 43.6368C-91.3359 35.9376 -81.5624 33.2696 -73.8827 37.6641L124.066 150.516C131.746 154.891 134.414 164.66 130.043 172.34C127.098 177.523 121.68 180.426 116.133 180.426Z" fill="black"/>
</g>
<defs>
<clipPath id="clip0">
<rect width="64" height="64" fill="white"/>
</clipPath>
</defs>
</svg>
