<svg width="64" height="64" viewBox="0 0 64 64" fill="none" xmlns="http://www.w3.org/2000/svg">
<path d="M58.8192 33.5499C58.6264 32.5455 57.748 31.8193 56.7253 31.8187H54.6656L54.5141 30.911C54.363 29.9992 53.6447 29.2869 52.7317 29.1435C52.529 29.1115 52.3242 29.0902 52.1226 29.0624C52.4719 27.4317 52.1817 25.7291 51.312 24.3062C51.7715 23.1141 51.6857 21.7806 51.0773 20.6573C50.4688 19.534 49.3987 18.7336 48.1493 18.4672C47.3505 14.192 43.6312 11.0844 39.2821 11.0582C39.1754 11.0582 39.0805 11.072 38.9791 11.0752C38.2842 9.98387 37.1385 9.25955 35.8546 9.09986C34.5706 8.94017 33.2824 9.36176 32.3413 10.2496C31.1557 9.47898 29.7724 9.06813 28.3584 9.0667C26.08 9.07602 23.9328 10.1335 22.5365 11.9339C20.9861 11.4818 19.3143 11.7594 17.9932 12.6883C16.6721 13.6171 15.8452 15.0964 15.7461 16.7083C14.1176 17.3928 13.058 18.9866 13.057 20.7531C13.0604 21.0593 13.0961 21.3643 13.1637 21.663C11.7236 23.834 11.3473 26.5415 12.1407 29.023C11.8549 29.0624 11.5626 29.0976 11.2874 29.1382C10.3697 29.2766 9.64498 29.9893 9.49115 30.9046L9.33968 31.8155H7.27462C6.25365 31.8162 5.37631 32.5402 5.18181 33.5424L0.510882 57.5232C0.328466 58.4624 0.575831 59.4339 1.18517 60.1715C1.79451 60.9091 2.7019 61.3353 3.65862 61.3334H25.9029C26.7861 62.7904 29.4698 63.4667 32 63.4667C34.5034 63.4667 37.1616 62.8064 38.0704 61.3334H60.3413C61.2978 61.3352 62.2049 60.9091 62.8142 60.1718C63.4235 59.4345 63.6711 58.4633 63.489 57.5243L58.8192 33.5499ZM16.2826 22.6838C15.4165 22.163 15.0032 21.1293 15.2715 20.155C15.5398 19.1807 16.4241 18.5043 17.4346 18.5003C18.1419 18.4982 18.8075 18.8344 19.2255 19.4048C19.4527 19.7108 19.8258 19.8724 20.2044 19.8287C20.583 19.7851 20.9095 19.5427 21.0609 19.193C21.2124 18.8433 21.1657 18.4394 20.9386 18.1334C20.2143 17.1653 19.1167 16.546 17.9136 16.4267C18.2316 14.9329 19.5489 13.8634 21.0762 13.8592C21.2064 13.8658 21.336 13.8801 21.4645 13.9019C21.3787 14.1206 21.3039 14.3434 21.2405 14.5696C21.1077 15.1343 21.4505 15.7015 22.0121 15.8465C22.5737 15.9916 23.1483 15.6613 23.3056 15.103C23.4268 14.6342 23.6132 14.1846 23.8591 13.7675C24.8053 12.1824 26.5123 11.2083 28.3584 11.2C29.363 11.2045 30.3448 11.501 31.184 12.0534C31.0241 12.5025 30.9394 12.975 30.9333 13.4518C30.9333 14.0409 31.4108 14.5184 32 14.5184C32.5891 14.5184 33.0666 14.0409 33.0666 13.4518C33.0666 12.2126 34.0712 11.208 35.3103 11.208C36.5495 11.208 37.5541 12.2126 37.5541 13.4518C37.5541 14.0409 38.0316 14.5184 38.6208 14.5184C39.2099 14.5184 39.6874 14.0409 39.6874 13.4518C39.6874 13.3696 39.6671 13.2918 39.6629 13.2096C42.7171 13.3981 45.2854 15.5691 45.9797 18.5494C45.4821 18.6942 45.0146 18.9273 44.5994 19.2374C44.2945 19.466 44.1348 19.8399 44.1804 20.2183C44.226 20.5966 44.47 20.9219 44.8204 21.0716C45.1709 21.2213 45.5746 21.1727 45.8794 20.944C46.7318 20.3129 47.9093 20.3633 48.7047 21.0648C49.5001 21.7663 49.6972 22.9283 49.1776 23.8528C48.9454 24.2611 48.5925 24.5875 48.1674 24.7872C47.7216 25.0031 47.4831 25.4974 47.5914 25.9806C47.6998 26.4639 48.1266 26.8091 48.6218 26.8139C48.7782 26.8141 48.9327 26.7795 49.0741 26.7126C49.3568 26.5756 49.6239 26.4086 49.8709 26.2144C50.4223 27.782 50.0764 29.5254 48.9685 30.7638L48.9429 30.7904C47.5533 32.2958 45.3365 32.7026 43.5029 31.7888C43.3233 31.694 43.1508 31.5863 42.9866 31.4667C43.7723 30.3652 43.8808 28.9184 43.2682 27.712C43.0967 27.3715 42.7566 27.1484 42.376 27.1267C41.9954 27.1049 41.6321 27.2879 41.4229 27.6067C41.2138 27.9254 41.1906 28.3315 41.3621 28.672C41.7128 29.377 41.4941 30.2326 40.8479 30.6827C40.4685 30.9353 39.9998 31.0152 39.5581 30.9026C39.1164 30.7899 38.7432 30.4953 38.5312 30.0918C38.3606 29.7509 38.0212 29.5269 37.6407 29.5041C37.2602 29.4814 36.8965 29.6633 36.6866 29.9815C36.4766 30.2996 36.4523 30.7056 36.6229 31.0464C37.2484 32.3092 38.5374 33.1067 39.9466 33.103C40.4054 33.0999 40.8595 33.0105 41.2853 32.8395C41.6663 33.1731 42.086 33.4596 42.5354 33.6928C44.0556 34.4808 45.8234 34.6443 47.4623 34.1483C46.4082 35.5876 44.8306 36.5549 43.0698 36.8416C42.522 36.9308 42.1341 37.4252 42.1779 37.9785C42.2216 38.5318 42.6823 38.9591 43.2373 38.9611C43.2941 38.9611 43.3507 38.9568 43.4069 38.9483C44.0564 38.8359 44.6912 38.6505 45.2991 38.3958C45.6277 38.9767 45.8945 39.5906 46.0949 40.2272C46.1316 40.3384 46.1503 40.4547 46.1503 40.5718C46.1501 41.0328 45.8747 41.4492 45.4506 41.6299C44.96 41.8197 44.4029 41.67 44.0736 41.2598C43.2475 40.2897 42.1657 39.5709 40.9514 39.1851C38.6463 38.4128 37.7567 37.7227 37.3791 36.9718C37.9326 36.9027 38.4795 36.7886 39.0144 36.6304C39.3787 36.5184 39.6555 36.2205 39.7407 35.849C39.8258 35.4775 39.7063 35.0887 39.4271 34.8293C39.1479 34.5698 38.7515 34.4789 38.3871 34.591C37.7886 34.7746 37.1708 34.8881 36.5461 34.9291C35.3425 35.0232 34.1334 34.8407 33.0112 34.3958C32.5898 34.2314 32.1106 34.3507 31.8154 34.6934C30.2624 36.4773 27.6044 36.7805 25.6895 35.3922C23.7746 34.0038 23.2363 31.3833 24.449 29.3526C24.6455 29.0246 24.652 28.6168 24.4663 28.2827C24.2805 27.9486 23.9306 27.739 23.5484 27.7329C23.1662 27.7267 22.8097 27.9249 22.6133 28.2528C22.3588 28.686 22.1541 29.1465 22.0032 29.6256C21.1632 29.5814 20.5008 28.8944 20.4874 28.0534V28.0267C20.4869 27.7452 20.3739 27.4757 20.1735 27.278C19.9732 27.0802 19.7022 26.9708 19.4208 26.9739C18.8291 26.9798 18.3529 27.4617 18.3541 28.0534C18.3588 29.9451 19.7854 31.5306 21.6661 31.7344C21.6699 32.092 21.7024 32.4487 21.7631 32.8011C19.3815 33.3164 16.9113 32.4604 15.3593 30.5818C13.8073 28.7032 13.4327 26.1158 14.3882 23.8742C14.6269 24.1156 14.8932 24.3279 15.1818 24.5067C15.6857 24.8019 16.3333 24.637 16.6346 24.1368C16.936 23.6365 16.7791 22.987 16.2826 22.6795V22.6838ZM11.5893 31.2523C12.081 31.1798 12.5887 31.1158 13.0933 31.0496C15.0655 34.2012 18.8374 35.7315 22.448 34.8448C23.4181 36.6861 25.1908 37.9701 27.2427 38.3179C29.2946 38.6657 31.3914 38.0375 32.9141 36.6187C33.639 36.8349 34.3856 36.9701 35.1402 37.0219C35.6554 38.976 37.1445 40.16 40.273 41.2086C41.1164 41.473 41.8688 41.9685 42.4447 42.639C43.0851 43.4004 44.027 43.8429 45.0218 43.8496C45.4569 43.8495 45.8875 43.7617 46.2879 43.5915C47.4971 43.0748 48.2814 41.8867 48.2816 40.5718C48.2825 40.2289 48.2278 39.8881 48.1194 39.5627C47.8795 38.809 47.5636 38.0817 47.1765 37.392C48.9903 36.0881 50.2539 34.1557 50.721 31.9712C50.9482 31.7013 51.1536 31.4139 51.3354 31.1115C51.6927 31.1574 52.0501 31.1979 52.4095 31.2576L56.2602 54.4192C48.7333 51.9059 40.5935 51.9059 33.0666 54.4192V41.0667C33.0666 40.4776 32.5891 40 32 40C31.4108 40 30.9333 40.4776 30.9333 41.0667V54.4235C23.4072 51.9078 15.2676 51.9048 7.73968 54.415L11.5893 31.2523ZM2.82768 58.8075C2.62613 58.564 2.54397 58.2432 2.60368 57.9328L7.27462 33.952H8.98128L5.63408 54.0683C5.51635 54.8005 5.78595 55.5415 6.34668 56.0268C6.90742 56.5122 7.67939 56.6727 8.38715 56.4512C14.0736 54.609 20.1316 54.2246 26.0053 55.3334L25.6874 59.2H3.65862C3.33682 59.2003 3.03188 59.0562 2.82768 58.8075ZM32 61.3334C29.4304 61.3334 27.9562 60.5739 27.7397 60.2358L28.1066 55.8091C29.2795 56.1011 30.4273 56.486 31.5392 56.96C31.6829 57.0293 31.8403 57.0658 32 57.0667C32.16 57.0665 32.3179 57.03 32.4618 56.96C33.573 56.4832 34.7205 56.0958 35.8933 55.8016L36.2602 60.2347C36.0437 60.5739 34.5695 61.3334 32 61.3334ZM61.1722 58.8075C60.968 59.0562 60.6631 59.2003 60.3413 59.2H38.3157L37.9957 55.3259C43.8726 54.2194 49.9333 54.6071 55.6213 56.4534C56.3289 56.672 57.0992 56.5091 57.6578 56.0228C58.2163 55.5366 58.4838 54.7961 58.3647 54.0651L55.0208 33.9531H56.7274L61.3994 57.9318C61.4586 58.243 61.3752 58.5643 61.1722 58.8075Z" fill="black"/>
<path d="M28.465 24.7307C28.0284 25.1258 27.9945 25.7999 28.3893 26.2368C29.2942 27.2359 30.49 27.9254 31.808 28.208C31.2111 29.0491 30.2431 29.5483 29.2117 29.5467C28.6226 29.5467 28.145 30.0242 28.145 30.6134C28.145 31.2025 28.6226 31.68 29.2117 31.68C31.4199 31.6888 33.4012 30.325 34.1813 28.2592C36.8336 27.8197 38.9334 25.7781 39.4474 23.1392C39.5269 22.7618 39.3963 22.3708 39.106 22.1168C38.8157 21.8628 38.411 21.7853 38.0474 21.9142C37.6838 22.043 37.4181 22.3581 37.3525 22.7381C37.1433 23.8383 36.5086 24.8115 35.5861 25.4464C33.8114 26.6417 31.4313 26.3704 29.9712 24.8064C29.5761 24.3698 28.9019 24.3359 28.465 24.7307Z" fill="black"/>
<path d="M24.7466 23.5733C25.3357 23.5733 25.8133 23.0957 25.8133 22.5066C25.8133 21.7711 26.1055 21.0657 26.6256 20.5456C27.1457 20.0255 27.8511 19.7333 28.5866 19.7333C29.1757 19.7333 29.6533 19.2557 29.6533 18.6666C29.6533 18.0775 29.1757 17.6 28.5866 17.6C25.8779 17.6029 23.6829 19.798 23.6799 22.5066C23.6799 22.7895 23.7923 23.0608 23.9924 23.2609C24.1924 23.4609 24.4637 23.5733 24.7466 23.5733Z" fill="black"/>
<path d="M33.0667 2.66666V1.59999C33.0667 1.01089 32.5891 0.533325 32 0.533325C31.4109 0.533325 30.9333 1.01089 30.9333 1.59999V2.66666C30.9333 3.25576 31.4109 3.73333 32 3.73333C32.5891 3.73333 33.0667 3.25576 33.0667 2.66666Z" fill="#F65868"/>
<path d="M49.5042 8.18773L48.4375 9.25439C48.1602 9.52221 48.049 9.9188 48.1466 10.2917C48.2442 10.6647 48.5355 10.9559 48.9084 11.0535C49.2814 11.1512 49.6779 11.04 49.9458 10.7627L51.0124 9.696C51.2897 9.42818 51.4009 9.03159 51.3033 8.65865C51.2057 8.28572 50.9144 7.99447 50.5415 7.89685C50.1686 7.79923 49.772 7.91044 49.5042 8.18773Z" fill="#F65868"/>
<path d="M14.8086 11.0752C15.2399 11.0751 15.6288 10.8152 15.7938 10.4167C15.9589 10.0182 15.8677 9.55946 15.5627 9.2544L14.496 8.18773C14.2282 7.91044 13.8316 7.79923 13.4587 7.89685C13.0858 7.99447 12.7945 8.28572 12.6969 8.65865C12.5993 9.03159 12.7105 9.42818 12.9878 9.696L14.0544 10.7627C14.2544 10.9627 14.5257 11.0751 14.8086 11.0752Z" fill="#F65868"/>
<path d="M23.0197 6.58672C23.1599 6.58642 23.2986 6.55889 23.4283 6.50565C23.6897 6.39736 23.8974 6.18961 24.0056 5.92814C24.1139 5.66667 24.1138 5.37291 24.0053 5.11152L22.7797 2.15472C22.6393 1.79459 22.3151 1.53859 21.9322 1.48557C21.5493 1.43255 21.1677 1.59081 20.9348 1.89924C20.7018 2.20767 20.6539 2.618 20.8096 2.97179L22.0341 5.92859C22.1994 6.32709 22.5883 6.58683 23.0197 6.58672Z" fill="#F65868"/>
<path d="M42.6133 1.57763C42.0692 1.35257 41.4457 1.61085 41.2202 2.1547L39.9946 5.1115C39.8859 5.37301 39.8856 5.66704 39.9938 5.92876C40.1021 6.19048 40.31 6.39841 40.5717 6.5067C40.7013 6.55993 40.8401 6.58746 40.9802 6.58776C41.4116 6.58787 41.8006 6.32813 41.9658 5.92963L43.1904 2.97283C43.2991 2.71132 43.2994 2.41729 43.1911 2.15557C43.0829 1.89384 42.875 1.68592 42.6133 1.57763Z" fill="#F65868"/>
<path d="M53.6799 19.2875C53.8201 19.2872 53.959 19.2593 54.0884 19.2053L57.0442 17.9808C57.3963 17.835 57.6439 17.5125 57.6937 17.1346C57.7435 16.7568 57.588 16.3811 57.2857 16.149C56.9834 15.917 56.5803 15.8638 56.2282 16.0096L53.2714 17.2341C52.7995 17.4279 52.5309 17.9287 52.6305 18.4289C52.73 18.9292 53.1698 19.289 53.6799 19.2875Z" fill="#F65868"/>
<path d="M9.91136 19.2053C10.4557 19.431 11.0799 19.1726 11.3055 18.6283C11.5311 18.0839 11.2728 17.4598 10.7284 17.2341L7.77162 16.0096C7.22729 15.7843 6.60335 16.0429 6.37802 16.5872C6.15269 17.1315 6.41129 17.7555 6.95562 17.9808L9.91136 19.2053Z" fill="#F65868"/>
</svg>
