<svg width="203" height="162" viewBox="0 0 203 162" fill="none" xmlns="http://www.w3.org/2000/svg">
<g clip-path="url(#clip0)">
<path d="M12.1353 153.291C12.1353 153.291 3.44694 152.766 4.47055 158.862C4.47055 158.862 4.26501 159.938 5.24134 160.428C5.24134 160.428 5.25779 159.975 6.13341 160.13C6.44498 160.182 6.76169 160.198 7.07685 160.175C7.50351 160.146 7.90904 159.978 8.23202 159.698C8.23202 159.698 10.6739 158.688 11.6256 154.692C11.6256 154.692 12.3285 153.82 12.2997 153.595L10.8342 154.213C10.8342 154.213 11.3337 155.272 10.9411 156.151C10.9411 156.151 10.8918 154.252 10.6102 154.299C10.5526 154.309 9.84965 154.667 9.84965 154.667C9.84965 154.667 10.7109 156.519 10.0552 157.852C10.0552 157.852 10.3019 155.579 9.57422 154.799L8.5465 155.404C8.5465 155.404 9.55573 157.309 8.87126 158.862C8.87126 158.862 9.04597 156.478 8.33068 155.55L7.39545 156.28C7.39545 156.28 8.34096 158.159 7.76338 159.447C7.76338 159.447 7.68938 156.671 7.19196 156.461C7.19196 156.461 6.36978 157.184 6.24851 157.49C6.24851 157.49 6.89803 158.852 6.49516 159.572C6.49516 159.572 6.24851 157.721 6.04708 157.721C6.04708 157.721 5.2249 158.945 5.14679 159.778C5.14679 159.778 5.18173 158.527 5.8477 157.595C5.37761 157.684 4.94381 157.908 4.60004 158.241C4.60004 158.241 4.72748 157.375 6.04913 157.299C6.04913 157.299 6.72332 156.371 6.9042 156.313C6.9042 156.313 5.58871 156.204 4.7912 156.558C4.7912 156.558 5.49211 155.735 7.14468 156.112L8.06964 155.357C8.06964 155.357 6.33689 155.12 5.6031 155.381C5.6031 155.381 6.44789 154.659 8.31835 155.186L9.32346 154.585C9.32346 154.585 7.84559 154.266 6.96586 154.379C6.96586 154.379 7.89492 153.877 9.61739 154.42L10.3368 154.097C10.3368 154.097 9.25357 153.892 8.93703 153.851C8.6205 153.809 8.60405 153.729 8.60405 153.729C9.28953 153.615 9.99328 153.693 10.6369 153.956C10.6369 153.956 12.162 153.388 12.1353 153.291Z" fill="#5375E2"/>
<path opacity="0.1" d="M6.1499 162C9.54639 162 12.2998 161.534 12.2998 160.959C12.2998 160.384 9.54639 159.918 6.1499 159.918C2.7534 159.918 0 160.384 0 160.959C0 161.534 2.7534 162 6.1499 162Z" fill="#5375E2"/>
<path d="M202.907 139.447C202.907 139.447 198.007 139.15 198.591 142.586C198.561 142.761 198.587 142.941 198.665 143.099C198.744 143.258 198.87 143.388 199.027 143.471C199.027 143.471 199.027 143.216 199.528 143.302C199.704 143.331 199.883 143.339 200.061 143.327C200.301 143.311 200.53 143.217 200.712 143.059C200.712 143.059 202.089 142.49 202.626 140.237C202.626 140.237 203.02 139.745 203.006 139.62L202.184 139.973C202.184 139.973 202.466 140.57 202.244 141.068C202.244 141.068 202.217 139.996 202.059 140.021C202.026 140.021 201.627 140.226 201.627 140.226C201.627 140.226 202.114 141.255 201.748 142.021C201.748 142.021 201.886 140.741 201.477 140.301L200.893 140.64C200.893 140.64 201.462 141.716 201.076 142.592C201.076 142.592 201.177 141.247 200.772 140.724L200.244 141.136C200.244 141.136 200.778 142.193 200.449 142.922C200.449 142.922 200.406 141.356 200.126 141.239C199.926 141.408 199.748 141.6 199.594 141.813C199.594 141.813 199.96 142.58 199.734 142.987C199.734 142.987 199.594 141.944 199.479 141.94C199.479 141.94 199.021 142.629 198.973 143.103C198.994 142.664 199.131 142.238 199.368 141.868C199.103 141.919 198.858 142.046 198.665 142.234C198.665 142.234 198.737 141.745 199.487 141.702C199.487 141.702 199.867 141.179 199.97 141.146C199.97 141.146 199.228 141.084 198.778 141.284C198.778 141.284 199.175 140.823 200.106 141.033L200.626 140.607C200.626 140.607 199.65 140.473 199.236 140.621C199.236 140.621 199.713 140.21 200.766 140.51L201.333 140.171C200.897 140.075 200.451 140.037 200.005 140.058C200.005 140.058 200.527 139.774 201.499 140.08L201.911 139.897C201.911 139.897 201.294 139.778 201.123 139.759C200.953 139.741 200.934 139.692 200.934 139.692C201.321 139.627 201.718 139.671 202.081 139.819C202.081 139.819 202.922 139.5 202.907 139.447Z" fill="#5375E2"/>
<path opacity="0.1" d="M199.532 144.356C201.448 144.356 203 144.093 203 143.769C203 143.445 201.448 143.183 199.532 143.183C197.617 143.183 196.065 143.445 196.065 143.769C196.065 144.093 197.617 144.356 199.532 144.356Z" fill="#5375E2"/>
<path d="M192.832 148.802C192.832 148.802 186.916 148.446 187.623 152.598C187.587 152.808 187.619 153.025 187.713 153.217C187.808 153.409 187.96 153.566 188.149 153.665C188.149 153.665 188.149 153.357 188.766 153.46C188.978 153.496 189.194 153.506 189.409 153.491C189.699 153.47 189.975 153.356 190.195 153.166C190.195 153.166 191.857 152.478 192.503 149.758C192.503 149.758 192.982 149.164 192.963 149.012L191.964 149.44C191.964 149.44 192.305 150.16 192.038 150.758C192.038 150.758 192.005 149.464 191.814 149.495C191.775 149.495 191.294 149.744 191.294 149.744C191.294 149.744 191.882 151.001 191.438 151.913C191.438 151.913 191.607 150.365 191.111 149.837L190.408 150.248C190.408 150.248 191.095 151.546 190.63 152.604C190.63 152.604 190.749 150.981 190.26 150.341L189.625 150.837C189.625 150.837 190.269 152.116 189.876 152.993C189.876 152.993 189.825 151.104 189.485 150.962C189.485 150.962 188.928 151.452 188.844 151.655C188.844 151.655 189.286 152.583 189.013 153.073C189.013 153.073 188.844 151.814 188.706 151.808C188.706 151.808 188.151 152.641 188.09 153.213C188.117 152.684 188.283 152.172 188.569 151.727C188.248 151.788 187.952 151.941 187.718 152.168C187.718 152.168 187.804 151.579 188.704 151.528C188.704 151.528 189.163 150.894 189.286 150.855C189.286 150.855 188.39 150.781 187.847 151.022C187.847 151.022 188.326 150.466 189.45 150.719L190.079 150.205C190.079 150.205 188.9 150.042 188.4 150.221C188.4 150.221 188.976 149.73 190.25 150.088L190.934 149.676C190.934 149.676 189.929 149.46 189.331 149.538C189.331 149.538 189.962 149.197 191.136 149.567L191.625 149.347C191.625 149.347 190.887 149.201 190.673 149.178C190.46 149.156 190.445 149.096 190.445 149.096C190.912 149.018 191.391 149.072 191.829 149.25C191.829 149.25 192.848 148.868 192.832 148.802Z" fill="#5375E2"/>
<path opacity="0.1" d="M188.756 154.729C191.068 154.729 192.942 154.412 192.942 154.021C192.942 153.63 191.068 153.314 188.756 153.314C186.443 153.314 184.569 153.63 184.569 154.021C184.569 154.412 186.443 154.729 188.756 154.729Z" fill="#5375E2"/>
<path opacity="0.1" d="M165.564 152.419C176.045 152.419 184.542 151.091 184.542 149.454C184.542 147.817 176.045 146.489 165.564 146.489C155.083 146.489 146.586 147.817 146.586 149.454C146.586 151.091 155.083 152.419 165.564 152.419Z" fill="#5375E2"/>
<path opacity="0.1" d="M105.51 160.134C117.288 160.134 126.835 159.175 126.835 157.992C126.835 156.809 117.288 155.85 105.51 155.85C93.7325 155.85 84.1848 156.809 84.1848 157.992C84.1848 159.175 93.7325 160.134 105.51 160.134Z" fill="#5375E2"/>
<path opacity="0.1" d="M40.9012 158.007C49.8409 158.007 57.0879 157.559 57.0879 157.007C57.0879 156.454 49.8409 156.007 40.9012 156.007C31.9616 156.007 24.7146 156.454 24.7146 157.007C24.7146 157.559 31.9616 158.007 40.9012 158.007Z" fill="#5375E2"/>
<path opacity="0.1" d="M69.6407 7.04664C75.6447 1.69739 85.071 0.600792 93.6483 1.02667C120.593 2.36604 144.915 15.3874 165.955 30.1163C173.572 35.447 181.071 41.1934 186.014 48.5362C196.086 63.4812 193.093 84.187 179.099 96.5005C174.337 100.689 168.565 103.907 162.639 106.748C152.103 111.812 140.735 115.875 128.778 117.035C120.25 117.858 111.617 117.19 103.14 116.038C79.4534 112.82 56.2043 105.709 36.7186 93.5502C28.1721 88.2009 20.1147 81.5761 16.5917 72.9453C13.0687 64.3145 15.3235 53.3773 24.0509 48.2688C27.6603 46.1558 31.9767 45.2012 36.2007 44.3062C42.4205 42.9874 48.7389 41.6872 54.3523 39.0043C60.1487 36.235 67.0118 30.8796 65.8628 24.7506C64.6337 18.1731 63.645 12.3959 69.6407 7.04664Z" fill="#5375E2"/>
<path opacity="0.9" d="M119.393 80.605V41.3209H124.737V29.5937H86.4439V41.3209H91.7881V80.605C84.4078 83.4106 78.0543 88.3962 73.5705 94.9001C69.0867 101.404 66.6846 109.119 66.6829 117.021C66.6829 138.531 84.1048 155.968 105.595 155.968C127.084 155.968 144.504 138.531 144.504 117.021C144.502 109.118 142.099 101.403 137.614 94.8985C133.129 88.3945 126.774 83.4094 119.393 80.605Z" fill="#96B7FE"/>
<path opacity="0.1" d="M119.393 41.1995H91.7798V41.7283H119.393V41.1995Z" fill="black"/>
<path d="M83.823 115.976C83.823 115.976 107.255 115.564 118.971 109.695C130.687 103.825 137.382 109.065 136.753 112.626C136.124 116.188 132.78 123.094 119.39 123.942C106.001 124.79 83.823 115.976 83.823 115.976Z" fill="#5375E2"/>
<path opacity="0.1" d="M83.823 115.976C83.823 115.976 107.255 115.564 118.971 109.695C130.687 103.825 137.382 109.065 136.753 112.626C136.124 116.188 132.78 123.094 119.39 123.942C106.001 124.79 83.823 115.976 83.823 115.976Z" fill="black"/>
<path d="M73.7885 112.211C73.7885 112.211 71.2849 146.971 104.121 147.598C136.956 148.226 136.755 112.622 136.755 112.622C136.755 112.622 124.628 125.812 95.9626 114.925C95.9626 114.933 81.11 110.954 73.7885 112.211Z" fill="#5375E2"/>
<path opacity="0.1" d="M136.648 112.748C135.992 120.755 131.74 145.821 104.133 145.292C77.0709 144.78 74.0063 121.099 73.7658 112.768C73.6157 117.239 73.7494 147.014 104.127 147.596C136.971 148.213 136.761 112.62 136.761 112.62C136.761 112.62 136.72 112.672 136.648 112.748Z" fill="black"/>
<path opacity="0.3" d="M104.32 101.477C106.673 101.477 108.581 99.5678 108.581 97.2123C108.581 94.8568 106.673 92.9473 104.32 92.9473C101.967 92.9473 100.059 94.8568 100.059 97.2123C100.059 99.5678 101.967 101.477 104.32 101.477Z" fill="#5375E2"/>
<path opacity="0.3" d="M106.754 82.7899C108.21 82.7899 109.391 81.6081 109.391 80.1503C109.391 78.6924 108.21 77.5106 106.754 77.5106C105.297 77.5106 104.116 78.6924 104.116 80.1503C104.116 81.6081 105.297 82.7899 106.754 82.7899Z" fill="#5375E2"/>
<path opacity="0.3" d="M100.869 67.5549C102.326 67.5549 103.506 66.3731 103.506 64.9152C103.506 63.4574 102.326 62.2756 100.869 62.2756C99.4126 62.2756 98.2319 63.4574 98.2319 64.9152C98.2319 66.3731 99.4126 67.5549 100.869 67.5549Z" fill="#5375E2"/>
<path opacity="0.2" d="M78.2735 100.502C78.0474 102.3 78.0926 104.551 79.6979 105.391C78.3516 104.687 83.8705 96.7083 83.0873 95.0788C81.4122 91.6018 78.479 98.8315 78.2735 100.502Z" fill="white"/>
<path opacity="0.3" d="M98.7375 21.755C101.091 21.755 102.998 19.8455 102.998 17.49C102.998 15.1345 101.091 13.225 98.7375 13.225C96.3842 13.225 94.4766 15.1345 94.4766 17.49C94.4766 19.8455 96.3842 21.755 98.7375 21.755Z" fill="#5375E2"/>
<path opacity="0.3" d="M111.52 13.3484C113.27 13.3484 114.688 11.929 114.688 10.178C114.688 8.42697 113.27 7.00751 111.52 7.00751C109.771 7.00751 108.353 8.42697 108.353 10.178C108.353 11.929 109.771 13.3484 111.52 13.3484Z" fill="#5375E2"/>
<path opacity="0.3" d="M102.39 3.29596C103.299 3.29596 104.036 2.55814 104.036 1.64798C104.036 0.737826 103.299 0 102.39 0C101.481 0 100.744 0.737826 100.744 1.64798C100.744 2.55814 101.481 3.29596 102.39 3.29596Z" fill="#5375E2"/>
<path opacity="0.9" d="M58.3355 54.1468H23.9006V64.37H29.1482V144.127C29.1274 145.714 29.4217 147.289 30.0141 148.762C30.6064 150.234 31.4849 151.573 32.5987 152.703C33.7124 153.832 35.0392 154.729 36.5021 155.341C37.9649 155.954 39.5346 156.269 41.1201 156.269C42.7057 156.269 44.2754 155.954 45.7382 155.341C47.201 154.729 48.5278 153.832 49.6416 152.703C50.7554 151.573 51.6339 150.234 52.2262 148.762C52.8186 147.289 53.1129 145.714 53.0921 144.127V64.37H58.3355V54.1468Z" fill="#96B7FE"/>
<path d="M37.1255 82.4402C37.1255 82.4402 45.6474 79.3932 48.0194 81.5596C48.0194 81.5596 44.5683 86.6373 41.3905 86.4336C38.2128 86.2299 37.1255 82.4402 37.1255 82.4402Z" fill="#5375E2"/>
<path opacity="0.1" d="M37.1255 82.4402C37.1255 82.4402 45.6474 79.3932 48.0194 81.5596C48.0194 81.5596 44.5683 86.6373 41.3905 86.4336C38.2128 86.2299 37.1255 82.4402 37.1255 82.4402Z" fill="black"/>
<path d="M48.0151 81.5679V139.455C48.0151 140.415 47.8262 141.366 47.4591 142.253C47.092 143.14 46.5539 143.946 45.8755 144.625C45.1972 145.304 44.3919 145.843 43.5056 146.21C42.6193 146.578 41.6694 146.767 40.7101 146.767C38.7727 146.767 36.9146 145.997 35.5446 144.625C34.1747 143.254 33.405 141.394 33.405 139.455V81.5679C33.405 81.5679 36.9219 80.6194 40.2353 82.6521C43.5487 84.6848 48.0151 81.5679 48.0151 81.5679Z" fill="#5375E2"/>
<path opacity="0.1" d="M53.0879 64.3062H29.144V64.7774H53.0879V64.3062Z" fill="black"/>
<path opacity="0.1" d="M40.7101 143.247C39.7506 143.247 38.8005 143.058 37.9141 142.69C37.0277 142.322 36.2223 141.784 35.5439 141.104C34.8655 140.425 34.3275 139.619 33.9605 138.731C33.5935 137.844 33.4048 136.893 33.405 135.933V139.589C33.405 141.528 34.1747 143.388 35.5446 144.759C36.9146 146.13 38.7727 146.901 40.7101 146.901C42.6475 146.901 44.5056 146.13 45.8755 144.759C47.2455 143.388 48.0151 141.528 48.0151 139.589V135.933C48.0154 136.893 47.8267 137.844 47.4597 138.731C47.0927 139.619 46.5546 140.425 45.8763 141.104C45.1979 141.784 44.3925 142.322 43.5061 142.69C42.6197 143.058 41.6696 143.247 40.7101 143.247Z" fill="black"/>
<path opacity="0.3" d="M40.7123 75.8832C41.5341 75.8832 42.2004 75.2163 42.2004 74.3937C42.2004 73.571 41.5341 72.9041 40.7123 72.9041C39.8904 72.9041 39.2241 73.571 39.2241 74.3937C39.2241 75.2163 39.8904 75.8832 40.7123 75.8832Z" fill="#5375E2"/>
<path opacity="0.3" d="M45.5816 70.0608C46.1049 70.0608 46.5292 69.6362 46.5292 69.1123C46.5292 68.5885 46.1049 68.1639 45.5816 68.1639C45.0583 68.1639 44.634 68.5885 44.634 69.1123C44.634 69.6362 45.0583 70.0608 45.5816 70.0608Z" fill="#5375E2"/>
<path opacity="0.3" d="M38.9529 68.1659C39.4763 68.1659 39.9005 67.7413 39.9005 67.2174C39.9005 66.6936 39.4763 66.269 38.9529 66.269C38.4296 66.269 38.0054 66.6936 38.0054 67.2174C38.0054 67.7413 38.4296 68.1659 38.9529 68.1659Z" fill="#5375E2"/>
<path opacity="0.2" d="M30.9981 93.3938C30.772 95.192 30.8172 97.4428 32.4225 98.2822C31.0742 97.5786 36.5951 89.602 35.812 87.9705C34.1327 84.4976 31.2036 91.7252 30.9981 93.3938Z" fill="white"/>
<path opacity="0.3" d="M43.7996 47.7503C45.7964 47.7503 47.4151 46.13 47.4151 44.1313C47.4151 42.1326 45.7964 40.5123 43.7996 40.5123C41.8028 40.5123 40.1841 42.1326 40.1841 44.1313C40.1841 46.13 41.8028 47.7503 43.7996 47.7503Z" fill="#5375E2"/>
<path opacity="0.3" d="M32.9529 40.6173C34.4378 40.6173 35.6415 39.4124 35.6415 37.9262C35.6415 36.44 34.4378 35.2351 32.9529 35.2351C31.4681 35.2351 30.2644 36.44 30.2644 37.9262C30.2644 39.4124 31.4681 40.6173 32.9529 40.6173Z" fill="#5375E2"/>
<path opacity="0.3" d="M40.6999 32.0873C41.4719 32.0873 42.0977 31.4609 42.0977 30.6882C42.0977 29.9156 41.4719 29.2892 40.6999 29.2892C39.928 29.2892 39.3022 29.9156 39.3022 30.6882C39.3022 31.4609 39.928 32.0873 40.6999 32.0873Z" fill="#5375E2"/>
<path d="M184.139 92.8548C184.139 92.8548 180.984 77.1485 182.191 75.194C182.191 75.194 182.234 73.3773 182.162 71.0627C182.162 70.9743 182.162 70.8858 182.162 70.7953C182.373 70.9396 182.594 71.0688 182.824 71.1821C183.936 71.7561 185.214 71.9214 186.435 71.6491L185.475 70.5834C185.247 70.3282 185.007 70.0546 184.957 69.7172C184.944 69.3926 185.015 69.0702 185.163 68.7811C186.069 66.4871 186.125 63.6005 184.369 61.8497C182.894 60.3766 182.532 58.4755 180.937 57.132C179.765 56.1465 179.122 54.7023 178.513 53.3094C178 52.1284 177.486 50.9393 177.188 49.6884C176.957 48.7111 176.867 47.7009 176.55 46.7463C176.234 45.7916 175.646 44.8637 174.723 44.4379C174.381 44.3182 174.049 44.1709 173.73 43.9976C173.336 43.7322 173.099 43.3001 172.816 42.9236C171.377 41.0082 166.526 42.1356 164.232 42.9133C163.609 43.1089 163.032 43.4287 162.536 43.8536L162.557 43.8186L162.615 43.7342C162.364 43.9373 162.148 44.179 161.973 44.4502C161.638 44.981 161.498 45.6044 161.221 46.164C160.884 46.843 159.013 48.7378 159.817 49.5011C159.872 49.5522 159.935 49.5939 160.004 49.6246C160.304 49.7472 160.633 49.7801 160.952 49.7192C160.939 49.746 160.927 49.7727 160.917 49.7995C160.644 50.4732 160.504 51.1936 160.506 51.9206C160.519 53.4427 161.136 54.897 162.221 55.9638C163.305 57.0306 164.769 57.6225 166.29 57.6094C166.891 57.6103 167.488 57.5187 168.061 57.3378C168.076 57.4098 168.088 57.4818 168.101 57.5538C168.101 57.5847 168.101 57.6135 168.115 57.6423L168.014 57.7842L167.998 57.7575L164.999 61.9546C164.54 62.2756 161.899 64.1889 161.757 65.623C161.601 67.1928 161.445 69.0321 161.445 69.0321L161.424 69.425C161.293 69.5345 161.14 69.6143 160.976 69.659C160.811 69.7038 160.639 69.7124 160.471 69.6843C159.535 69.53 159.535 73.1325 159.535 73.1325C159.535 73.1325 158.919 73.7065 158.485 73.2086C158.051 72.7107 156.927 74.3957 156.927 74.3957L149.838 74.7023H149.675L149.293 73.5172C149.251 73.3948 149.164 73.2934 149.049 73.2343C148.934 73.1752 148.8 73.1631 148.677 73.2004C148.646 73.2086 148.618 73.2204 148.59 73.2353L148.566 73.2518C148.548 73.2618 148.531 73.2735 148.516 73.2868C148.506 73.2932 148.497 73.3008 148.489 73.3094C148.475 73.3214 148.462 73.3345 148.45 73.3485C148.443 73.357 148.436 73.366 148.43 73.3752L148.418 73.3876C148.373 73.4486 148.344 73.519 148.332 73.5933C148.32 73.6676 148.325 73.7437 148.348 73.8155L148.677 74.8319C147.31 75.1076 145.91 75.8832 147.051 78.0229L141.271 76.9551L143.141 78.5249L152.802 80.5206C152.674 80.751 152.759 81.0823 153.157 81.5493C154.874 83.5697 158.01 84.117 159.27 84.261C159.601 85.004 160.015 85.7073 160.504 86.3575L160.393 88.3696C160.393 88.3696 157.203 103.716 156.617 104.496C156.906 104.159 157.171 103.801 157.408 103.426C156.481 106.58 155.186 110.896 154.847 111.542C154.3 112.571 153.795 116.752 154.417 117.021C154.613 117.103 155.153 117.064 155.932 117.005V117.35L155.897 130.466C155.897 130.466 156.054 138.513 155.624 139.278C155.194 140.043 155.079 141.652 155.079 141.652C155.079 141.652 153.357 144.827 151.996 146.102L151.965 146.129L151.922 145.829C151.922 145.829 150.278 147.899 146.664 147.783C146.664 147.783 144.483 149.201 147.717 149.277C150.95 149.353 155.077 149.162 155.077 149.162C155.077 149.162 157.955 144.757 160.374 145.331V148.664H161.114V145.302C161.457 145.076 161.75 144.782 161.977 144.438C162.203 144.095 162.357 143.709 162.43 143.304C162.493 142.888 162.447 142.463 162.296 142.07C162.145 141.677 161.894 141.33 161.568 141.064C161.422 140.931 161.304 140.769 161.223 140.589C161.141 140.408 161.098 140.213 161.096 140.015L161.069 140.037C161.069 139.971 161.052 139.903 161.042 139.831C160.837 138.107 160.567 134.56 161.505 131.931C162.789 128.329 163.18 123.313 162.245 120.323C161.943 119.369 161.696 118.398 161.505 117.416C161.482 117.291 161.459 117.173 161.441 117.062C162.081 117.15 162.715 117.279 163.338 117.451C165.509 118.048 170.25 118.159 174.3 118.128C174.31 118.239 174.322 118.354 174.335 118.471C174.409 119.28 174.562 120.079 174.791 120.858C175.297 122.393 175.531 129.133 175.531 129.133C175.531 129.133 176.187 134.678 175.829 136.937C175.623 138.192 175.451 139.451 175.338 140.716V140.741C175.338 140.741 174.265 143.804 173.488 145.473C173.467 145.516 173.449 145.557 173.428 145.598C173.218 145.618 173.011 145.663 172.812 145.732C172.812 145.732 171.761 147.839 170.709 148.185C169.656 148.53 170.008 149.678 172.384 149.256C174.76 148.835 178.345 148.491 178.345 148.491L178.501 146.345L179.231 145.432L179.046 147.571L179.825 147.419L179.722 144.814L180.916 143.319C180.916 143.319 182.355 142.035 180.215 139.508V139.562C180.193 139.525 180.17 139.488 180.145 139.453V139.441C179.792 138.889 179.508 137.863 180.026 136.04C180.961 132.748 181.506 129.758 181.506 129.758C181.506 129.758 183.597 121.753 181.083 117.963H181.196C180.938 117.43 180.755 116.864 180.653 116.28C180.641 116.21 180.63 116.138 180.618 116.075C182.468 115.968 184.304 115.63 185.79 114.906C185.773 114.883 184.879 95.8812 184.139 92.8548ZM160.536 79.6051V79.6421L160.152 79.6606L160.536 79.6051ZM159.227 79.7861C159.164 79.7996 159.105 79.8278 159.054 79.8684C158.891 80.1013 158.787 80.3714 158.754 80.6543L158.158 80.5186C158.158 80.5186 157.747 80.4301 157.131 80.3313L156.845 80.0453C157.638 79.9713 158.452 79.8828 159.227 79.7861Z" fill="url(#paint0_linear)"/>
<path d="M178.949 144.833L178.721 147.545L179.484 147.39L179.369 144.452L178.949 144.833Z" fill="#1D2366"/>
<path d="M161.558 131.968C160.639 134.587 160.903 138.124 161.108 139.842C161.184 140.478 161.254 140.87 161.254 140.87C161.254 140.87 159.881 144.002 159.766 144.117C159.651 144.232 155.721 146.631 155.721 146.631L152.975 148.234C152.975 148.234 150.189 147.012 151.536 146.588C151.808 146.478 152.054 146.31 152.255 146.096C153.587 144.825 155.275 141.663 155.275 141.663C155.275 141.663 155.388 140.06 155.807 139.297C156.226 138.533 156.074 130.516 156.074 130.516L156.109 117.443V115.739L161.334 115.778C161.368 116.357 161.443 116.933 161.56 117.5C161.748 118.479 161.991 119.446 162.288 120.397C163.196 123.383 162.816 128.378 161.558 131.968Z" fill="#FFB0B1"/>
<path opacity="0.1" d="M161.252 140.87C161.252 140.87 159.879 144.002 159.764 144.117C159.649 144.232 155.721 146.631 155.721 146.631L152.975 148.234C152.975 148.234 150.189 147.012 151.536 146.588C151.808 146.478 152.054 146.31 152.255 146.096L152.374 146.932L153.291 146.892L161.108 139.842C161.182 140.475 161.252 140.87 161.252 140.87Z" fill="black"/>
<path d="M161.157 140.023L153.281 147.125L152.364 147.162L152.175 145.827C152.175 145.827 150.572 147.884 147.024 147.773C147.024 147.773 144.888 149.187 148.052 149.263C151.215 149.339 155.262 149.147 155.262 149.147C155.262 149.147 158.084 144.757 160.448 145.331V148.652H161.174V145.292C161.511 145.064 161.799 144.771 162.02 144.429C162.241 144.087 162.391 143.704 162.46 143.302C162.524 142.889 162.479 142.466 162.332 142.075C162.184 141.683 161.938 141.337 161.618 141.068C161.474 140.934 161.359 140.773 161.28 140.593C161.2 140.413 161.159 140.219 161.157 140.023Z" fill="#1D2366"/>
<path d="M179.675 136.052C179.167 137.869 179.445 138.891 179.79 139.441V139.453C180.239 140.133 180.551 140.894 180.709 141.693L180.742 141.866L177.157 147.096L175.212 147.859C175.212 147.859 172.084 146.792 172.655 146.485C172.799 146.409 173.023 146.014 173.272 145.456C174.039 143.81 175.091 140.753 175.091 140.753V140.726C175.2 139.465 175.377 138.21 175.572 136.959C175.922 134.711 175.28 129.184 175.28 129.184C175.28 129.184 175.052 122.467 174.555 120.938C174.331 120.161 174.182 119.365 174.109 118.56C174.006 117.599 173.983 116.815 173.983 116.815C173.983 116.815 176.039 113.951 179.819 117.044C180.119 117.292 180.384 117.581 180.606 117.902C183.214 121.605 181.116 129.795 181.116 129.795C181.116 129.795 180.589 132.77 179.675 136.052Z" fill="#FFB0B1"/>
<path opacity="0.1" d="M180.742 141.856L177.157 147.086L175.212 147.849C175.212 147.849 172.084 146.781 172.655 146.475C172.799 146.399 173.023 146.004 173.272 145.446C174.596 145.446 175.282 146.697 175.282 146.697L176.96 146.432C176.96 146.432 179.173 142.078 179.669 141.813C180.164 141.547 179.745 139.825 179.745 139.825V139.387L179.784 139.434V139.447C180.236 140.128 180.55 140.891 180.709 141.693L180.742 141.856Z" fill="black"/>
<path d="M175.401 146.818C175.401 146.818 174.448 145.063 172.618 145.712C172.618 145.712 171.591 147.812 170.563 148.156C169.535 148.499 169.876 149.643 172.207 149.224C174.538 148.804 178.043 148.46 178.043 148.46L178.195 146.323L180.559 143.306C180.559 143.306 181.971 142.027 179.872 139.508V139.947C179.872 139.947 180.283 141.665 179.796 141.932C179.309 142.2 177.089 146.551 177.089 146.551L175.401 146.818Z" fill="#1D2366"/>
<path opacity="0.1" d="M161.328 115.78C161.362 116.359 161.437 116.935 161.554 117.502C159.402 117.186 157.406 117.344 156.099 117.445V115.741L161.328 115.78Z" fill="black"/>
<path opacity="0.1" d="M180.818 118.377C180.818 118.377 177.759 118.525 174.117 118.556C174.014 117.595 173.991 116.811 173.991 116.811C173.991 116.811 176.047 113.947 179.827 117.04C180.128 117.288 180.393 117.577 180.614 117.898C180.674 118.061 180.742 118.221 180.818 118.377Z" fill="black"/>
<path d="M180.818 118.033C180.818 118.033 167.431 118.681 163.346 117.537C159.262 116.394 155.223 117.383 154.613 117.116C154.002 116.848 154.5 112.688 155.024 111.657C155.548 110.627 158.496 100.204 158.496 100.204L161.318 85.4666L164.294 84.6436L164.5 84.586L169.681 83.1458L173.482 82.0966C173.482 82.0966 181.034 111.608 180.384 113.781C180.149 114.614 180.111 115.491 180.275 116.342C180.377 116.928 180.559 117.497 180.818 118.033Z" fill="#1D2366"/>
<path d="M151.489 75.3874C151.489 75.3874 148.816 78.2513 150.839 79.854C152.862 81.4567 154.196 80.0083 154.196 80.0083L151.489 75.3874Z" fill="#C7DAF5"/>
<path opacity="0.1" d="M151.489 75.3874C151.489 75.3874 148.816 78.2513 150.839 79.854C152.862 81.4567 154.196 80.0083 154.196 80.0083L151.489 75.3874Z" fill="black"/>
<path d="M173.095 56.5293C173.095 56.5293 172.783 56.8255 172.31 57.2679C171.638 57.8954 170.643 58.815 169.759 59.5866C168.526 60.6523 167.529 61.4382 167.889 60.7654C168.249 60.0927 168.181 58.9364 168.002 57.848L167.965 57.632C167.816 56.8327 167.618 56.0433 167.373 55.2681C167.373 55.2681 169.348 52.7128 170.442 51.7046C170.853 51.3281 171.135 51.1677 171.149 51.431C171.169 51.789 171.439 52.5708 171.766 53.4185C171.778 53.4432 171.788 53.4699 171.798 53.4946C172.02 54.0645 172.269 54.6591 172.489 55.1673C172.824 55.947 173.095 56.5293 173.095 56.5293Z" fill="#FFB0B1"/>
<path opacity="0.1" d="M171.796 53.4946C171.611 54.4942 171.16 55.4255 170.492 56.1913C169.824 56.9571 168.962 57.5292 167.998 57.8481C167.847 56.9748 167.636 56.1129 167.369 55.2681C167.369 55.2681 171.087 50.4579 171.145 51.431C171.18 51.8013 171.455 52.6202 171.796 53.4946Z" fill="black"/>
<path opacity="0.1" d="M167.632 59.1339L168.113 58.457C168.113 58.457 168.432 60.4033 169.605 59.5454C170.779 58.6875 170.838 66.0056 170.838 66.0056L169.576 84.8474L160.479 84.3021L160.736 75.1981L161.764 70.6163L164.31 63.9441L165.836 61.7407L167.632 59.1339Z" fill="black"/>
<path d="M170.834 66.1209L169.696 83.1562L169.577 84.9605L164.504 84.6581L164.298 84.6457L160.473 84.4174L160.73 75.3113L161.758 70.7315L164.304 64.0593L165.836 61.8538L167.638 59.2491L168.119 58.5702C168.119 58.5702 168.438 60.5185 169.611 59.6586L169.634 59.6421C170.779 58.9055 170.834 66.1209 170.834 66.1209Z" fill="#1D2366"/>
<path d="M161.899 69.1267C161.899 69.1267 161.443 70.0813 160.526 69.9291C159.609 69.7768 159.612 73.365 159.612 73.365C159.612 73.365 158.995 73.9369 158.584 73.4411C158.173 72.9453 157.059 74.6241 157.059 74.6241L150.117 74.9306C150.117 74.9306 153.201 76.342 152.596 80.6194C152.596 80.6194 163.079 79.9692 163.428 78.9734C163.778 77.9777 161.899 69.1267 161.899 69.1267Z" fill="white"/>
<path opacity="0.03" d="M161.899 69.1267C161.899 69.1267 161.443 70.0813 160.526 69.9291C159.609 69.7768 159.612 73.365 159.612 73.365C159.612 73.365 158.995 73.9369 158.584 73.4411C158.173 72.9453 157.059 74.6241 157.059 74.6241L150.117 74.9306C150.117 74.9306 153.201 76.342 152.596 80.6194C152.596 80.6194 163.079 79.9692 163.428 78.9734C163.778 77.9777 161.899 69.1267 161.899 69.1267Z" fill="black"/>
<path d="M141.723 77.1815L143.555 78.7471L158.621 81.9156L156.751 80.0083L141.723 77.1815Z" fill="white"/>
<path d="M167.659 59.7346C167.41 60.1091 166.695 62.076 166.094 63.7857C165.597 65.2094 165.18 66.4603 165.18 66.4603C165.18 66.4603 164.208 72.7992 163.712 73.9431C163.217 75.087 163.484 79.5598 163.484 79.5598L161.634 90.5937C161.634 90.5937 160.795 96.2824 159.501 99.6791C158.23 103.014 156.791 104.584 156.752 104.631C157.326 103.856 160.452 88.5609 160.452 88.5609L161.48 69.2789C161.48 69.2789 161.632 67.4478 161.786 65.8822C161.94 64.3165 165.028 62.1788 165.028 62.1788L168.012 57.9303C168.318 58.348 168.117 59.0475 167.659 59.7346Z" fill="white"/>
<path d="M159.875 84.512C159.875 84.512 155.488 84.3227 153.353 81.7633C151.217 79.2039 158.274 80.7346 158.274 80.7346L160.103 81.1461L159.875 84.512Z" fill="#FFB0B1"/>
<path opacity="0.1" d="M180.398 113.795C180.163 114.629 180.126 115.506 180.289 116.357C175.496 116.698 170.368 115.398 170.368 115.398C169.414 116.276 166.896 117.574 166.896 117.574L165.523 100.545C164.647 98.2534 164.304 86.2279 164.304 86.2279C164.304 86.2279 164.382 85.5983 164.51 84.656C164.51 84.6334 164.51 84.6087 164.52 84.5861C164.863 81.9526 165.548 77.0087 165.873 76.34C166.331 75.4244 164.462 72.9823 164.462 72.9823L165.311 65.7238L165.414 64.8494C167.209 64.047 168.582 61.4897 168.582 61.4897L169.634 59.638C170.783 58.9014 170.838 66.1168 170.838 66.1168L169.7 83.1521L173.5 82.1028C173.5 82.1028 181.046 111.618 180.398 113.795Z" fill="black"/>
<path d="M185.319 114.978C180.094 117.574 170.596 115.169 170.596 115.169C169.642 116.048 167.124 117.346 167.124 117.346L165.751 100.317C164.875 98.0271 164.532 86.0015 164.532 86.0015C164.532 86.0015 165.638 77.0292 166.094 76.1137C166.228 75.8462 166.164 75.4491 166.006 75.0212C165.226 72.9815 164.939 70.7862 165.169 68.6144L165.535 65.4975L165.638 64.6231C167.43 63.8207 168.803 61.2613 168.803 61.2613L169.759 59.5865L171.519 56.5004L172.351 55.0397L172.491 55.1672L173.572 56.1466C173.572 56.1466 174.03 56.5251 174.717 57.1074C176.213 58.3685 178.799 60.5905 180.131 61.9484C181.305 63.1479 181.675 67.8038 181.775 71.3096C181.847 73.616 181.804 75.4244 181.804 75.4244C180.62 77.3707 183.71 93.0255 183.71 93.0255C184.441 96.0417 185.319 114.978 185.319 114.978Z" fill="white"/>
<path opacity="0.03" d="M175.291 61.2243C175.291 61.2243 171.704 68.0589 172.125 70.6533C172.547 73.2477 173.726 76.1898 173.153 76.877C172.957 77.1372 172.703 77.3484 172.412 77.494C172.12 77.6396 171.799 77.7157 171.474 77.7164C170.902 77.7555 169.375 78.8233 169.375 78.9385C169.375 79.0537 167.965 79.0537 166.703 79.5886C165.441 80.1235 163.575 80.428 163.575 80.428C163.575 80.428 159.951 80.3128 159.608 80.6564C159.264 81 158.921 83.0615 159.647 84.7033C160.372 86.3451 161.172 87.5672 161.782 87.7894C162.393 88.0116 166.245 86.7216 169.371 86.4151C172.497 86.1085 175.907 83.6355 175.907 83.6355C175.907 83.6355 179.644 82.2982 180.294 80.0454C180.943 77.7925 179.492 65.4234 179.492 65.4234C179.492 65.4234 178.374 59.6586 175.291 61.2243Z" fill="black"/>
<path opacity="0.03" d="M174.83 60.6523C174.83 60.6523 171.245 67.4849 171.665 70.0814C172.084 72.6778 173.266 75.6178 172.692 76.305C172.496 76.5652 172.243 76.7764 171.951 76.922C171.66 77.0677 171.339 77.1438 171.013 77.1444C170.442 77.1835 168.917 78.2513 168.917 78.3665C168.917 78.4817 167.504 78.4797 166.244 79.0146C164.984 79.5495 163.116 79.854 163.116 79.854C163.116 79.854 159.492 79.7409 159.149 80.0844C158.806 80.428 158.463 82.4896 159.188 84.1314C159.914 85.7732 160.713 86.9953 161.324 87.2175C161.934 87.4397 165.786 86.1476 168.914 85.8431C172.043 85.5386 175.441 83.0574 175.441 83.0574C175.441 83.0574 179.177 81.7221 179.827 79.4693C180.476 77.2164 179.025 64.8473 179.025 64.8473C179.025 64.8473 177.919 59.0866 174.83 60.6523Z" fill="black"/>
<path d="M175.173 60.8806C175.173 60.8806 171.591 67.7153 172.002 70.3015C172.413 72.8876 173.603 75.838 173.03 76.5251C172.834 76.7857 172.58 76.9971 172.289 77.1428C171.997 77.2885 171.676 77.3644 171.35 77.3646C170.779 77.4036 169.254 78.4714 169.254 78.5867C169.254 78.7019 167.842 78.7019 166.582 79.2368C165.322 79.7717 163.453 80.0762 163.453 80.0762C163.453 80.0762 159.829 79.961 159.486 80.3046C159.143 80.6482 158.8 82.7097 159.525 84.3515C160.251 85.9933 161.05 87.2154 161.661 87.4376C162.271 87.6598 166.123 86.3698 169.252 86.0633C172.38 85.7567 175.774 83.2775 175.774 83.2775C175.774 83.2775 179.51 81.9402 180.16 79.6874C180.809 77.4345 179.358 65.0654 179.358 65.0654C179.358 65.0654 178.263 59.315 175.173 60.8806Z" fill="white"/>
<path opacity="0.1" d="M175.097 79.206C175.097 79.206 172.236 78.634 173.229 79.5886C174.222 80.5433 174.22 81.3827 175.44 81.3436C176.661 81.3045 175.097 79.206 175.097 79.206Z" fill="black"/>
<path opacity="0.1" d="M179.942 99.7841C179.942 99.7841 178.645 100.663 181.124 102.685C183.603 104.707 179.942 99.7841 179.942 99.7841Z" fill="black"/>
<path opacity="0.1" d="M177.461 106.999C177.461 107.115 177.005 111.199 178.721 112.229C180.437 113.26 177.461 106.999 177.461 106.999Z" fill="black"/>
<path d="M150.228 74.9265C148.847 74.9738 145.856 75.3977 147.406 78.2904C148.777 80.8498 151.079 79.1401 152.368 77.8398C152.054 76.6304 151.288 75.5877 150.228 74.9265Z" fill="#FFB0B1"/>
<path d="M152.391 77.8172C152.412 77.7987 152.43 77.7781 152.449 77.7596C152.43 77.7781 152.412 77.7987 152.391 77.8172Z" fill="#FFB0B1"/>
<path opacity="0.1" d="M174.717 57.2205C173.25 58.2245 172.018 59.0722 171.78 59.2491C171.12 59.7347 169.862 62.5986 169.061 64.0593C168.415 65.2362 166.325 65.5386 165.535 65.6127L165.63 64.7465C167.422 63.9462 168.795 61.3868 168.795 61.3868L172.343 55.1652L173.564 56.272C173.564 56.272 174.031 56.6403 174.717 57.2205Z" fill="black"/>
<path d="M174.717 57.1074C173.25 58.1093 172.018 58.959 171.78 59.1339C171.12 59.6215 169.862 62.4834 169.061 63.9441C168.415 65.1209 166.325 65.4234 165.535 65.4975L165.638 64.6231C167.431 63.8207 168.804 61.2613 168.804 61.2613L172.351 55.0397L173.572 56.1466C173.572 56.1466 174.031 56.5169 174.717 57.1074Z" fill="#DCE7FF"/>
<path d="M171.893 52.2334C171.894 52.6318 171.852 53.0292 171.767 53.4185C171.615 54.1459 171.318 54.8356 170.896 55.447C170.128 56.5647 168.986 57.3699 167.676 57.7165C166.365 58.0631 164.975 57.9281 163.755 57.3361C162.536 56.744 161.569 55.7341 161.031 54.4896C160.492 53.2452 160.416 51.8485 160.818 50.5531C161.22 49.2578 162.072 48.1495 163.221 47.4294C164.369 46.7093 165.737 46.4251 167.077 46.6284C168.417 46.8316 169.639 47.5089 170.523 48.5373C171.407 49.5657 171.893 50.877 171.893 52.2334Z" fill="#FFB0B1"/>
<path opacity="0.1" d="M181.782 71.3096C181.006 70.8316 180.374 70.1518 179.954 69.3427C179.636 68.7111 179.424 67.9848 178.877 67.5342C178.388 67.1351 177.726 67.0364 177.12 66.8574C175.112 66.2628 173.42 64.4255 173.362 62.3311C173.334 61.3456 173.64 60.3601 173.5 59.3849C173.421 58.8315 173.201 58.3078 172.861 57.8645C172.695 57.6508 172.51 57.4518 172.31 57.2699C172.043 57.0168 171.761 56.772 171.519 56.5025C171.361 56.337 171.223 56.1541 171.108 55.9572C171.017 55.7959 170.943 55.6256 170.888 55.4491C170.514 54.2805 170.853 52.8897 170.433 51.7066C170.433 51.6861 170.419 51.6634 170.411 51.6429C170.251 51.2211 169.928 50.8014 169.482 50.7685C169.036 50.7356 168.647 51.1079 168.22 51.2766C167.324 51.6244 166.355 51.0318 165.609 50.4269C164.863 49.8221 164.02 49.1308 163.069 49.2666C162.442 49.355 161.944 49.785 161.367 50.0072C161.233 50.0562 161.096 50.0947 160.956 50.1224C161.447 48.9009 162.347 47.8883 163.502 47.2585C164.657 46.6287 165.995 46.4209 167.287 46.6708C168.578 46.9207 169.743 47.6127 170.58 48.628C171.417 49.6433 171.876 50.9187 171.876 52.2354C171.878 52.6338 171.836 53.0312 171.751 53.4205C171.763 53.4452 171.774 53.4719 171.784 53.4966C172.006 54.0665 172.255 54.6611 172.475 55.1693L173.556 56.1486C173.556 56.1486 174.014 56.5271 174.701 57.1094C176.197 58.3706 178.783 60.5926 180.115 61.9505C181.305 63.1479 181.675 67.8038 181.782 71.3096Z" fill="black"/>
<path d="M161.313 46.5159C161.587 45.9583 161.724 45.3349 162.049 44.8082C162.528 44.0367 163.367 43.5532 164.224 43.257C166.468 42.4834 171.212 41.358 172.629 43.257C172.908 43.6335 173.138 44.0655 173.525 44.3309C173.837 44.5012 174.162 44.647 174.497 44.7671C175.401 45.193 175.979 46.1167 176.287 47.0673C176.596 48.0178 176.686 49.0259 176.904 50.0011C177.192 51.2479 177.699 52.4309 178.203 53.6078C178.797 54.9965 179.436 56.4346 180.575 57.4181C182.139 58.7574 182.491 60.6523 183.936 62.1192C185.656 63.8639 185.6 66.7422 184.715 69.0259C184.568 69.3147 184.497 69.6362 184.509 69.96C184.592 70.2906 184.769 70.5905 185.017 70.8241L185.956 71.8857C184.834 72.128 183.664 71.9981 182.622 71.5156C181.58 71.033 180.724 70.2241 180.182 69.2111C179.862 68.5795 179.65 67.8532 179.103 67.4047C178.614 67.0035 177.954 66.9068 177.346 66.7258C175.338 66.1312 173.646 64.2939 173.588 62.1995C173.56 61.216 173.866 60.2285 173.728 59.2533C173.646 58.7069 173.427 58.1902 173.091 57.7514C172.563 57.0642 171.771 56.5972 171.344 55.8442C170.62 54.5665 171.169 52.9041 170.647 51.5236C170.487 51.1121 170.166 50.6821 169.718 50.6492C169.27 50.6163 168.884 50.9907 168.456 51.1574C167.56 51.5051 166.594 50.9126 165.848 50.3077C165.102 49.7028 164.257 49.0136 163.307 49.1494C162.678 49.2378 162.183 49.6658 161.603 49.888C161.176 50.0526 160.308 50.2007 159.932 49.8386C159.145 49.0815 160.976 47.1928 161.313 46.5159Z" fill="#591D4B"/>
<path opacity="0.1" d="M180.717 68.5794C180.398 67.9478 180.187 67.2215 179.64 66.771C179.151 66.3698 178.489 66.2731 177.882 66.0941C175.874 65.4995 174.183 63.6622 174.125 61.5678C174.094 60.5823 174.403 59.5968 174.263 58.6216C174.184 58.0682 173.964 57.5445 173.624 57.1012C173.097 56.414 172.304 55.9449 171.878 55.1919C171.153 53.9142 171.704 52.2519 171.182 50.8713C171.021 50.4599 170.701 50.0299 170.253 49.9969C169.805 49.964 169.418 50.3364 168.991 50.5031C168.094 50.8528 167.126 50.2603 166.382 49.6554C165.638 49.0505 164.791 48.3613 163.84 48.495C163.223 48.5835 162.717 49.0114 162.138 49.2357C161.71 49.4003 160.843 49.5484 160.467 49.1863C159.679 48.4251 161.511 46.5364 161.842 45.8616C162.115 45.304 162.253 44.6806 162.578 44.1539L162.633 44.0675C162.391 44.2724 162.183 44.514 162.016 44.7835C161.688 45.3102 161.552 45.9336 161.281 46.4911C160.95 47.168 159.118 49.0567 159.905 49.8159C160.28 50.178 161.139 50.0216 161.577 49.8653C162.154 49.6431 162.649 49.2151 163.278 49.1246C164.228 48.9909 165.073 49.6801 165.819 50.285C166.565 50.8899 167.533 51.4824 168.427 51.1347C168.857 50.968 169.231 50.5915 169.689 50.6265C170.148 50.6615 170.46 51.0791 170.621 51.5009C171.143 52.8732 170.592 54.5356 171.315 55.8215C171.743 56.5724 172.536 57.0415 173.062 57.7287C173.403 58.172 173.623 58.6957 173.702 59.2491C173.841 60.2243 173.533 61.2098 173.564 62.1953C173.628 64.2918 175.313 66.1291 177.321 66.7216C177.928 66.9006 178.589 66.9973 179.079 67.4005C179.625 67.849 179.835 68.5753 180.156 69.2069C180.697 70.2199 181.554 71.0288 182.595 71.5114C183.637 71.9939 184.807 72.1239 185.929 71.8816L185.488 71.3795C183.547 71.4125 181.597 70.3138 180.717 68.5794Z" fill="black"/>
<path opacity="0.1" d="M167.546 59.8499C167.295 60.2244 166.58 62.1912 165.981 63.8989C165.422 63.6829 164.913 62.2921 164.913 62.2921L167.891 58.0435C168.203 58.4632 168.002 59.1627 167.546 59.8499Z" fill="black"/>
<path d="M167.659 59.7346C167.41 60.1091 166.695 62.076 166.095 63.7857C165.536 63.5696 165.028 62.1788 165.028 62.1788L168.012 57.9303C168.319 58.348 168.117 59.0475 167.659 59.7346Z" fill="#DCE7FF"/>
<path d="M150.309 79.2718L148.654 74.0563C148.634 73.995 148.627 73.9303 148.632 73.8661C148.637 73.8018 148.655 73.7392 148.684 73.6819C148.714 73.6245 148.754 73.5736 148.803 73.5319C148.852 73.4902 148.909 73.4587 148.971 73.4391C149.032 73.4187 149.097 73.4107 149.161 73.4156C149.225 73.4205 149.288 73.4383 149.346 73.4678C149.403 73.4973 149.454 73.538 149.495 73.5874C149.537 73.6369 149.568 73.6942 149.587 73.7559L151.242 78.9756L151.078 80.068L150.309 79.2718Z" fill="#BE8B87"/>
<path opacity="0.1" d="M148.81 73.5934C148.872 73.5736 148.936 73.5661 149.001 73.5714C149.065 73.5768 149.128 73.5948 149.185 73.6244C149.242 73.654 149.293 73.6947 149.335 73.7441C149.376 73.7935 149.408 73.8507 149.427 73.9123L151.082 79.1278L150.956 79.9508L151.077 80.0763L151.242 78.9838L149.587 73.7682C149.568 73.7065 149.537 73.6493 149.495 73.5998C149.454 73.5503 149.403 73.5096 149.345 73.4801C149.288 73.4506 149.225 73.4329 149.161 73.4279C149.097 73.423 149.032 73.431 148.971 73.4514C148.868 73.4834 148.778 73.5494 148.718 73.6386C148.747 73.6202 148.778 73.605 148.81 73.5934Z" fill="white"/>
<path d="M150.309 79.2718L151.238 78.9755L151.102 79.8726L151.073 80.068L150.802 79.7841L150.309 79.2718Z" fill="#EFC8C4"/>
<path d="M150.802 79.7841C150.819 79.7644 150.839 79.7477 150.862 79.7347C150.875 79.7265 150.89 79.7222 150.906 79.7222C150.921 79.7222 150.937 79.7265 150.95 79.7347C150.963 79.7501 150.975 79.7674 150.983 79.7861C150.995 79.8078 151.012 79.8263 151.033 79.8402C151.054 79.8541 151.077 79.863 151.102 79.8664L151.073 80.0721L150.802 79.7841Z" fill="#727A9C"/>
<path d="M148.646 75.9038C148.646 75.9038 151.965 75.8853 151.182 77.2967C150.399 78.7081 149.18 78.8809 149.18 78.8809L148.646 75.9038Z" fill="#FFB0B1"/>
</g>
<defs>
<linearGradient id="paint0_linear" x1="163.842" y1="149.339" x2="163.842" y2="41.8682" gradientUnits="userSpaceOnUse">
<stop stop-color="#808080" stop-opacity="0.25"/>
<stop offset="0.54" stop-color="#808080" stop-opacity="0.12"/>
<stop offset="1" stop-color="#808080" stop-opacity="0.1"/>
</linearGradient>
<clipPath id="clip0">
<rect width="203" height="162" fill="white"/>
</clipPath>
</defs>
</svg>
