<svg width="214" height="179" viewBox="0 0 214 179" fill="none" xmlns="http://www.w3.org/2000/svg">
<g clip-path="url(#clip0)">
<path opacity="0.1" d="M69.3726 6.36596C75.6301 0.785561 85.4523 -0.358421 94.3941 0.0858648C122.477 1.48526 147.826 15.0671 169.754 30.4325C177.693 35.9936 185.508 41.9883 190.66 49.6484C201.157 65.2414 198.038 86.8418 183.454 99.6875C178.49 104.057 172.475 107.414 166.299 110.378C155.317 115.658 143.469 119.897 131.005 121.11C122.119 121.968 113.122 121.271 104.285 120.071C79.5997 116.71 55.373 109.292 35.058 96.6032C26.1506 91.0378 17.7551 84.1181 14.0833 75.1187C10.4114 66.1192 12.7615 54.7008 21.8575 49.363C25.6193 47.1587 30.118 46.1628 34.5203 45.227C41.0028 43.8512 47.588 42.4948 53.4364 39.6981C59.4797 36.8092 66.6326 31.2224 65.433 24.8264C64.1562 17.9732 63.1236 11.9464 69.3726 6.36596Z" fill="#5375E2"/>
<path d="M146.733 143.564C146.733 143.564 152.102 134.037 160.185 131.292C163.583 130.162 166.523 127.958 168.565 125.012C169.524 123.606 170.351 122.114 171.037 120.556" stroke="#535461" stroke-width="2" stroke-miterlimit="10"/>
<path d="M176.123 118.794C175.202 119.691 170.911 120.616 170.911 120.616C170.911 120.616 171.963 116.347 172.884 115.452C173.326 115.022 173.921 114.785 174.537 114.794C175.154 114.803 175.742 115.057 176.171 115.5C176.601 115.944 176.837 116.539 176.828 117.157C176.819 117.775 176.565 118.364 176.123 118.794Z" fill="#5375E2"/>
<path d="M173.696 126.518C172.436 126.77 168.34 125.211 168.34 125.211C168.34 125.211 171.541 122.207 172.798 121.949C173.403 121.829 174.031 121.954 174.543 122.297C175.056 122.641 175.411 123.174 175.532 123.78C175.652 124.386 175.527 125.015 175.184 125.528C174.841 126.042 174.309 126.398 173.704 126.518H173.696Z" fill="#5375E2"/>
<path d="M164.859 134.876C163.644 134.447 160.887 131.034 160.887 131.034C160.887 131.034 165.172 130.056 166.38 130.476C166.674 130.571 166.947 130.724 167.182 130.926C167.417 131.128 167.609 131.375 167.747 131.653C167.886 131.93 167.967 132.233 167.987 132.542C168.007 132.852 167.965 133.162 167.864 133.455C167.763 133.748 167.604 134.018 167.397 134.249C167.191 134.48 166.94 134.667 166.66 134.799C166.38 134.931 166.076 135.006 165.767 135.02C165.458 135.033 165.149 134.984 164.859 134.876Z" fill="#5375E2"/>
<path d="M156.751 139.692C155.484 139.478 152.19 136.578 152.19 136.578C152.19 136.578 156.241 134.887 157.507 135.097C157.81 135.144 158.101 135.251 158.363 135.412C158.625 135.573 158.853 135.784 159.033 136.033C159.213 136.282 159.342 136.564 159.412 136.864C159.483 137.163 159.493 137.474 159.443 137.777C159.393 138.081 159.284 138.371 159.121 138.632C158.959 138.893 158.746 139.119 158.496 139.297C158.245 139.475 157.962 139.602 157.662 139.67C157.363 139.738 157.053 139.745 156.751 139.692Z" fill="#5375E2"/>
<path d="M164.754 121.876C164.754 123.164 167.076 126.892 167.076 126.892C167.076 126.892 169.403 123.164 169.403 121.878C169.403 121.26 169.158 120.668 168.722 120.231C168.286 119.795 167.695 119.549 167.078 119.549C166.462 119.549 165.871 119.795 165.435 120.231C164.999 120.668 164.754 121.26 164.754 121.878V121.876Z" fill="#5375E2"/>
<path d="M155.343 127.628C155.729 128.856 159.058 131.719 159.058 131.719C159.058 131.719 160.163 127.463 159.78 126.235C159.595 125.646 159.185 125.154 158.638 124.868C158.092 124.581 157.455 124.524 156.866 124.709C156.278 124.894 155.787 125.305 155.501 125.853C155.216 126.4 155.159 127.039 155.343 127.628Z" fill="#5375E2"/>
<path d="M146.962 134.475C147.134 135.75 149.934 139.137 149.934 139.137C149.934 139.137 151.742 135.129 151.57 133.855C151.488 133.242 151.167 132.688 150.677 132.313C150.187 131.938 149.568 131.774 148.957 131.856C148.346 131.939 147.792 132.261 147.418 132.752C147.044 133.243 146.88 133.863 146.962 134.475Z" fill="#5375E2"/>
<path opacity="0.25" d="M176.123 118.794C175.202 119.691 170.911 120.616 170.911 120.616C170.911 120.616 171.963 116.347 172.884 115.452C173.326 115.022 173.921 114.785 174.537 114.794C175.154 114.803 175.742 115.057 176.171 115.5C176.601 115.944 176.837 116.539 176.828 117.157C176.819 117.775 176.565 118.364 176.123 118.794Z" fill="black"/>
<path opacity="0.25" d="M173.696 126.518C172.436 126.77 168.34 125.211 168.34 125.211C168.34 125.211 171.541 122.207 172.798 121.949C173.403 121.829 174.031 121.954 174.543 122.297C175.056 122.641 175.411 123.174 175.532 123.78C175.652 124.386 175.527 125.015 175.184 125.528C174.841 126.042 174.309 126.398 173.704 126.518H173.696Z" fill="black"/>
<path opacity="0.25" d="M164.859 134.876C163.644 134.447 160.887 131.034 160.887 131.034C160.887 131.034 165.172 130.056 166.38 130.476C166.674 130.571 166.947 130.724 167.182 130.926C167.417 131.128 167.609 131.375 167.747 131.653C167.886 131.93 167.967 132.233 167.987 132.542C168.007 132.852 167.965 133.162 167.864 133.455C167.763 133.748 167.604 134.018 167.397 134.249C167.191 134.48 166.94 134.667 166.66 134.799C166.38 134.931 166.076 135.006 165.767 135.02C165.458 135.033 165.149 134.984 164.859 134.876Z" fill="black"/>
<path opacity="0.25" d="M156.751 139.692C155.484 139.478 152.19 136.578 152.19 136.578C152.19 136.578 156.241 134.887 157.507 135.097C157.81 135.144 158.101 135.251 158.363 135.412C158.625 135.573 158.853 135.784 159.033 136.033C159.213 136.282 159.342 136.564 159.412 136.864C159.483 137.163 159.493 137.474 159.443 137.777C159.393 138.081 159.284 138.371 159.121 138.632C158.959 138.893 158.746 139.119 158.496 139.297C158.245 139.475 157.962 139.602 157.662 139.67C157.363 139.738 157.053 139.745 156.751 139.692Z" fill="black"/>
<path opacity="0.25" d="M164.754 121.876C164.754 123.164 167.076 126.892 167.076 126.892C167.076 126.892 169.403 123.164 169.403 121.878C169.403 121.26 169.158 120.668 168.722 120.231C168.286 119.795 167.695 119.549 167.078 119.549C166.462 119.549 165.871 119.795 165.435 120.231C164.999 120.668 164.754 121.26 164.754 121.878V121.876Z" fill="black"/>
<path opacity="0.25" d="M155.343 127.628C155.729 128.856 159.058 131.719 159.058 131.719C159.058 131.719 160.163 127.463 159.78 126.235C159.595 125.646 159.185 125.154 158.638 124.868C158.092 124.581 157.455 124.524 156.866 124.709C156.278 124.894 155.787 125.305 155.501 125.853C155.216 126.4 155.159 127.039 155.343 127.628Z" fill="black"/>
<path opacity="0.25" d="M146.962 134.475C147.134 135.75 149.934 139.137 149.934 139.137C149.934 139.137 151.742 135.129 151.57 133.855C151.488 133.242 151.167 132.688 150.677 132.313C150.187 131.938 149.568 131.774 148.957 131.856C148.346 131.939 147.792 132.261 147.418 132.752C147.044 133.243 146.88 133.863 146.962 134.475Z" fill="black"/>
<path d="M147.042 143.371C147.042 143.371 148.096 132.481 154.377 126.69C157.026 124.277 158.823 121.068 159.497 117.545C159.805 115.869 159.959 114.168 159.955 112.464" stroke="#535461" stroke-width="2" stroke-miterlimit="10"/>
<path d="M163.891 108.799C163.411 109.992 159.863 112.58 159.863 112.58C159.863 112.58 159.101 108.249 159.58 107.058C159.689 106.767 159.855 106.5 160.068 106.274C160.281 106.048 160.537 105.868 160.821 105.742C161.104 105.617 161.41 105.55 161.721 105.545C162.031 105.54 162.339 105.597 162.627 105.713C162.914 105.83 163.176 106.002 163.396 106.221C163.616 106.441 163.79 106.701 163.908 106.989C164.026 107.276 164.085 107.585 164.082 107.895C164.079 108.206 164.014 108.513 163.891 108.799Z" fill="#5375E2"/>
<path d="M164.797 116.845C163.747 117.586 159.364 117.826 159.364 117.826C159.364 117.826 161.078 113.776 162.121 113.035C162.371 112.859 162.653 112.734 162.951 112.667C163.249 112.601 163.557 112.593 163.857 112.645C164.158 112.698 164.446 112.809 164.704 112.973C164.961 113.137 165.185 113.35 165.36 113.6C165.536 113.85 165.661 114.132 165.728 114.431C165.794 114.729 165.802 115.038 165.749 115.339C165.697 115.641 165.586 115.929 165.423 116.187C165.259 116.445 165.047 116.669 164.797 116.845Z" fill="#5375E2"/>
<path d="M160.099 128.075C158.813 128.182 154.915 126.173 154.915 126.173C154.915 126.173 158.43 123.541 159.7 123.432C160.315 123.38 160.925 123.575 161.396 123.974C161.867 124.372 162.16 124.942 162.212 125.558C162.264 126.174 162.069 126.785 161.671 127.257C161.273 127.729 160.705 128.023 160.09 128.075H160.099Z" fill="#5375E2"/>
<path d="M154.634 135.769C153.392 136.091 149.206 134.773 149.206 134.773C149.206 134.773 152.224 131.582 153.466 131.26C153.764 131.176 154.075 131.152 154.382 131.191C154.689 131.229 154.985 131.328 155.253 131.482C155.521 131.637 155.756 131.843 155.943 132.089C156.131 132.336 156.267 132.617 156.345 132.917C156.423 133.216 156.44 133.529 156.395 133.835C156.351 134.142 156.246 134.436 156.087 134.702C155.928 134.967 155.717 135.198 155.468 135.381C155.218 135.564 154.935 135.695 154.634 135.767V135.769Z" fill="#5375E2"/>
<path d="M154.745 116.229C155.264 117.405 158.897 119.878 158.897 119.878C158.897 119.878 159.516 115.525 158.996 114.349C158.739 113.796 158.275 113.366 157.706 113.152C157.136 112.938 156.505 112.956 155.948 113.203C155.391 113.45 154.954 113.905 154.729 114.472C154.504 115.039 154.51 115.671 154.745 116.233V116.229Z" fill="#5375E2"/>
<path d="M148.469 125.31C149.315 126.276 153.518 127.542 153.518 127.542C153.518 127.542 152.809 123.202 151.961 122.237C151.761 122.001 151.516 121.807 151.241 121.667C150.966 121.527 150.666 121.443 150.358 121.421C150.05 121.398 149.741 121.437 149.449 121.536C149.156 121.634 148.886 121.79 148.654 121.994C148.422 122.198 148.234 122.446 148.098 122.724C147.963 123.002 147.885 123.304 147.868 123.613C147.85 123.922 147.895 124.231 147.998 124.522C148.101 124.813 148.261 125.081 148.469 125.31Z" fill="#5375E2"/>
<path d="M143.576 134.973C144.248 136.07 148.177 138.027 148.177 138.027C148.177 138.027 148.209 133.631 147.535 132.535C147.375 132.274 147.165 132.047 146.918 131.868C146.671 131.689 146.391 131.56 146.094 131.489C145.797 131.417 145.489 131.406 145.188 131.454C144.886 131.502 144.597 131.609 144.337 131.769C144.077 131.929 143.851 132.139 143.672 132.387C143.493 132.635 143.364 132.915 143.293 133.213C143.222 133.51 143.211 133.819 143.259 134.121C143.307 134.423 143.414 134.712 143.574 134.973H143.576Z" fill="#5375E2"/>
<path opacity="0.1" d="M80.1565 178.998C94.2216 178.998 105.624 177.083 105.624 174.72C105.624 172.358 94.2216 170.443 80.1565 170.443C66.0915 170.443 54.6895 172.358 54.6895 174.72C54.6895 177.083 66.0915 178.998 80.1565 178.998Z" fill="#5375E2"/>
<path opacity="0.1" d="M130.283 146.161C144.348 146.161 155.75 144.246 155.75 141.884C155.75 139.521 144.348 137.606 130.283 137.606C116.218 137.606 104.816 139.521 104.816 141.884C104.816 144.246 116.218 146.161 130.283 146.161Z" fill="#5375E2"/>
<path d="M131.973 85.4296L131.95 86.2645L130.501 137.458H128.068L129.261 86.2645L129.285 85.3008L131.973 85.4296Z" fill="#B77B7F"/>
<path d="M146.063 128.798L144.24 128.794L117.153 128.736L115.709 128.733L116.478 126.36H145.87L146.063 128.798Z" fill="#DDA2A6"/>
<path opacity="0.1" d="M131.973 85.4296L131.95 86.2645H129.261L129.285 85.3008L131.973 85.4296Z" fill="black"/>
<path d="M132.999 84.1782H128.486V85.8802H132.999V84.1782Z" fill="#B77B7F"/>
<path opacity="0.1" d="M117.393 126.36L117.153 128.736L115.709 128.733L116.478 126.36H117.393Z" fill="black"/>
<path d="M121.281 84.1461L121.206 84.8844L115.197 144.26L112.444 144.129L118.777 84.8844L118.848 84.2105L121.281 84.1461Z" fill="#DDA2A6"/>
<path opacity="0.1" d="M146.063 128.798L144.24 128.794L143.994 126.36H145.87L146.063 128.798Z" fill="black"/>
<path d="M148.944 144.129L146.189 144.26L140.182 84.8844L140.107 84.1461L142.539 84.2105L142.61 84.8844L148.944 144.129Z" fill="#DDA2A6"/>
<path d="M160.66 25.6055H99.9573V83.9207H160.66V25.6055Z" fill="white"/>
<path d="M131.493 6.10199V20.1839H129.126V6.10199C129.12 5.94202 129.145 5.78233 129.202 5.63252C129.258 5.48272 129.344 5.3459 129.455 5.2303C129.565 5.1147 129.698 5.02271 129.845 4.95986C129.992 4.89702 130.15 4.86462 130.31 4.86462C130.47 4.86462 130.628 4.89702 130.775 4.95986C130.922 5.02271 131.055 5.1147 131.165 5.2303C131.276 5.3459 131.362 5.48272 131.418 5.63252C131.475 5.78233 131.5 5.94202 131.493 6.10199Z" fill="#DDA2A6"/>
<path opacity="0.1" d="M131.493 18.9025H129.124V20.1839H131.493V18.9025Z" fill="black"/>
<path d="M132.423 19.8641V24.513H128.209V19.8641C128.209 19.7882 128.224 19.713 128.253 19.6428C128.281 19.5726 128.324 19.5089 128.377 19.4552C128.431 19.4015 128.495 19.359 128.565 19.3301C128.635 19.3012 128.71 19.2865 128.785 19.2867H131.851C132.003 19.2879 132.149 19.3492 132.256 19.4574C132.363 19.5655 132.423 19.7117 132.423 19.8641Z" fill="#DDA2A6"/>
<path opacity="0.1" d="M130.309 23.1351C130.803 23.1351 131.204 22.7334 131.204 22.2379C131.204 21.7424 130.803 21.3408 130.309 21.3408C129.814 21.3408 129.413 21.7424 129.413 22.2379C129.413 22.7334 129.814 23.1351 130.309 23.1351Z" fill="black"/>
<path d="M130.309 22.9419C130.803 22.9419 131.204 22.5402 131.204 22.0447C131.204 21.5493 130.803 21.1476 130.309 21.1476C129.814 21.1476 129.413 21.5493 129.413 22.0447C129.413 22.5402 129.814 22.9419 130.309 22.9419Z" fill="#B77B7F"/>
<path opacity="0.1" d="M132.423 23.9378H128.196V24.5152H132.423V23.9378Z" fill="black"/>
<path opacity="0.1" d="M134.152 24.7083H126.468V25.9918H134.152V24.7083Z" fill="black"/>
<path d="M134.152 24.322H126.468V25.6055H134.152V24.322Z" fill="#DDA2A6"/>
<path opacity="0.1" d="M114.765 82.4183H147.038C147.407 82.4183 147.761 82.5653 148.022 82.8269C148.283 83.0885 148.43 83.4434 148.43 83.8134V84.1181H113.372V83.8134C113.372 83.4434 113.519 83.0885 113.78 82.8269C114.041 82.5653 114.395 82.4183 114.765 82.4183Z" fill="black"/>
<path opacity="0.1" d="M118.848 84.2105L121.281 84.1461L121.206 84.8844H118.777L118.848 84.2105Z" fill="black"/>
<path opacity="0.1" d="M132.999 84.1782H128.486V84.8844H132.999V84.1782Z" fill="black"/>
<path opacity="0.1" d="M142.61 84.8844H140.182L140.107 84.1461L142.539 84.2105L142.61 84.8844Z" fill="black"/>
<path d="M114.765 82.7981H147.038C147.407 82.7981 147.761 82.9451 148.022 83.2067C148.283 83.4683 148.43 83.8232 148.43 84.1932V84.498H113.372V84.1932C113.372 83.8232 113.519 83.4683 113.78 83.2067C114.041 82.9451 114.395 82.7981 114.765 82.7981Z" fill="#DDA2A6"/>
<path d="M107.689 55.7246C107.202 55.4671 101.905 51.4578 101.905 51.4578L93.355 46.0255C93.355 46.0255 93.31 45.8967 93.2286 45.6756C95.5744 43.0077 95.0624 39.1358 92.6759 36.4143C89.7838 33.1133 76.7161 26.0068 72.7787 32.0852C72.2281 32.9437 72.2088 33.9181 72.0653 34.8625C71.729 37.0668 70.645 39.2023 68.944 41.0009C67.633 42.3896 65.9128 43.6688 65.1587 45.2399C65.1587 45.2206 65.1437 45.2013 65.1373 45.1798C64.9552 45.5165 64.8232 45.8781 64.7452 46.253C64.3703 48.1696 65.6557 50.0069 66.3391 51.872C66.5684 52.5036 66.7349 53.1564 66.8361 53.8208C66.8532 53.6878 66.8682 53.5569 66.8832 53.4238C67.0497 54.3699 67.1065 55.3321 67.0524 56.2912C62.3073 57.2592 62.3052 65.3916 62.3052 65.3916C62.3052 65.3916 61.7204 68.6239 61.8189 69.7894C61.9175 70.9548 61.9153 73.4746 61.9153 74.082C61.9153 74.6894 61.3305 78.4776 61.2726 78.9327C61.2732 78.9391 61.2732 78.9455 61.2726 78.952C61.187 79.4499 60.2979 81.8495 62.4466 82.3861C62.5965 82.4247 62.7551 82.4569 62.92 82.4869C63.0122 84.4294 63.1792 88.4966 63.0314 89.4023C63.0314 89.4023 63.8133 94.8669 64.4625 96.2555C64.8729 97.0698 65.3532 97.8468 65.8978 98.5778C65.8506 98.9106 65.7385 99.2307 65.5679 99.5201C65.2358 99.9987 65.4072 100.391 65.962 100.561C65.9427 100.726 65.9213 100.913 65.8978 101.123C65.66 103.231 65.3044 107.421 65.9085 109.543C66.7375 112.454 66.7868 113.424 66.7868 113.424C66.7868 113.424 66.7868 114.295 67.1296 114.78C67.4723 115.265 68.1043 119.777 68.1043 120.505C68.1043 121.232 69.7624 127.778 69.2739 129.33C68.7855 130.882 69.1775 133.065 69.1775 133.065C69.1775 133.065 68.8841 136.896 68.5349 137.72C68.1857 138.544 68.0464 151.832 68.582 155.275C69.1176 158.717 69.4603 161.578 69.4603 161.578C69.4603 161.578 69.1197 164.731 69.411 165.167C69.7024 165.603 70.2401 168.223 69.8502 168.367C69.4603 168.511 69.2654 169.58 69.2654 169.58C69.4716 169.894 69.6939 170.197 69.9316 170.488C69.7813 170.435 69.6346 170.373 69.4925 170.301C69.6467 170.516 69.8781 170.82 70.163 171.16L69.8952 174.647C69.884 174.783 69.9207 174.919 69.9989 175.031C70.0772 175.143 70.1921 175.223 70.3236 175.259C71.1791 175.492 72.0815 175.488 72.9349 175.248C73.7882 175.007 74.5605 174.539 75.1694 173.894C77.6073 171.421 78.4363 171.76 78.8755 170.258C78.9226 170.097 78.9633 169.938 78.9976 169.788C79.3125 168.449 77.8879 167.453 76.7547 168.024C76.9111 166.964 77.0332 165.759 76.9153 165.079C76.6711 163.673 76.7204 159.988 76.7204 159.988L76.3798 142.335C76.3798 142.335 77.0117 138.843 77.7444 137.486C78.477 136.13 78.3871 131.376 78.3871 131.376L79.2161 115.759L79.9959 108.146C79.9959 108.146 80.7757 105.528 81.7504 108.438C81.7504 108.438 81.2148 114.304 81.4591 115.712C81.7033 117.12 82.0439 123.956 81.7997 125.458C81.5555 126.961 80.4843 135.207 81.157 137.291C81.8297 139.375 82.5795 141.901 82.4295 142.727C82.2795 143.554 81.7868 161.445 81.7868 161.445C81.7868 161.445 83.1043 164.879 82.1296 166.004C81.1549 167.129 82.0803 171.585 82.0803 171.585C82.0803 171.585 82.1981 171.668 82.3995 171.784L82.3717 172.155L82.0653 176.167C82.0544 176.303 82.0912 176.439 82.1694 176.551C82.2476 176.663 82.3623 176.744 82.4938 176.781C83.3492 177.014 84.2517 177.01 85.1051 176.77C85.9585 176.529 86.7308 176.061 87.3395 175.416C89.7774 172.941 90.6065 173.282 91.0456 171.778C91.0928 171.617 91.1335 171.46 91.1699 171.308C91.5126 169.846 89.7774 168.786 88.6163 169.741L88.5585 169.79C88.4978 169.842 88.4342 169.89 88.3678 169.934C88.337 169.957 88.3048 169.978 88.2714 169.996C88.5156 168.889 88.8712 166.991 88.6999 166.103C88.4557 164.794 88.9419 160.819 88.9419 160.819C88.9419 160.819 90.3558 156.065 90.4051 154.165L90.795 139.036C90.795 139.036 90.7479 132.876 90.9428 131.373C91.1377 129.871 92.6973 116.873 94.2569 112.992C95.4544 110.022 95.9899 102.441 95.6729 98.5971C95.6558 98.4083 95.6386 98.2258 95.6172 98.0563C97.5302 96.6418 97.7209 94.2895 97.7209 94.2895C97.7209 94.2895 95.9642 90.9284 94.274 89.5054C92.5838 88.0824 92.2196 85.6356 92.2796 84.5946C92.3083 83.9603 92.0997 83.3381 91.6947 82.8497C91.6947 82.8497 90.9149 80.3278 90.3944 80.0702C90.3518 80.0485 90.3134 80.0194 90.2808 79.9844C89.9274 79.6045 90.1994 78.5184 90.1994 78.5184V78.4841C90.2616 78.233 90.6279 76.6061 90.5186 76.1897C90.388 75.7389 90.5829 73.6034 90.5829 73.6034C90.5829 73.6034 91.819 69.9182 91.624 67.0078C91.4291 64.0974 94.1605 64.3571 94.1605 64.3571L102.594 64.2691H103.554C103.893 63.9812 104.202 63.6605 104.478 63.3118C106.084 63.1208 109.334 62.5134 109.698 60.7363C110.193 58.3775 108.177 55.9843 107.689 55.7246ZM68.6141 82.6307L68.672 81.1519C68.8712 81.3236 69.004 81.4331 69.004 81.4331C69.1116 81.82 69.1167 82.2283 69.019 82.6179C68.9667 82.8008 68.8738 82.9695 68.7473 83.1115C68.6209 83.2535 68.464 83.365 68.2885 83.4378C68.2477 83.4555 68.2083 83.4763 68.1707 83.5L68.0893 82.6651L68.6141 82.6307ZM99.2055 56.6604C98.8477 56.4994 97.6438 56.5316 97.0246 56.5316C96.4055 56.5316 95.4008 56.0144 95.4008 56.0144C95.1866 55.5958 94.0019 55.3469 92.948 55.2052C92.1468 53.2263 91.0199 51.2968 90.8678 49.2342C90.8678 49.1591 90.8678 49.0839 90.8571 49.0088L90.9792 49.2235C90.9792 49.2235 95.8893 52.3614 96.442 53.3014C96.8704 54.0183 98.9334 55.6195 99.8888 56.3363C99.7573 56.5083 99.5728 56.632 99.364 56.6883C99.3096 56.6942 99.2546 56.6846 99.2055 56.6604Z" fill="url(#paint0_linear)"/>
<path d="M91.0971 171.321C91.0607 171.471 91.0221 171.627 90.975 171.786C90.5465 173.289 89.7261 172.941 87.3332 175.394C86.7369 176.035 85.9773 176.499 85.1364 176.739C84.2956 176.978 83.4055 176.982 82.5624 176.751C82.4308 176.716 82.3157 176.636 82.2373 176.524C82.159 176.413 82.1224 176.277 82.1339 176.141L82.436 172.162L82.5795 170.247C82.5795 170.247 86.4013 171.321 88.3465 169.958C88.4117 169.913 88.4746 169.865 88.535 169.814C88.55 169.8 88.5643 169.786 88.5778 169.771C88.8289 169.563 89.1387 169.438 89.4638 169.415C89.7889 169.392 90.113 169.472 90.3908 169.643C90.6685 169.814 90.886 170.067 91.0127 170.368C91.1393 170.669 91.1688 171.002 91.0971 171.321Z" fill="#67647E"/>
<path d="M79.1004 169.818C79.064 169.968 79.0254 170.125 78.9783 170.284C78.5498 171.786 77.7294 171.439 75.3365 173.892C74.7402 174.532 73.9806 174.997 73.1397 175.236C72.2989 175.475 71.4088 175.479 70.5657 175.248C70.4341 175.213 70.319 175.133 70.2406 175.022C70.1623 174.91 70.1257 174.775 70.1372 174.639L70.4393 170.659L70.5828 168.745C70.5828 168.745 74.4046 169.818 76.3498 168.455C76.415 168.411 76.4779 168.363 76.5383 168.311C76.5533 168.298 76.5676 168.284 76.5811 168.268C76.8322 168.06 77.142 167.936 77.4671 167.913C77.7922 167.89 78.1163 167.969 78.3941 168.14C78.6719 168.311 78.8893 168.565 79.016 168.866C79.1426 169.167 79.1721 169.5 79.1004 169.818Z" fill="#67647E"/>
<path opacity="0.1" d="M75.1522 170.415L75.3064 172.484C73.1128 174.68 70.5014 171.411 69.7366 170.338C71.7481 171.376 75.1522 170.415 75.1522 170.415Z" fill="black"/>
<path opacity="0.1" d="M88.0464 171.256L88.3334 171.065C86.3304 174.117 83.3548 172.709 82.4272 172.162L82.5708 170.247C82.5708 170.247 86.3926 171.32 88.3377 169.958C88.1856 170.704 88.0464 171.256 88.0464 171.256Z" fill="black"/>
<path d="M94.1475 113.471C92.6093 117.319 91.0733 130.212 90.8805 131.715C90.6877 133.217 90.737 139.317 90.737 139.317L90.3514 154.317C90.3021 156.195 88.9097 160.911 88.9097 160.911C88.9097 160.911 88.4298 164.856 88.6697 166.154C88.9097 167.453 88.0463 170.876 88.0463 170.876L88.3334 170.683C85.9319 174.332 82.138 171.597 82.138 171.597C82.138 171.597 81.2254 167.172 82.1873 166.064C83.1492 164.957 81.851 161.542 81.851 161.542C81.851 161.542 82.3308 143.788 82.4744 142.97C82.6179 142.152 81.8981 139.65 81.2254 137.581C80.5528 135.512 81.611 127.332 81.851 125.84C82.0909 124.349 81.7546 117.564 81.5146 116.169C81.2747 114.774 81.8017 108.951 81.8017 108.951C80.842 106.064 80.0729 108.663 80.0729 108.663L79.3038 116.216L78.4876 131.71C78.4876 131.71 78.584 136.432 77.8642 137.774C77.1444 139.115 76.5189 142.584 76.5189 142.584L76.8552 160.1C76.8552 160.1 76.8081 163.748 77.048 165.15C77.288 166.551 76.5189 170.155 76.5189 170.155C73.8304 176.502 69.5116 169.621 69.5116 169.621C69.5116 169.621 69.7044 168.563 70.0879 168.419C70.4713 168.275 69.9443 165.676 69.6594 165.242C69.3745 164.809 69.7066 161.681 69.7066 161.681C69.7066 161.681 69.3702 158.844 68.8497 155.427C68.3291 152.01 68.4662 138.828 68.8025 138.01C69.1389 137.192 69.4259 133.391 69.4259 133.391C69.4259 133.391 69.0424 131.225 69.5223 129.684C70.0022 128.143 68.3698 121.651 68.3698 120.927C68.3698 120.204 67.7464 115.731 67.4101 115.25C67.0737 114.77 67.0737 113.902 67.0737 113.902C67.0737 113.902 67.0266 112.941 66.2168 110.054C65.6213 107.946 65.9726 103.791 66.2061 101.699C66.2897 100.924 66.3625 100.43 66.3625 100.43C66.3625 100.43 93.9054 95.955 95.0044 96.9659C95.2614 97.2042 95.4328 98.0219 95.5335 99.1874C95.8613 102.999 95.3214 110.533 94.1475 113.471Z" fill="#444053"/>
<path opacity="0.1" d="M83.7234 135.106C83.8519 135.106 86.8939 135.363 88.0079 135.138C89.1219 134.913 83.7234 135.106 83.7234 135.106Z" fill="black"/>
<path opacity="0.1" d="M83.9484 136.902C83.9484 136.902 88.1493 137.641 88.3635 137.256C88.5778 136.872 83.9484 136.902 83.9484 136.902Z" fill="black"/>
<path opacity="0.1" d="M71.1099 136.132C71.1099 136.132 73.2864 136.228 74.471 136.776C75.6557 137.323 71.1099 136.132 71.1099 136.132Z" fill="black"/>
<path d="M63.2007 82.18C63.2007 82.18 63.552 88.883 63.3614 90.0699C63.3614 90.0699 64.1283 95.4914 64.7688 96.8694C65.4093 98.2473 66.7868 99.9815 66.7868 99.9815L68.6763 86.6744L68.2264 82.1157L63.2007 82.18Z" fill="#EFB7B9"/>
<path d="M83.0507 51.6423C87.1349 51.6423 90.4457 48.3252 90.4457 44.2333C90.4457 40.1414 87.1349 36.8242 83.0507 36.8242C78.9665 36.8242 75.6556 40.1414 75.6556 44.2333C75.6556 48.3252 78.9665 51.6423 83.0507 51.6423Z" fill="#EFB7B9"/>
<path d="M79.2096 47.6953C79.2096 47.6953 76.9046 52.2197 74.5995 54.336C72.2945 56.4522 88.4299 58.8582 88.8133 58.8582C89.1968 58.8582 85.932 49.2363 86.5083 48.0752C87.0845 46.914 79.2096 47.6953 79.2096 47.6953Z" fill="#EFB7B9"/>
<path opacity="0.1" d="M95.5379 99.1874C95.1758 99.4644 94.7762 99.6884 94.3511 99.8527C91.4076 101.007 88.205 102.611 86.0284 101.971C83.8519 101.332 79.2418 101.971 79.2418 101.971C79.2418 101.971 69.9551 101.201 68.1021 101.649C67.2581 101.853 66.6025 101.845 66.1741 101.699C66.2576 100.924 66.3305 100.43 66.3305 100.43C66.3305 100.43 93.9055 95.955 95.0045 96.9659C95.2658 97.2042 95.4329 98.0219 95.5379 99.1874Z" fill="black"/>
<path d="M97.5537 94.9119C97.5537 94.9119 97.2988 98.1206 94.3511 99.2754C91.4033 100.43 88.205 102.033 86.0284 101.394C83.8519 100.754 79.2418 101.394 79.2418 101.394C79.2418 101.394 69.9551 100.623 68.1021 101.072C66.249 101.52 65.2829 100.945 65.8592 100.11C66.4354 99.2754 66.3733 96.5174 66.3733 95.3626C66.3733 94.2079 65.7306 89.5247 66.3069 88.6898C66.8832 87.8549 67.3952 84.6483 68.5477 84.1332C68.7207 84.0601 68.8753 83.9491 68.9998 83.8084C69.1244 83.6676 69.2159 83.5006 69.2675 83.3197C69.3627 82.9335 69.3576 82.5293 69.2525 82.1457C69.2525 82.1457 69.0575 81.9847 68.7898 81.7465C68.1107 81.1391 66.9624 80.0122 67.3309 79.6431C67.8429 79.128 67.3309 75.7926 67.3309 75.7926C67.3309 75.7926 66.1141 73.2278 66.564 72.2662C67.0138 71.3047 62.6565 66.2351 62.6565 66.2351C62.6565 66.2351 62.6565 57.5125 67.9072 57.1262C67.9072 57.1262 71.6218 57.2549 72.0695 55.5872C72.5173 53.9196 75.4629 52.9559 75.4629 52.9559L82.1874 54.4325C82.1874 54.4325 88.1407 55.7203 89.2311 54.9455C90.3215 54.1707 91.1591 55.9714 91.1591 55.9714C91.1591 55.9714 94.8716 56.1646 95.2551 56.9351C95.6386 57.7057 94.0405 65.2091 94.0405 65.2091C94.0405 65.2091 91.3498 64.9537 91.5426 67.8405C91.7354 70.7273 90.5057 74.3846 90.5057 74.3846C90.5057 74.3846 90.3129 76.5009 90.4415 76.9495C90.5614 77.3637 90.1887 78.9777 90.1287 79.2267V79.2589C90.1287 79.2589 89.8609 80.332 90.208 80.7141C90.2401 80.7487 90.2778 80.7777 90.3194 80.7999C90.8335 81.0553 91.6047 83.5579 91.6047 83.5579C92.0045 84.0437 92.2099 84.661 92.181 85.29C92.1189 86.3181 92.5023 88.7542 94.1669 90.1664C95.8314 91.5787 97.5537 94.9119 97.5537 94.9119Z" fill="#A36468"/>
<path d="M68.9954 80.0552V80.3277L68.8797 83.3326C68.8797 83.3326 64.9401 83.6524 62.7957 83.1179C60.6513 82.5835 61.5532 80.199 61.6389 79.7053C61.6397 79.6989 61.6397 79.6924 61.6389 79.686C61.701 79.2353 62.2816 75.4835 62.2816 74.874C62.2816 74.2644 62.2815 71.7618 62.1851 70.6071C62.0887 69.4524 62.6564 66.2351 62.6564 66.2351L63.072 65.7242L67.5836 67.4563L68.9954 80.0552Z" fill="#A36468"/>
<path opacity="0.1" d="M68.9846 80.3342L68.8689 83.339C68.8689 83.339 64.9293 83.6588 62.7849 83.1244C60.6406 82.5899 61.5424 80.2054 61.6281 79.7117L68.9846 80.3342Z" fill="black"/>
<path opacity="0.1" d="M69.2675 83.3218C69.3628 82.9357 69.3576 82.5314 69.2525 82.1478C69.2525 82.1478 69.0576 81.9868 68.7898 81.7486C72.181 81.2743 85.6107 79.4284 90.133 79.2267V79.2589C90.133 79.2589 89.8653 80.332 90.2123 80.7141L69.2675 83.3218Z" fill="black"/>
<path opacity="0.1" d="M90.6385 85.6356C90.6385 85.6356 91.4719 90.3574 88.3656 92.0187C88.3635 92.0273 90.1265 89.6856 90.6385 85.6356Z" fill="black"/>
<path opacity="0.1" d="M70.3087 92.1539C70.3087 92.1539 77.8066 90.8661 79.274 91.8663C80.7415 92.8664 70.3087 92.1539 70.3087 92.1539Z" fill="black"/>
<path opacity="0.1" d="M88.0465 62.9319C88.0465 62.9319 86.894 67.6796 87.7573 68.7699C88.6207 69.8602 88.0465 62.9319 88.0465 62.9319Z" fill="black"/>
<path opacity="0.1" d="M66.3389 59.0514C66.3389 59.0514 67.3951 60.8157 66.7545 62.6443C66.114 64.473 66.3389 59.0514 66.3389 59.0514Z" fill="black"/>
<path opacity="0.1" d="M64.1561 74.5134C64.1561 74.5134 65.5015 75.314 65.0537 76.5653C64.606 77.8166 64.1561 74.5134 64.1561 74.5134Z" fill="black"/>
<path opacity="0.1" d="M64.0341 70.8561C64.0341 70.8561 65.2809 71.53 65.4415 72.5238C65.6022 73.5175 64.0341 70.8561 64.0341 70.8561Z" fill="black"/>
<path opacity="0.1" d="M82.5387 109.219C82.5387 109.219 90.3836 110.022 91.9517 108.161C91.9517 108.172 84.8759 109.573 82.5387 109.219Z" fill="black"/>
<path opacity="0.1" d="M68.9954 108.771C68.9954 108.771 77.4165 110.76 79.0811 109.187C79.0811 109.187 71.8446 109.732 68.9954 108.771Z" fill="black"/>
<path opacity="0.1" d="M83.1471 111.821C83.1471 111.821 86.669 111.821 88.3014 111.917C89.9338 112.014 83.1471 111.821 83.1471 111.821Z" fill="black"/>
<path opacity="0.1" d="M69.5717 113.323C69.5717 113.323 71.3005 115.28 73.2542 114.928C75.2079 114.576 69.5717 113.323 69.5717 113.323Z" fill="black"/>
<path d="M72.9672 33.1905C72.4252 34.034 72.406 35.0106 72.2646 35.9464C71.9347 38.1335 70.8657 40.2519 69.1926 42.0376C67.6566 43.6731 65.5508 45.1562 65.1523 47.1544C64.7753 49.0518 66.0542 50.8783 66.7247 52.7348C68.4921 57.6048 66.0242 62.713 65.3044 67.7397C65.1052 69.1283 65.3451 70.9033 67.0525 71.3648C67.5859 71.5107 68.1964 71.4914 68.6763 71.7232C69.319 72.0323 69.5161 72.674 69.6339 73.2514C70.0636 75.3166 70.212 77.4306 70.0752 79.5358C69.9981 80.7162 69.9124 82.0749 71.0263 82.8862C71.5319 83.2575 72.2131 83.4463 72.8708 83.6245C74.6253 84.0988 76.894 84.483 78.0765 83.3691C78.5735 82.9033 78.7599 82.2466 79.379 81.8774C80.3066 81.3258 81.6219 81.6992 82.7894 81.7572C85.1866 81.8774 87.3888 80.4694 88.3336 78.7717C89.2783 77.074 89.1905 75.123 88.8477 73.2922C88.505 71.4614 87.8923 69.6434 87.8494 67.7847C87.8344 67.1408 87.8923 66.4862 88.2607 65.9153C88.9741 64.8099 90.6344 64.3077 91.7697 63.4385C93.897 61.8073 93.8906 59.1351 93.1172 56.8986C92.3439 54.6622 90.9557 52.518 90.7843 50.2065C90.7078 49.6477 90.8186 49.0792 91.0992 48.5903C91.4034 48.1202 91.9347 47.7683 92.3846 47.3798C95.4887 44.7527 95.1224 40.4386 92.556 37.4853C89.7153 34.2122 76.8447 27.1615 72.9672 33.1905Z" fill="#E3787D"/>
<g opacity="0.1">
<path opacity="0.1" d="M67.1188 54.7566C67.3609 52.8056 67.3159 50.8718 66.6283 48.9723C66.2898 48.0408 65.7992 47.1158 65.4415 46.1821C65.2628 46.5197 65.1329 46.881 65.0559 47.2553C64.6788 49.1526 65.9577 50.9791 66.6283 52.8357C66.854 53.4584 67.0183 54.1018 67.1188 54.7566Z" fill="black"/>
<path opacity="0.1" d="M69.9788 75.7733C70.1153 73.6682 69.9676 71.5544 69.5396 69.4889C69.4197 68.9116 69.2226 68.272 68.5799 67.9629C68.1 67.7311 67.4895 67.7483 66.9561 67.6045C66.6283 67.5257 66.3229 67.373 66.063 67.1581C65.8031 66.9431 65.5956 66.6714 65.4565 66.3639C65.3579 66.8532 65.2722 67.3405 65.2016 67.8298C65.0023 69.2185 65.2423 70.9935 66.9496 71.4549C67.4831 71.5987 68.0936 71.5794 68.5735 71.8112C69.2161 72.1203 69.4132 72.762 69.5332 73.3394C69.7297 74.2973 69.8671 75.2664 69.9445 76.2412C69.9595 76.0824 69.9681 75.9278 69.9788 75.7733Z" fill="black"/>
<path opacity="0.1" d="M88.2393 75.0113C87.2924 76.7155 85.0902 78.1171 82.693 77.9969C81.5255 77.9368 80.2101 77.5676 79.2847 78.1171C78.6656 78.4841 78.4771 79.143 77.9801 79.6087C76.7975 80.7141 74.5289 80.3385 72.7744 79.8641C72.1167 79.6839 71.4376 79.4971 70.9299 79.1258C70.4461 78.7693 70.1196 78.2382 70.0195 77.6449C70.0323 78.3038 70.0195 78.9648 69.9788 79.6238C69.9016 80.8042 69.816 82.1628 70.9299 82.9763C71.4376 83.3455 72.1167 83.5343 72.7744 83.7125C74.5289 84.1868 76.7975 84.571 77.9801 83.4571C78.4771 82.9913 78.6656 82.3346 79.2847 81.9547C80.2101 81.4031 81.5255 81.7765 82.693 81.8345C85.0902 81.9547 87.2924 80.5467 88.2393 78.8489C89.1476 77.2092 89.1069 75.3548 88.7899 73.584C88.6704 74.0822 88.4853 74.5622 88.2393 75.0113Z" fill="black"/>
<path opacity="0.1" d="M92.2968 43.628C91.8384 44.0144 91.3071 44.3685 91.0115 44.8385C90.7308 45.3275 90.6201 45.8959 90.6966 46.4547C90.7588 47.1571 90.907 47.8491 91.1379 48.5152C91.4946 48.134 91.8854 47.7862 92.3054 47.4764C94.4048 45.7014 94.9146 43.1537 94.2334 40.7756C93.874 41.8926 93.2018 42.8827 92.2968 43.628Z" fill="black"/>
<path opacity="0.1" d="M91.6733 59.6759C90.54 60.5452 88.8776 61.0496 88.1664 62.1549C87.7958 62.7258 87.738 63.3847 87.753 64.0222C87.7793 64.7728 87.8711 65.5197 88.0272 66.2544C88.0677 66.1675 88.1142 66.0836 88.1664 66.0032C88.8776 64.8979 90.54 64.3957 91.6733 63.5264C93.6163 62.0369 93.7791 59.6802 93.205 57.579C92.9137 58.4149 92.3805 59.1449 91.6733 59.6759Z" fill="black"/>
</g>
<path d="M103.316 64.2476C103.316 64.2476 108.856 63.96 109.336 61.6184C109.816 59.2767 107.836 56.8965 107.352 56.6454C106.868 56.3942 101.645 52.4107 101.645 52.4107L93.2263 47.0235C93.2263 47.0235 89.1924 35.4334 88.2991 39.8698C87.4058 44.3062 90.8933 50.1979 90.8933 50.1979C90.8933 50.1979 95.7263 53.31 96.2704 54.2393C96.8145 55.1687 100.146 57.6069 100.146 57.6069L103.316 64.2476Z" fill="#EFB7B9"/>
<path d="M106.294 60.4615C104.983 63.799 103.284 65.1147 103.284 65.1147H102.339L94.034 65.2005L93.0764 62.5799L94.4218 56.9008L95.2529 56.9351C95.2529 56.9351 96.2469 57.4481 96.8532 57.4481C97.4595 57.4481 98.6484 57.4159 98.9954 57.5747C99.0439 57.5984 99.0985 57.6067 99.1518 57.5983C99.4667 57.5661 99.7945 57.0939 99.7945 57.0939C99.7945 57.0939 107.607 57.1261 106.294 60.4615Z" fill="#A36468"/>
<path opacity="0.1" d="M106.294 60.4615C104.983 63.799 103.284 65.1147 103.284 65.1147H102.339C102.832 63.7926 103.871 61.0797 104.268 60.4529C104.655 59.8606 101.176 58.386 99.1411 57.5898C99.456 57.5576 99.7838 57.0854 99.7838 57.0854C99.7838 57.0854 107.607 57.1262 106.294 60.4615Z" fill="black"/>
<path opacity="0.1" d="M19.4559 165.648C24.683 165.648 28.9204 164.818 28.9204 163.793C28.9204 162.769 24.683 161.939 19.4559 161.939C14.2288 161.939 9.99146 162.769 9.99146 163.793C9.99146 164.818 14.2288 165.648 19.4559 165.648Z" fill="#5375E2"/>
<path opacity="0.1" d="M177.224 152.912C181.031 152.912 184.118 152.307 184.118 151.562C184.118 150.816 181.031 150.212 177.224 150.212C173.417 150.212 170.33 150.816 170.33 151.562C170.33 152.307 173.417 152.912 177.224 152.912Z" fill="#5375E2"/>
<path opacity="0.1" d="M207.106 158.383C210.914 158.383 214 157.778 214 157.033C214 156.287 210.914 155.682 207.106 155.682C203.299 155.682 200.213 156.287 200.213 157.033C200.213 157.778 203.299 158.383 207.106 158.383Z" fill="#5375E2"/>
<path opacity="0.1" d="M160.836 169.651C164.643 169.651 167.729 169.046 167.729 168.301C167.729 167.555 164.643 166.951 160.836 166.951C157.028 166.951 153.942 167.555 153.942 168.301C153.942 169.046 157.028 169.651 160.836 169.651Z" fill="#5375E2"/>
<path d="M28.3999 112.316C28.3999 112.316 29.9509 114.349 27.6844 117.414C25.4179 120.479 23.552 123.067 24.3103 124.98C24.3103 124.98 27.7272 119.285 30.51 119.206C33.2928 119.127 31.4612 115.742 28.3999 112.316Z" fill="#5375E2"/>
<path opacity="0.1" d="M28.3997 112.316C28.5354 112.515 28.6422 112.732 28.7168 112.96C31.431 116.156 32.877 119.137 30.2678 119.212C27.8385 119.281 24.9229 123.636 24.2245 124.735C24.2468 124.82 24.2748 124.904 24.308 124.986C24.308 124.986 27.7249 119.292 30.5077 119.212C33.2905 119.133 31.461 115.742 28.3997 112.316Z" fill="black"/>
<path d="M31.281 114.905C31.281 115.619 31.2017 116.193 31.1032 116.193C31.0046 116.193 30.9232 115.613 30.9232 114.905C30.9232 114.196 31.0239 114.527 31.1224 114.527C31.221 114.527 31.281 114.181 31.281 114.905Z" fill="#FFD037"/>
<path d="M32.2709 115.759C31.6453 116.1 31.0991 116.308 31.0519 116.22C31.0048 116.132 31.4804 115.791 32.0995 115.444C32.7186 115.096 32.4787 115.351 32.5279 115.444C32.5772 115.536 32.8964 115.416 32.2709 115.759Z" fill="#FFD037"/>
<path d="M20.2144 112.316C20.2144 112.316 18.6634 114.349 20.9299 117.414C23.1964 120.479 25.0623 123.067 24.3104 124.98C24.3104 124.98 20.8828 119.285 18.0978 119.206C15.3129 119.127 17.1531 115.742 20.2144 112.316Z" fill="#5375E2"/>
<path opacity="0.1" d="M20.2142 112.316C20.0785 112.515 19.9718 112.732 19.8972 112.96C17.1829 116.156 15.7369 119.137 18.3462 119.212C20.7755 119.281 23.7018 123.636 24.3895 124.735C24.3669 124.82 24.3397 124.904 24.3081 124.986C24.3081 124.986 20.8805 119.292 18.0955 119.212C15.3106 119.133 17.153 115.742 20.2142 112.316Z" fill="black"/>
<path d="M17.333 114.905C17.333 115.619 17.4123 116.193 17.5108 116.193C17.6094 116.193 17.6908 115.613 17.6908 114.905C17.6908 114.196 17.5901 114.527 17.4915 114.527C17.393 114.527 17.333 114.181 17.333 114.905Z" fill="#FFD037"/>
<path d="M16.3433 115.759C16.971 116.1 17.5151 116.308 17.5644 116.22C17.6136 116.132 17.1359 115.791 16.5147 115.444C15.8934 115.096 16.1355 115.351 16.0862 115.444C16.037 115.536 15.7178 115.416 16.3433 115.759Z" fill="#FFD037"/>
<path opacity="0.1" d="M24.306 140.515C33.2564 140.515 40.5121 139.399 40.5121 138.023C40.5121 136.647 33.2564 135.531 24.306 135.531C15.3556 135.531 8.09985 136.647 8.09985 138.023C8.09985 139.399 15.3556 140.515 24.306 140.515Z" fill="#5375E2"/>
<path d="M32.6479 122.243L32.5708 122.887L32.4615 123.782L32.4165 124.155L32.3073 125.053L32.2601 125.426L32.1509 126.321L30.9127 136.503C30.8013 137.413 29.3188 138.121 27.5279 138.121H21.0969C19.3059 138.121 17.8257 137.413 17.7143 136.503L16.4739 126.319L16.3646 125.424L16.3197 125.05L16.2083 124.153L16.1633 123.78L16.054 122.885L15.9769 122.241C15.9148 121.726 16.716 121.292 17.7293 121.292H30.9084C31.9088 121.294 32.7121 121.728 32.6479 122.243Z" fill="#65617D"/>
<path d="M32.5686 122.876L32.4615 123.773H16.1504L16.0433 122.876H32.5686Z" fill="#9D9CB5"/>
<path d="M32.4143 124.147L32.3072 125.042H16.3068L16.1975 124.147H32.4143Z" fill="#9D9CB5"/>
<path d="M32.2601 125.415L32.1509 126.31H16.4611L16.3518 125.415H32.2601Z" fill="#9D9CB5"/>
<path opacity="0.1" d="M38.5583 33.4867C42.2851 33.4867 45.3064 30.4598 45.3064 26.7258C45.3064 22.9919 42.2851 19.965 38.5583 19.965C34.8314 19.965 31.8102 22.9919 31.8102 26.7258C31.8102 30.4598 34.8314 33.4867 38.5583 33.4867Z" fill="#5375E2"/>
<path opacity="0.1" d="M24.4196 14.8138C26.7267 14.8138 28.597 12.94 28.597 10.6285C28.597 8.31706 26.7267 6.44324 24.4196 6.44324C22.1125 6.44324 20.2422 8.31706 20.2422 10.6285C20.2422 12.94 22.1125 14.8138 24.4196 14.8138Z" fill="#5375E2"/>
<path opacity="0.1" d="M2.5707 22.5405C3.99046 22.5405 5.1414 21.3874 5.1414 19.965C5.1414 18.5425 3.99046 17.3894 2.5707 17.3894C1.15094 17.3894 0 18.5425 0 19.965C0 21.3874 1.15094 22.5405 2.5707 22.5405Z" fill="#5375E2"/>
</g>
<defs>
<linearGradient id="paint0_linear" x1="85.3944" y1="176.944" x2="85.3944" y2="29.7071" gradientUnits="userSpaceOnUse">
<stop stop-color="#808080" stop-opacity="0.25"/>
<stop offset="0.54" stop-color="#808080" stop-opacity="0.12"/>
<stop offset="1" stop-color="#808080" stop-opacity="0.1"/>
</linearGradient>
<clipPath id="clip0">
<rect width="214" height="179" fill="white"/>
</clipPath>
</defs>
</svg>
