<svg width="213" height="154" viewBox="0 0 213 154" fill="none" xmlns="http://www.w3.org/2000/svg">
<g clip-path="url(#clip0)">
<path d="M185.948 52.9792C178.239 47.1914 166.165 41.7176 152.822 37.9617C140.673 34.5418 128.823 32.8906 119.453 33.3123L119.404 32.2179C128.886 31.7914 140.858 33.4564 153.116 36.9069C166.584 40.6979 178.788 46.2362 186.601 52.1019L185.948 52.9792Z" fill="#CCCCCC"/>
<path d="M185.147 57.4374C185.154 62.5653 184.084 67.6371 182.006 72.3212C181.833 72.7134 181.652 73.1019 181.464 73.4868C177.85 80.9206 171.835 86.9054 164.399 90.4648C156.964 94.0242 148.546 94.9483 140.521 93.0864C132.495 91.2244 125.334 86.6863 120.207 80.2121C115.079 73.738 112.287 65.7099 112.285 57.4374C112.285 56.5906 112.314 55.7504 112.372 54.9168C112.399 54.4928 112.434 54.0715 112.477 53.6526C113.444 44.3271 117.937 35.7299 125.031 29.6351C132.125 23.5403 141.278 20.413 150.601 20.8986C159.925 21.3841 168.706 25.4455 175.135 32.2446C181.563 39.0436 185.147 48.0616 185.147 57.4374V57.4374Z" fill="#5375E2"/>
<path opacity="0.1" d="M182.006 72.3212C181.832 72.7134 181.652 73.1019 181.464 73.4868C180.399 73.6029 179.279 73.6873 178.102 73.7398C177.128 73.7837 176.126 73.8056 175.101 73.8056C166.155 73.8056 155.388 72.1471 144.389 69.0513C132.131 65.6007 121.042 60.7741 113.162 55.4601C112.894 55.2794 112.63 55.0983 112.371 54.9168C112.399 54.4928 112.434 54.0715 112.477 53.6526C112.895 53.9517 113.326 54.2511 113.77 54.5509C121.557 59.8014 132.535 64.5764 144.684 67.9964C155.587 71.0659 166.252 72.7101 175.096 72.7101C176.107 72.7101 177.093 72.6886 178.053 72.6455C179.451 72.582 180.769 72.4739 182.006 72.3212Z" fill="black"/>
<path d="M175.102 72.9294C166.156 72.9296 155.388 71.271 144.39 68.1749C132.132 64.7245 121.042 59.8978 113.162 54.5839C105.118 49.1591 101.346 43.8138 102.541 39.5326C103.736 35.2513 109.724 32.6536 119.404 32.218L119.453 33.3123C114.933 33.5158 111.249 34.1905 108.504 35.3178C105.765 36.4424 104.112 37.9599 103.591 39.8283C103.07 41.6966 103.696 43.8557 105.454 46.2459C107.216 48.6418 110.014 51.1411 113.77 53.6744C121.556 58.9252 132.535 63.7003 144.684 67.1202C155.587 70.1893 166.252 71.834 175.096 71.8342C176.107 71.8342 177.092 71.8126 178.053 71.7695C182.573 71.566 186.257 70.8913 189.002 69.764C191.74 68.6394 193.393 67.122 193.915 65.2536C194.851 61.8988 192.022 57.5397 185.948 52.9793L186.601 52.102C189.726 54.4487 192.04 56.762 193.478 58.9773C195.019 61.3523 195.519 63.5635 194.965 65.5493C193.77 69.8305 187.781 72.4281 178.102 72.8639C177.128 72.9077 176.126 72.9294 175.102 72.9294Z" fill="#CCCCCC"/>
<path d="M149.68 14.2508C149.911 14.2508 150.098 14.063 150.098 13.8315C150.098 13.5999 149.911 13.4122 149.68 13.4122C149.45 13.4122 149.263 13.5999 149.263 13.8315C149.263 14.063 149.45 14.2508 149.68 14.2508Z" fill="#F2F2F2"/>
<path d="M94.2966 32.4439C94.6932 32.4439 95.0147 32.121 95.0147 31.7226C95.0147 31.3243 94.6932 31.0013 94.2966 31.0013C93.8999 31.0013 93.5784 31.3243 93.5784 31.7226C93.5784 32.121 93.8999 32.4439 94.2966 32.4439Z" fill="#CCCCCC"/>
<path d="M92.7657 61.3778C93.5492 61.3778 94.1844 60.7399 94.1844 59.9529C94.1844 59.166 93.5492 58.5281 92.7657 58.5281C91.9821 58.5281 91.3469 59.166 91.3469 59.9529C91.3469 60.7399 91.9821 61.3778 92.7657 61.3778Z" fill="#CCCCCC"/>
<path d="M177.928 17.2967C178.451 17.2967 178.874 16.8716 178.874 16.3471C178.874 15.8226 178.451 15.3975 177.928 15.3975C177.406 15.3975 176.983 15.8226 176.983 16.3471C176.983 16.8716 177.406 17.2967 177.928 17.2967Z" fill="#CCCCCC"/>
<path d="M211.465 57.3022C212.313 57.3022 213 56.6119 213 55.7604C213 54.9088 212.313 54.2185 211.465 54.2185C210.617 54.2185 209.93 54.9088 209.93 55.7604C209.93 56.6119 210.617 57.3022 211.465 57.3022Z" fill="#CCCCCC"/>
<path d="M199.46 31.7961C199.824 31.7961 200.119 31.5 200.119 31.1346C200.119 30.7693 199.824 30.4731 199.46 30.4731C199.096 30.4731 198.801 30.7693 198.801 31.1346C198.801 31.5 199.096 31.7961 199.46 31.7961Z" fill="#CCCCCC"/>
<path d="M119.484 23.668C120.051 23.668 120.511 23.206 120.511 22.636C120.511 22.066 120.051 21.604 119.484 21.604C118.916 21.604 118.456 22.066 118.456 22.636C118.456 23.206 118.916 23.668 119.484 23.668Z" fill="#CCCCCC"/>
<path d="M197.155 53.2955C197.518 53.2955 197.813 52.9993 197.813 52.6339C197.813 52.2686 197.518 51.9724 197.155 51.9724C196.791 51.9724 196.496 52.2686 196.496 52.6339C196.496 52.9993 196.791 53.2955 197.155 53.2955Z" fill="#CCCCCC"/>
<path d="M96.1057 80.9008C96.5585 80.9008 96.9255 80.5322 96.9255 80.0775C96.9255 79.6228 96.5585 79.2542 96.1057 79.2542C95.6529 79.2542 95.2859 79.6228 95.2859 80.0775C95.2859 80.5322 95.6529 80.9008 96.1057 80.9008Z" fill="#CCCCCC"/>
<path d="M112.665 92.429C113.155 92.429 113.553 92.0298 113.553 91.5373C113.553 91.0449 113.155 90.6457 112.665 90.6457C112.175 90.6457 111.777 91.0449 111.777 91.5373C111.777 92.0298 112.175 92.429 112.665 92.429Z" fill="#CCCCCC"/>
<path d="M138.474 1.75956H136.722V0H135.782V1.75956H134.029V2.70435H135.782V4.46392H136.722V2.70435H138.474V1.75956Z" fill="#CCCCCC"/>
<path d="M179.115 96.9683H178.015V95.8635H177.424V96.9683H176.324V97.5611H177.424V98.6659H178.015V97.5611H179.115V96.9683Z" fill="#CCCCCC"/>
<path d="M204.507 91.313H203.684V90.4871H203.243V91.313H202.42V91.7566H203.243V92.5825H203.684V91.7566H204.507V91.313Z" fill="#CCCCCC"/>
<path opacity="0.1" d="M149.263 31.8624C150.953 31.8624 152.324 30.4858 152.324 28.7878C152.324 27.0897 150.953 25.7132 149.263 25.7132C147.572 25.7132 146.201 27.0897 146.201 28.7878C146.201 30.4858 147.572 31.8624 149.263 31.8624Z" fill="black"/>
<path opacity="0.1" d="M125.745 54.3628C127.436 54.3628 128.807 52.9863 128.807 51.2882C128.807 49.5902 127.436 48.2136 125.745 48.2136C124.055 48.2136 122.684 49.5902 122.684 51.2882C122.684 52.9863 124.055 54.3628 125.745 54.3628Z" fill="black"/>
<path opacity="0.1" d="M159.56 85.2484C161.251 85.2484 162.622 83.8719 162.622 82.1738C162.622 80.4758 161.251 79.0992 159.56 79.0992C157.869 79.0992 156.499 80.4758 156.499 82.1738C156.499 83.8719 157.869 85.2484 159.56 85.2484Z" fill="black"/>
<path opacity="0.1" d="M149.263 59.1144C150.953 59.1144 152.324 57.7379 152.324 56.0399C152.324 54.3418 150.953 52.9653 149.263 52.9653C147.572 52.9653 146.201 54.3418 146.201 56.0399C146.201 57.7379 147.572 59.1144 149.263 59.1144Z" fill="black"/>
<path opacity="0.1" d="M127.276 76.0247C128.967 76.0247 130.338 74.6481 130.338 72.9501C130.338 71.252 128.967 69.8755 127.276 69.8755C125.585 69.8755 124.215 71.252 124.215 72.9501C124.215 74.6481 125.585 76.0247 127.276 76.0247Z" fill="black"/>
<path opacity="0.1" d="M165.683 42.6235C167.374 42.6235 168.744 41.2469 168.744 39.5489C168.744 37.8508 167.374 36.4743 165.683 36.4743C163.992 36.4743 162.622 37.8508 162.622 39.5489C162.622 41.2469 163.992 42.6235 165.683 42.6235Z" fill="black"/>
<path opacity="0.1" d="M175.841 63.4468C177.532 63.4468 178.903 62.0703 178.903 60.3723C178.903 58.6742 177.532 57.2977 175.841 57.2977C174.15 57.2977 172.78 58.6742 172.78 60.3723C172.78 62.0703 174.15 63.4468 175.841 63.4468Z" fill="black"/>
<path d="M149.263 46.6763C151.491 46.6763 153.298 44.8618 153.298 42.6235C153.298 40.3851 151.491 38.5706 149.263 38.5706C147.034 38.5706 145.227 40.3851 145.227 42.6235C145.227 44.8618 147.034 46.6763 149.263 46.6763Z" fill="white"/>
<path d="M149.263 36.7538C147.75 36.7538 146.298 37.3575 145.228 38.432C144.158 39.5066 143.557 40.964 143.557 42.4837C143.557 45.6482 149.263 56.0398 149.263 56.0398C149.263 56.0398 154.968 45.6482 154.968 42.4837C154.968 40.964 154.367 39.5066 153.297 38.432C152.227 37.3575 150.776 36.7538 149.263 36.7538ZM149.263 45.2788C148.74 45.2788 148.229 45.123 147.794 44.8313C147.359 44.5395 147.02 44.1248 146.82 43.6396C146.62 43.1544 146.568 42.6205 146.67 42.1054C146.772 41.5903 147.023 41.1172 147.393 40.7458C147.763 40.3745 148.234 40.1216 148.747 40.0191C149.26 39.9167 149.791 39.9693 150.274 40.1702C150.758 40.3712 151.171 40.7116 151.461 41.1482C151.752 41.5849 151.907 42.0983 151.907 42.6234C151.907 42.9721 151.838 43.3174 151.705 43.6396C151.573 43.9618 151.378 44.2545 151.132 44.501C150.887 44.7476 150.595 44.9432 150.274 45.0766C149.954 45.2101 149.61 45.2788 149.263 45.2788Z" fill="#CCCCCC"/>
<path d="M127.276 64.0058C129.505 64.0058 131.312 62.1913 131.312 59.9529C131.312 57.7146 129.505 55.9001 127.276 55.9001C125.047 55.9001 123.241 57.7146 123.241 59.9529C123.241 62.1913 125.047 64.0058 127.276 64.0058Z" fill="white"/>
<path d="M127.276 54.0833C125.763 54.0833 124.312 54.687 123.242 55.7616C122.172 56.8361 121.571 58.2936 121.571 59.8132C121.571 62.9778 127.276 73.3693 127.276 73.3693C127.276 73.3693 132.981 62.9778 132.981 59.8132C132.981 59.0608 132.834 58.3157 132.547 57.6205C132.26 56.9253 131.84 56.2936 131.31 55.7616C130.781 55.2295 130.152 54.8074 129.459 54.5195C128.767 54.2315 128.025 54.0833 127.276 54.0833ZM127.276 62.6083C126.753 62.6083 126.242 62.4526 125.807 62.1608C125.372 61.869 125.034 61.4543 124.833 60.9691C124.633 60.4839 124.581 59.95 124.683 59.4349C124.785 58.9199 125.037 58.4467 125.407 58.0754C125.776 57.704 126.247 57.4511 126.76 57.3487C127.273 57.2462 127.805 57.2988 128.288 57.4998C128.771 57.7007 129.184 58.0411 129.475 58.4778C129.765 58.9144 129.92 59.4278 129.92 59.953C129.92 60.3017 129.852 60.647 129.719 60.9691C129.586 61.2913 129.391 61.584 129.146 61.8306C128.9 62.0771 128.609 62.2727 128.288 62.4062C127.967 62.5396 127.623 62.6083 127.276 62.6083Z" fill="#CCCCCC"/>
<path d="M175.841 51.428C178.07 51.428 179.877 49.6135 179.877 47.3751C179.877 45.1368 178.07 43.3223 175.841 43.3223C173.612 43.3223 171.806 45.1368 171.806 47.3751C171.806 49.6135 173.612 51.428 175.841 51.428Z" fill="white"/>
<path d="M175.841 41.5054C175.092 41.5054 174.35 41.6536 173.658 41.9416C172.966 42.2296 172.337 42.6516 171.807 43.1837C171.277 43.7158 170.857 44.3474 170.57 45.0426C170.284 45.7378 170.136 46.4829 170.136 47.2354C170.136 50.3999 175.841 60.7915 175.841 60.7915C175.841 60.7915 181.547 50.3999 181.547 47.2354C181.547 46.4829 181.399 45.7378 181.112 45.0426C180.826 44.3474 180.405 43.7158 179.876 43.1837C179.346 42.6516 178.717 42.2296 178.025 41.9416C177.332 41.6536 176.591 41.5054 175.841 41.5054ZM175.841 50.0304C175.318 50.0304 174.807 49.8747 174.372 49.5829C173.938 49.2911 173.599 48.8764 173.399 48.3912C173.199 47.906 173.146 47.3721 173.248 46.8571C173.35 46.342 173.602 45.8688 173.972 45.4975C174.342 45.1261 174.813 44.8732 175.326 44.7708C175.838 44.6683 176.37 44.7209 176.853 44.9219C177.336 45.1229 177.749 45.4632 178.04 45.8999C178.33 46.3365 178.485 46.8499 178.485 47.3751C178.485 47.7238 178.417 48.0691 178.284 48.3912C178.151 48.7134 177.956 49.0061 177.711 49.2527C177.465 49.4993 177.174 49.6949 176.853 49.8283C176.532 49.9617 176.189 50.0304 175.841 50.0304Z" fill="#CCCCCC"/>
<path d="M149.263 19.4243C151.491 19.4243 153.298 17.6098 153.298 15.3715C153.298 13.1331 151.491 11.3186 149.263 11.3186C147.034 11.3186 145.227 13.1331 145.227 15.3715C145.227 17.6098 147.034 19.4243 149.263 19.4243Z" fill="white"/>
<path d="M149.263 9.50177C147.75 9.50177 146.298 10.1055 145.228 11.18C144.158 12.2546 143.557 13.712 143.557 15.2317C143.557 18.3962 149.263 28.7878 149.263 28.7878C149.263 28.7878 154.968 18.3962 154.968 15.2317C154.968 13.712 154.367 12.2546 153.297 11.18C152.227 10.1055 150.776 9.50177 149.263 9.50177ZM149.263 18.0268C148.74 18.0268 148.229 17.871 147.794 17.5793C147.359 17.2875 147.02 16.8728 146.82 16.3876C146.62 15.9024 146.568 15.3685 146.67 14.8534C146.772 14.3383 147.023 13.8652 147.393 13.4938C147.763 13.1225 148.234 12.8696 148.747 12.7671C149.26 12.6647 149.791 12.7172 150.274 12.9182C150.758 13.1192 151.171 13.4595 151.461 13.8962C151.752 14.3329 151.907 14.8463 151.907 15.3714C151.907 15.7201 151.838 16.0654 151.705 16.3876C151.573 16.7097 151.378 17.0025 151.132 17.249C150.887 17.4956 150.595 17.6912 150.274 17.8246C149.954 17.9581 149.61 18.0268 149.263 18.0268Z" fill="#CCCCCC"/>
<path d="M159.56 73.2296C161.789 73.2296 163.596 71.415 163.596 69.1767C163.596 66.9384 161.789 65.1238 159.56 65.1238C157.331 65.1238 155.525 66.9384 155.525 69.1767C155.525 71.415 157.331 73.2296 159.56 73.2296Z" fill="white"/>
<path d="M159.56 63.3071C158.047 63.3071 156.596 63.9107 155.526 64.9853C154.456 66.0599 153.855 67.5173 153.855 69.037C153.855 72.2015 159.56 82.5931 159.56 82.5931C159.56 82.5931 165.265 72.2015 165.265 69.037C165.265 68.2845 165.118 67.5394 164.831 66.8442C164.544 66.149 164.124 65.5174 163.594 64.9853C163.065 64.4532 162.436 64.0312 161.743 63.7432C161.051 63.4553 160.309 63.3071 159.56 63.3071ZM159.56 71.8321C159.037 71.8321 158.526 71.6763 158.091 71.3845C157.656 71.0928 157.317 70.6781 157.117 70.1929C156.917 69.7077 156.865 69.1738 156.967 68.6587C157.069 68.1436 157.321 67.6705 157.691 67.2991C158.06 66.9278 158.531 66.6749 159.044 66.5724C159.557 66.47 160.089 66.5225 160.572 66.7235C161.055 66.9245 161.468 67.2648 161.758 67.7015C162.049 68.1382 162.204 68.6515 162.204 69.1767C162.204 69.5254 162.136 69.8707 162.003 70.1929C161.87 70.515 161.675 70.8078 161.43 71.0543C161.184 71.3009 160.893 71.4965 160.572 71.6299C160.251 71.7634 159.907 71.8321 159.56 71.8321Z" fill="#3F3D56"/>
<path d="M125.745 42.0645C127.974 42.0645 129.781 40.2499 129.781 38.0116C129.781 35.7733 127.974 33.9587 125.745 33.9587C123.517 33.9587 121.71 35.7733 121.71 38.0116C121.71 40.2499 123.517 42.0645 125.745 42.0645Z" fill="white"/>
<path d="M125.746 32.1419C124.232 32.1419 122.781 32.7456 121.711 33.8202C120.641 34.8947 120.04 36.3521 120.04 37.8718C120.04 41.0364 125.746 51.4279 125.746 51.4279C125.746 51.4279 131.451 41.0364 131.451 37.8718C131.451 36.3521 130.85 34.8947 129.78 33.8202C128.71 32.7456 127.259 32.1419 125.746 32.1419ZM125.746 40.6669C125.223 40.6669 124.712 40.5112 124.277 40.2194C123.842 39.9276 123.503 39.5129 123.303 39.0277C123.103 38.5425 123.05 38.0086 123.152 37.4935C123.254 36.9785 123.506 36.5053 123.876 36.134C124.246 35.7626 124.717 35.5097 125.23 35.4073C125.743 35.3048 126.274 35.3574 126.757 35.5584C127.241 35.7593 127.653 36.0997 127.944 36.5363C128.235 36.973 128.39 37.4864 128.39 38.0116C128.39 38.3603 128.321 38.7056 128.188 39.0277C128.055 39.3499 127.861 39.6426 127.615 39.8892C127.37 40.1357 127.078 40.3313 126.757 40.4648C126.437 40.5982 126.093 40.6669 125.746 40.6669Z" fill="#3F3D56"/>
<path d="M165.683 30.7444C167.912 30.7444 169.718 28.9299 169.718 26.6915C169.718 24.4532 167.912 22.6387 165.683 22.6387C163.454 22.6387 161.647 24.4532 161.647 26.6915C161.647 28.9299 163.454 30.7444 165.683 30.7444Z" fill="white"/>
<path d="M165.683 20.8219C164.17 20.8219 162.719 21.4256 161.649 22.5001C160.579 23.5747 159.978 25.0321 159.978 26.5518C159.978 29.7163 165.683 40.1079 165.683 40.1079C165.683 40.1079 171.388 29.7163 171.388 26.5518C171.388 25.0321 170.787 23.5747 169.717 22.5001C168.647 21.4256 167.196 20.8219 165.683 20.8219ZM165.683 29.3469C165.16 29.3469 164.649 29.1912 164.214 28.8994C163.779 28.6076 163.44 28.1929 163.24 27.7077C163.04 27.2225 162.988 26.6886 163.09 26.1735C163.192 25.6584 163.444 25.1853 163.813 24.814C164.183 24.4426 164.654 24.1897 165.167 24.0872C165.68 23.9848 166.212 24.0374 166.695 24.2384C167.178 24.4393 167.591 24.7797 167.881 25.2163C168.172 25.653 168.327 26.1664 168.327 26.6916C168.327 27.3958 168.048 28.0712 167.552 28.5692C167.057 29.0671 166.384 29.3469 165.683 29.3469V29.3469Z" fill="#3F3D56"/>
<path d="M49.7952 150.858L53.0071 150.491L53.1297 137.876L48.3894 138.416L49.7952 150.858Z" fill="#FFB8B8"/>
<path d="M59.5398 152.781L49.4456 153.931L49.003 150.014L55.1972 149.309C56.2316 149.191 57.2702 149.49 58.0846 150.141C58.899 150.793 59.4224 151.742 59.5398 152.781Z" fill="#2F2E41"/>
<path d="M16.764 150.656L19.9964 150.656L21.5341 138.134L16.7634 138.135L16.764 150.656Z" fill="#FFB8B8"/>
<path d="M26.2305 153.67L16.0715 153.671L16.0713 149.729L22.3052 149.728C23.3462 149.728 24.3446 150.144 25.0807 150.883C25.8168 151.622 26.2304 152.625 26.2305 153.67Z" fill="#2F2E41"/>
<path d="M39.9559 94.6606L41.8015 100.69L51.8206 122.464L54.4572 143.118L48.393 143.383L44.7018 124.318L32.0461 110.548L20.9724 146.56L15.9629 146.031C15.9629 146.031 20.1814 99.4269 25.982 94.6606C25.982 94.6606 35.4737 90.1591 39.9559 94.6606Z" fill="#2F2E41"/>
<path d="M31.769 68.6455C35.3454 68.6455 38.2447 65.7337 38.2447 62.1418C38.2447 58.55 35.3454 55.6382 31.769 55.6382C28.1925 55.6382 25.2932 58.55 25.2932 62.1418C25.2932 65.7337 28.1925 68.6455 31.769 68.6455Z" fill="#FFB8B8"/>
<path d="M40.6151 95.8521C40.6151 95.8521 41.4061 68.843 30.3324 70.6966C19.2587 72.5501 23.8727 98.6325 23.8727 98.6325C23.8727 98.6325 26.2457 103.399 32.0462 98.1029C37.8467 92.807 40.6151 95.8521 40.6151 95.8521Z" fill="#CCCCCC"/>
<path opacity="0.2" d="M25.323 82.0828L27.9287 92.114L31.8987 96.1013L26.3776 94.2633L25.323 82.0828Z" fill="black"/>
<path d="M40.6969 107.275C40.3325 107.142 40.0015 106.931 39.7272 106.656C39.4529 106.381 39.242 106.049 39.1094 105.683C38.9767 105.317 38.9256 104.927 38.9594 104.539C38.9933 104.151 39.1115 103.775 39.3055 103.439L33.1467 96.2776L38.0019 95.6429L43.106 102.54C43.6481 102.905 44.038 103.457 44.2019 104.092C44.3658 104.726 44.2923 105.399 43.9954 105.982C43.6984 106.566 43.1986 107.02 42.5907 107.258C41.9827 107.496 41.3089 107.502 40.6969 107.275Z" fill="#FFB8B8"/>
<path d="M33.1984 76.1979L33.8918 89.8943L42.0653 100.486L38.6377 103.134L27.564 92.0126C27.564 92.0126 23.6091 78.5081 26.5093 74.5361C27.5969 73.0467 28.7958 72.6371 29.8694 72.7069C30.7529 72.7807 31.5789 73.1764 32.192 73.8194C32.8052 74.4624 33.1631 75.3083 33.1984 76.1979Z" fill="#CCCCCC"/>
<path d="M30.9987 68.9755C31.0297 68.9476 31.0537 68.9129 31.069 68.8741C31.0842 68.8353 31.0902 68.7935 31.0866 68.7519C31.0829 68.7104 31.0696 68.6703 31.0478 68.6348C31.026 68.5993 30.9963 68.5693 30.961 68.5474C30.3859 68.1897 29.9174 67.6831 29.6046 67.0808C29.2919 66.4785 29.1464 65.8027 29.1835 65.1244C29.2207 64.4461 29.439 63.7904 29.8156 63.2261C30.1922 62.6618 30.7132 62.2098 31.3238 61.9176C33.2277 61.0059 35.8076 61.7152 37.2151 59.9633C37.5013 59.5885 37.7037 59.1561 37.8085 58.6956C37.9132 58.2351 37.9179 57.7574 37.8222 57.2949C37.5185 55.6403 36.2799 54.4115 34.8928 53.5694C33.1889 52.5349 31.2306 52.0004 29.2397 52.0264C27.2488 52.0524 25.3049 52.6379 23.6284 53.7165C21.9518 54.7952 20.6096 56.3238 19.7538 58.1293C18.8979 59.9348 18.5627 61.9449 18.7861 63.932C18.9652 65.5245 19.4544 67.3102 18.5116 68.6031C17.6817 69.7411 16.1154 69.9544 14.7395 70.2372C11.7883 70.8436 8.94115 72.2427 6.93843 74.5026C4.9357 76.7624 3.8673 79.933 4.47113 82.8969C5.07496 85.8608 7.49743 88.4656 10.4748 88.925C12.8983 89.2989 15.4007 88.2653 17.1803 86.5714C18.96 84.8776 20.0849 82.5902 20.7945 80.2331C21.6366 77.4354 21.9688 74.4207 23.4893 71.9286C24.9772 69.4899 28.1835 67.7418 30.6964 69.0118C30.7446 69.0371 30.7992 69.0471 30.8532 69.0406C30.9071 69.0342 30.9579 69.0114 30.9987 68.9755Z" fill="#2F2E41"/>
<path d="M81.2072 154H0.26366C0.193733 154 0.12667 153.972 0.0772239 153.922C0.0277781 153.873 0 153.805 0 153.735C0 153.665 0.0277781 153.598 0.0772239 153.548C0.12667 153.498 0.193733 153.47 0.26366 153.47H81.2072C81.2771 153.47 81.3442 153.498 81.3936 153.548C81.443 153.598 81.4708 153.665 81.4708 153.735C81.4708 153.805 81.443 153.873 81.3936 153.922C81.3442 153.972 81.2771 154 81.2072 154Z" fill="#3F3D56"/>
</g>
<defs>
<clipPath id="clip0">
<rect width="213" height="154" fill="white"/>
</clipPath>
</defs>
</svg>
