<svg width="65" height="64" viewBox="0 0 65 64" fill="none" xmlns="http://www.w3.org/2000/svg">
<path d="M52.8292 14.9208C48.2932 10.385 42.5082 7.55297 36.25 6.74272V3.74999C36.25 1.68224 34.5677 0 32.5 0C30.4323 0 28.75 1.68224 28.75 3.74999V6.7441C24.4765 7.3021 20.3873 8.81147 16.7573 11.192C16.1801 11.5705 16.0189 12.3455 16.3976 12.9227C16.7761 13.4999 17.5509 13.6609 18.1283 13.2824C21.7274 10.9222 25.8217 9.49959 30.0896 9.10984C30.1096 9.10846 30.1296 9.10696 30.1494 9.10459C30.9279 9.03534 31.712 8.99996 32.5 8.99996C46.9742 8.99996 58.7499 20.7757 58.7499 35.2499C58.7499 49.7241 46.9742 61.4998 32.5 61.4998C18.0258 61.4998 6.25011 49.7241 6.25011 35.2499C6.25011 30.1205 7.7311 25.1507 10.5331 20.8773C10.9116 20.2999 10.7505 19.525 10.1732 19.1466C9.59585 18.7682 8.8211 18.9292 8.44248 19.5064C5.37274 24.1882 3.75024 29.6321 3.75024 35.2499C3.75024 42.9292 6.74073 50.1489 12.1708 55.5792C17.6009 61.0093 24.8207 63.9997 32.5 63.9997C40.1794 63.9997 47.3991 61.0093 52.8292 55.5792C58.2594 50.1491 61.2499 42.9292 61.2499 35.2499C61.2499 27.5705 58.2594 20.351 52.8292 14.9208ZM31.2499 6.52822V3.74999C31.2499 3.06074 31.8106 2.49999 32.4999 2.49999C33.1891 2.49999 33.7499 3.06074 33.7499 3.74999V6.52847C33.3346 6.51085 32.918 6.50022 32.4999 6.50022C32.0821 6.50022 31.6655 6.51035 31.2499 6.52822Z" fill="black"/>
<path d="M32.4999 59.0001C45.5957 59.0001 56.2498 48.346 56.2498 35.2502C56.2498 22.1543 45.5957 11.5002 32.4999 11.5002C19.4042 11.5002 8.75 22.1545 8.75 35.2502C8.75 48.3459 19.4042 59.0001 32.4999 59.0001ZM32.4999 14.0001C44.2172 14.0001 53.7498 23.5328 53.7498 35.25C53.7498 46.9672 44.2171 56.5 32.4999 56.5C20.7827 56.5 11.25 46.9672 11.25 35.25C11.2501 23.5328 20.7828 14.0001 32.4999 14.0001Z" fill="black"/>
<path d="M17.6948 36.5001H28.1562L29.2479 38.1498C29.3405 38.2898 29.4604 38.4096 29.6004 38.5023L31.25 39.5941V50.0555C31.25 50.7458 31.8096 51.3055 32.5 51.3055C33.1903 51.3055 33.75 50.7458 33.75 50.0555V41.2486L42.6702 47.1526C42.8811 47.2921 43.121 47.3602 43.3598 47.3602C43.6825 47.3602 44.0026 47.2356 44.2441 46.9941C44.6642 46.5739 44.7306 45.9159 44.4026 45.4204L38.4986 36.5001H47.3055C47.9957 36.5001 48.5554 35.9405 48.5554 35.2501C48.5554 34.5598 47.9957 34.0001 47.3055 34.0001H36.844L35.7522 32.3505C35.6596 32.2105 35.5397 32.0907 35.3999 31.998L33.7503 30.9062V20.4448C33.7503 19.7544 33.1905 19.1948 32.5003 19.1948C31.8099 19.1948 31.2503 19.7544 31.2503 20.4448V29.2515L22.33 23.3476C21.8344 23.0196 21.1764 23.0858 20.7562 23.5061C20.3359 23.9263 20.2697 24.5843 20.5977 25.0798L26.5017 34.0001H17.6949C17.0046 34.0001 16.4449 34.5598 16.4449 35.2501C16.4449 35.9405 17.0044 36.5001 17.6948 36.5001ZM33.8078 33.9424L38.9271 41.6772L31.1923 36.5579L26.0729 28.823L33.8078 33.9424Z" fill="#F65868"/>
<path d="M13.055 17.0547C13.355 17.0547 13.656 16.9473 13.8955 16.7296L13.8961 16.729C14.4068 16.2646 14.4442 15.4743 13.9798 14.9635C13.5157 14.4527 12.7246 14.4152 12.2138 14.8797C11.7031 15.3441 11.6653 16.1347 12.1297 16.6455C12.3765 16.917 12.7151 17.0547 13.055 17.0547Z" fill="black"/>
</svg>
