<svg width="146" height="174" viewBox="0 0 146 174" fill="none" xmlns="http://www.w3.org/2000/svg">
<g clip-path="url(#clip0)">
<path d="M145.915 172.67H88.6465V172.202H146L145.915 172.67Z" fill="#3F3D56"/>
<path d="M111.95 163.491H108.839V170.165H111.95V163.491Z" fill="#FBBEBE"/>
<path d="M136.169 163.713H133.058V170.387H136.169V163.713Z" fill="#FBBEBE"/>
<path d="M136.502 166.939L132.725 166.494L122.948 121.332L112.283 166.717L108.506 166.272C107.882 145.736 109.704 125.192 111.283 108.094L133.836 106.203C138.085 123.051 138.26 144.019 136.502 166.939Z" fill="#2F2E41"/>
<path d="M134.157 108.875C134.157 108.875 128.904 114.364 131.873 115.736C134.842 117.108 136.669 109.561 136.669 109.561L134.157 108.875Z" fill="#FBBEBE"/>
<path d="M107.271 109.32C107.271 109.32 102.018 114.808 104.987 116.181C107.956 117.553 109.783 110.006 109.783 110.006L107.271 109.32Z" fill="#FBBEBE"/>
<path d="M123.282 69.6062C126.718 69.6062 129.503 66.8173 129.503 63.3769C129.503 59.9366 126.718 57.1476 123.282 57.1476C119.846 57.1476 117.06 59.9366 117.06 63.3769C117.06 66.8173 119.846 69.6062 123.282 69.6062Z" fill="#FBBEBE"/>
<path d="M130.503 76.3918L119.393 77.5041C120.42 72.8755 120.669 68.5511 119.393 64.8231H127.17C126.748 67.9296 128.327 72.0147 130.503 76.3918Z" fill="#FBBEBE"/>
<path d="M133.614 108.651C129.463 113.65 120.739 111.979 110.728 108.428C113.569 99.1435 113.128 89.348 110.575 79.2236C110.436 78.6795 110.494 78.1036 110.738 77.5978C110.981 77.092 111.396 76.6888 111.908 76.4596L120.06 72.8321L123.171 73.4995L128.503 72.1647L136.073 73.715C136.689 73.8411 137.239 74.1839 137.624 74.6812C138.008 75.1785 138.202 75.7974 138.171 76.4257C137.537 88.8524 136.417 100.353 133.614 108.651Z" fill="#E6E6E6"/>
<path d="M135.836 112.655L133.836 109.318L137.613 95.0796L135.614 73.722C136.903 73.8512 138.119 74.3877 139.084 75.254C140.05 76.1203 140.715 77.2716 140.984 78.5413L144.018 92.8614C144.475 95.02 144.201 97.2697 143.238 99.2546L135.836 112.655Z" fill="#E6E6E6"/>
<path d="M109.839 110.208L105.284 110.987L108.188 82.5179C108.216 81.0973 108.662 79.7164 109.469 78.5478C110.276 77.3791 111.41 76.4745 112.727 75.9468L114.172 94.7459L109.839 110.208Z" fill="#E6E6E6"/>
<path d="M110.767 172.497L102.383 173.972C102.002 174.039 101.61 173.986 101.261 173.821C100.984 173.69 100.744 173.493 100.561 173.248C100.378 173.002 100.258 172.716 100.211 172.413C100.165 172.11 100.193 171.801 100.294 171.511C100.395 171.222 100.565 170.962 100.79 170.754L104.381 167.427L105.318 165.789C105.581 165.314 105.957 164.912 106.412 164.617C106.867 164.322 107.388 164.144 107.928 164.098C109.529 163.987 110.057 165.207 109.723 167.498C110.939 168.393 111.131 168.256 111.95 167.05L112.321 170.827C112.279 171.237 112.104 171.622 111.824 171.923C111.543 172.224 111.172 172.426 110.767 172.497Z" fill="#2F2E41"/>
<path d="M134.986 172.497L126.602 173.972C126.222 174.039 125.83 173.986 125.48 173.821C125.204 173.69 124.963 173.493 124.78 173.248C124.597 173.002 124.477 172.716 124.431 172.413C124.384 172.11 124.413 171.801 124.514 171.511C124.614 171.222 124.785 170.962 125.009 170.754L128.601 167.427L129.537 165.789C129.8 165.314 130.176 164.912 130.631 164.617C131.087 164.322 131.607 164.144 132.147 164.098C133.748 163.987 134.277 165.207 133.942 167.498C135.158 168.393 135.351 168.256 136.169 167.05L136.541 170.827C136.498 171.237 136.324 171.622 136.043 171.923C135.763 172.224 135.392 172.426 134.986 172.497Z" fill="#2F2E41"/>
<path d="M118.342 59.8276C121.146 58.2212 123.955 59.2475 126.767 63.6307L127.343 68.2998C131.564 64.2953 131.351 58.8303 126.616 56.6076C126.151 56.389 125.7 56.1405 125.193 56.2283C124.192 55.6903 123.024 55.5551 121.927 55.8503C120.829 56.1454 119.886 56.8487 119.289 57.8165C118.414 57.9682 117.16 59.7082 117.205 60.5959L118.342 59.8276Z" fill="#2F2E41"/>
<path d="M126.504 64.7118C126.933 64.7118 127.281 64.2636 127.281 63.7107C127.281 63.1578 126.933 62.7095 126.504 62.7095C126.074 62.7095 125.726 63.1578 125.726 63.7107C125.726 64.2636 126.074 64.7118 126.504 64.7118Z" fill="#FBBEBE"/>
<path d="M33.6418 111.238H46.5885C46.5885 112.595 46.0501 113.896 45.0917 114.856C44.1333 115.815 42.8334 116.354 41.478 116.354H38.7524C37.397 116.354 36.0971 115.815 35.1387 114.856C34.1803 113.896 33.6418 112.595 33.6418 111.238H33.6418Z" fill="#3F3D56"/>
<path d="M49.6134 99.7812V95.0261C49.6134 89.2803 55.8546 83.8456 59.9033 79.9682C65.6102 74.5057 68.6101 67.167 68.6101 58.5701C68.61 51.017 65.6187 43.7721 60.292 38.4239C54.9652 33.0756 47.7377 30.0605 40.1941 30.0395C32.6505 30.0185 25.4063 32.9933 20.0499 38.3118C14.6935 43.6303 11.662 50.8584 11.62 58.4114C11.6198 58.4643 11.6198 58.5172 11.62 58.5701C11.62 66.8599 14.7485 74.6959 20.3268 79.9682C24.3537 83.7742 30.6167 89.2208 30.6167 95.0261V99.7812" fill="#5375E2"/>
<path d="M49.6134 100.449C49.5259 100.449 49.4392 100.431 49.3583 100.398C49.2775 100.364 49.204 100.315 49.1421 100.253C49.0802 100.191 49.0311 100.118 48.9976 100.037C48.9641 99.9556 48.9468 99.8688 48.9469 99.7811V95.026C48.9469 89.4363 54.4527 84.2181 58.473 80.408C58.8066 80.0917 59.131 79.7843 59.4425 79.486C65.0039 74.1626 67.9435 66.9301 67.9435 58.5702C67.9435 42.9458 55.7198 30.7068 40.1151 30.7068C40.0889 30.7067 40.0627 30.7067 40.0365 30.7067C32.6928 30.7149 25.6511 33.6342 20.451 38.8261C15.2509 44.0181 12.3155 51.0604 12.2866 58.4133V58.5687C12.2866 66.7562 15.3839 74.3786 20.7844 79.4829C21.058 79.7416 21.3422 80.008 21.6339 80.2813C25.7061 84.0988 31.2833 89.3268 31.2833 95.0259V99.7811C31.2833 99.9581 31.2131 100.128 31.0881 100.253C30.963 100.378 30.7935 100.449 30.6167 100.449C30.4399 100.449 30.2704 100.378 30.1454 100.253C30.0203 100.128 29.9501 99.9581 29.9501 99.7811V95.0259C29.9501 89.9058 24.6168 84.9064 20.7228 81.2557C20.4296 80.9811 20.1442 80.7135 19.8692 80.4536C14.2031 75.0981 10.9534 67.1219 10.9534 58.5701V58.41C10.9981 42.3818 24.0374 29.3718 40.0346 29.3718C40.063 29.3718 40.0886 29.3718 40.1169 29.3719C43.952 29.352 47.7529 30.0936 51.2999 31.5539C54.8468 33.0142 58.0694 35.1642 60.7811 37.8795C63.4928 40.5948 65.6399 43.8216 67.0982 47.373C68.5564 50.9245 69.2968 54.7303 69.2767 58.5701C69.2767 67.3034 66.1946 74.8696 60.3639 80.4508C60.0509 80.7504 59.7248 81.0596 59.3894 81.3774C55.545 85.0209 50.28 90.0107 50.28 95.0259V99.7811C50.28 99.8688 50.2628 99.9556 50.2293 100.037C50.1958 100.118 50.1467 100.191 50.0848 100.253C50.0229 100.315 49.9494 100.364 49.8685 100.398C49.7877 100.431 49.701 100.449 49.6134 100.449Z" fill="#3F3D56"/>
<path d="M46.4471 109.013H33.7826C33.488 109.013 33.2054 108.896 32.997 108.687C32.7887 108.478 32.6716 108.195 32.6716 107.9C32.6716 107.605 32.7887 107.322 32.997 107.114C33.2054 106.905 33.488 106.788 33.7826 106.788H46.4471C46.7417 106.788 47.0243 106.905 47.2327 107.114C47.441 107.322 47.5581 107.605 47.5581 107.9C47.5581 108.195 47.441 108.478 47.2327 108.687C47.0243 108.896 46.7417 109.013 46.4471 109.013Z" fill="#5375E2"/>
<path d="M10.6512 32.3491C10.3826 32.3494 10.1231 32.2519 9.92106 32.0747L0.380157 23.736C0.270095 23.64 0.180011 23.5232 0.115057 23.3923C0.0501031 23.2614 0.0115521 23.119 0.00160559 22.9732C-0.00834094 22.8274 0.0105101 22.681 0.057087 22.5425C0.103664 22.404 0.177051 22.276 0.273052 22.1659C0.369053 22.0558 0.485787 21.9657 0.61658 21.9008C0.747373 21.8358 0.889658 21.7974 1.03531 21.7875C1.18096 21.7777 1.32711 21.7967 1.46542 21.8435C1.60373 21.8903 1.73147 21.9639 1.84135 22.0601L11.3823 30.3988C11.5526 30.5477 11.6736 30.7452 11.7289 30.9647C11.7842 31.1843 11.7712 31.4156 11.6918 31.6276C11.6123 31.8396 11.4701 32.0223 11.2842 32.1512C11.0982 32.2802 10.8774 32.3492 10.6512 32.3491H10.6512Z" fill="#E6E6E6"/>
<path d="M67.9956 32.3492C67.7695 32.3492 67.5487 32.2802 67.3627 32.1513C67.1768 32.0223 67.0346 31.8396 66.9551 31.6276C66.8756 31.4156 66.8627 31.1844 66.918 30.9648C66.9733 30.7452 67.0942 30.5477 67.2646 30.3988L76.8054 22.0601C77.0274 21.8664 77.3171 21.7689 77.6109 21.789C77.9047 21.8091 78.1785 21.9452 78.3721 22.1673C78.5658 22.3894 78.6635 22.6794 78.6437 22.9736C78.6239 23.2677 78.4883 23.542 78.2666 23.7361L68.7258 32.0748C68.5237 32.2519 68.2642 32.3495 67.9956 32.3492Z" fill="#E6E6E6"/>
<path d="M49.6133 105.064H30.6166C30.3219 105.064 30.0394 104.947 29.831 104.739C29.6227 104.53 29.5056 104.247 29.5056 103.952C29.5056 103.657 29.6227 103.374 29.831 103.166C30.0394 102.957 30.3219 102.84 30.6166 102.84H49.6133C49.908 102.84 50.1906 102.957 50.3989 103.166C50.6073 103.374 50.7243 103.657 50.7243 103.952C50.7243 104.247 50.6073 104.53 50.3989 104.739C50.1906 104.947 49.908 105.064 49.6133 105.064Z" fill="#5375E2"/>
<path d="M40.1149 100.893C39.969 100.893 39.8245 100.865 39.6897 100.809C39.5549 100.753 39.4325 100.671 39.3293 100.568C39.2261 100.464 39.1443 100.342 39.0885 100.207C39.0326 100.072 39.0039 99.9272 39.0039 99.7811V74.4205C39.0039 74.1255 39.121 73.8425 39.3293 73.6339C39.5377 73.4253 39.8202 73.3081 40.1149 73.3081C40.4095 73.3081 40.6921 73.4253 40.9005 73.6339C41.1088 73.8425 41.2259 74.1255 41.2259 74.4205V99.7811C41.2259 99.9272 41.1971 100.072 41.1413 100.207C41.0855 100.342 41.0036 100.464 40.9005 100.568C40.7973 100.671 40.6748 100.753 40.54 100.809C40.4053 100.865 40.2608 100.893 40.1149 100.893Z" fill="white"/>
<path d="M40.1152 75.5329C36.5255 75.5329 32.1183 72.2814 31.9325 72.143C31.8154 72.0558 31.7167 71.9464 31.6419 71.821C31.567 71.6956 31.5176 71.5566 31.4964 71.4121C31.4752 71.2676 31.4827 71.1203 31.5183 70.9786C31.554 70.837 31.6171 70.7037 31.7042 70.5865C31.7913 70.4693 31.9006 70.3705 32.0258 70.2955C32.1511 70.2206 32.2899 70.1711 32.4342 70.1499C32.5785 70.1287 32.7257 70.1361 32.8671 70.1718C33.0086 70.2075 33.1417 70.2708 33.2587 70.358C34.3629 71.1782 37.7482 73.3082 40.1152 73.3082C42.4821 73.3082 45.8674 71.1783 46.9721 70.3575C47.0892 70.2704 47.2223 70.2072 47.3638 70.1715C47.5053 70.1359 47.6524 70.1285 47.7967 70.1497C47.9411 70.171 48.0798 70.2205 48.205 70.2955C48.3303 70.3704 48.4395 70.4694 48.5266 70.5866C48.6136 70.7038 48.6768 70.8371 48.7124 70.9787C48.748 71.1204 48.7554 71.2677 48.7341 71.4122C48.7129 71.5568 48.6634 71.6957 48.5886 71.8211C48.5137 71.9465 48.4149 72.0558 48.2978 72.143C48.112 72.2814 43.7048 75.5329 40.1152 75.5329Z" fill="white"/>
<path d="M40.1149 21.2453C39.8202 21.2453 39.5377 21.1281 39.3293 20.9195C39.121 20.7108 39.0039 20.4279 39.0039 20.1329V1.11238C39.0039 0.817355 39.121 0.534418 39.3293 0.325807C39.5377 0.117196 39.8202 0 40.1149 0C40.4095 0 40.6921 0.117196 40.9005 0.325807C41.1088 0.534418 41.2259 0.817355 41.2259 1.11238V20.1329C41.2259 20.4279 41.1088 20.7108 40.9005 20.9195C40.6921 21.1281 40.4095 21.2453 40.1149 21.2453Z" fill="#E6E6E6"/>
</g>
<defs>
<clipPath id="clip0">
<rect width="146" height="174" fill="white"/>
</clipPath>
</defs>
</svg>
