<svg width="232" height="163" viewBox="0 0 232 163" fill="none" xmlns="http://www.w3.org/2000/svg">
<g clip-path="url(#clip0)">
<path d="M134.87 158.44C133.154 159.671 131.293 160.686 129.33 161.463C128.815 161.669 128.298 161.86 127.772 162.035H100.934C100.826 161.846 100.72 161.655 100.612 161.463C98.4342 157.566 96.4598 153.518 95.8998 149.115C95.2284 143.829 97.1114 137.843 101.766 135.246C102.376 134.906 103.021 134.636 103.692 134.44C103.969 134.355 104.252 134.286 104.537 134.226C106.282 133.839 108.098 133.923 109.8 134.471C111.501 135.018 113.026 136.009 114.217 137.341C115.409 138.673 116.224 140.298 116.579 142.049C116.934 143.801 116.816 145.615 116.238 147.306C120.184 143.26 119.446 136.7 118.086 131.218C116.723 125.735 115.072 119.632 117.846 114.706C119.386 111.966 122.098 110.266 125.138 109.58C125.232 109.56 125.327 109.54 125.418 109.523C129.043 108.789 132.811 109.449 135.97 111.372C141.787 115.035 144.773 121.986 145.742 128.792C147.305 139.746 143.847 151.969 134.87 158.44Z" fill="#F2F2F2"/>
<path d="M106.643 137.718C108.792 142.08 109.477 147.018 108.597 151.8C107.934 155.307 106.471 158.613 104.323 161.463C104.177 161.657 104.029 161.849 103.877 162.035H102.817C102.98 161.849 103.14 161.657 103.291 161.463C105.242 159.033 106.657 156.217 107.442 153.201C108.227 150.185 108.365 147.036 107.846 143.963C107.23 140.506 105.807 137.243 103.691 134.44C103.969 134.355 104.251 134.286 104.537 134.226C105.342 135.325 106.046 136.493 106.643 137.718Z" fill="white"/>
<path d="M132.318 140.88C132.089 143.296 131.508 145.666 130.595 147.915C129.754 149.905 128.619 151.757 127.229 153.412C124.392 156.826 120.638 159.395 116.561 161.103C116.263 161.229 115.963 161.349 115.66 161.463C115.135 161.669 114.603 161.858 114.069 162.035H111.175C111.857 161.863 112.537 161.672 113.209 161.463C114.805 160.966 116.363 160.352 117.869 159.626C121.697 157.812 125.021 155.085 127.549 151.686C130.261 147.943 131.458 143.443 131.664 138.869C131.881 133.975 131.244 128.992 130.127 124.229C128.987 119.347 127.253 114.623 124.964 110.163C124.912 110.062 124.902 109.945 124.934 109.837C124.967 109.729 125.04 109.637 125.138 109.58C125.22 109.526 125.321 109.505 125.418 109.523C125.466 109.535 125.51 109.558 125.547 109.59C125.585 109.622 125.615 109.661 125.635 109.706C125.918 110.258 126.195 110.809 126.461 111.366C128.68 116.011 130.314 120.913 131.327 125.96C132.307 130.829 132.832 135.923 132.318 140.88Z" fill="white"/>
<path d="M12.968 80.8918C10.5945 80.8918 8.27435 80.188 6.30089 78.8695C4.32743 77.5509 2.7893 75.6767 1.88101 73.484C0.972726 71.2913 0.735081 68.8785 1.19812 66.5507C1.66116 64.223 2.80409 62.0848 4.48238 60.4065C6.16068 58.7283 8.29895 57.5854 10.6268 57.1224C12.9547 56.6594 15.3676 56.897 17.5604 57.8053C19.7532 58.7135 21.6274 60.2516 22.946 62.225C24.2646 64.1984 24.9684 66.5185 24.9684 68.8918C24.9648 72.0733 23.6993 75.1235 21.4496 77.3731C19.1999 79.6228 16.1496 80.8882 12.968 80.8918ZM12.968 57.4633C10.7075 57.4633 8.49786 58.1335 6.61837 59.3893C4.73888 60.6451 3.274 62.43 2.40896 64.5183C1.54393 66.6066 1.3176 68.9045 1.75859 71.1214C2.19958 73.3384 3.28809 75.3747 4.88646 76.9731C6.48483 78.5714 8.52129 79.6598 10.7383 80.1008C12.9553 80.5418 15.2533 80.3155 17.3417 79.4505C19.43 78.5855 21.215 77.1206 22.4708 75.2412C23.7267 73.3618 24.397 71.1522 24.397 68.8918C24.3936 65.8618 23.1883 62.9569 21.0457 60.8144C18.9031 58.6719 15.9981 57.4667 12.968 57.4633Z" fill="#3F3D56"/>
<path d="M61.5412 42.3204C59.1678 42.3204 56.8476 41.6166 54.8741 40.298C52.9007 38.9794 51.3625 37.1053 50.4543 34.9126C49.546 32.7199 49.3083 30.3071 49.7714 27.9793C50.2344 25.6515 51.3773 23.5133 53.0556 21.8351C54.7339 20.1569 56.8722 19.014 59.2001 18.551C61.5279 18.0879 63.9408 18.3256 66.1336 19.2338C68.3264 20.1421 70.2006 21.6801 71.5192 23.6535C72.8379 25.6269 73.5417 27.947 73.5417 30.3204C73.5381 33.5019 72.2726 36.552 70.0228 38.8017C67.7731 41.0513 64.7228 42.3168 61.5412 42.3204ZM61.5412 18.8918C59.2808 18.8918 57.0711 19.5621 55.1916 20.8179C53.3121 22.0737 51.8472 23.8586 50.9822 25.9469C50.1172 28.0351 49.8908 30.3331 50.3318 32.55C50.7728 34.7669 51.8613 36.8033 53.4597 38.4016C55.0581 39.9999 57.0945 41.0884 59.3115 41.5294C61.5286 41.9703 63.8265 41.744 65.9149 40.879C68.0033 40.014 69.7883 38.5492 71.0441 36.6698C72.2999 34.7903 72.9702 32.5807 72.9702 30.3204C72.9668 27.2904 71.7616 24.3855 69.619 22.2429C67.4764 20.1004 64.5713 18.8952 61.5412 18.8918Z" fill="#3F3D56"/>
<path d="M113.543 24.0347C111.17 24.0347 108.85 23.3309 106.876 22.0123C104.903 20.6937 103.365 18.8196 102.456 16.6269C101.548 14.4342 101.31 12.0214 101.773 9.69359C102.236 7.36582 103.379 5.22762 105.058 3.54939C106.736 1.87116 108.874 0.728272 111.202 0.26525C113.53 -0.197773 115.943 0.0398682 118.136 0.94812C120.328 1.85637 122.203 3.39444 123.521 5.36783C124.84 7.34122 125.544 9.6613 125.544 12.0347C125.54 15.2162 124.275 18.2663 122.025 20.516C119.775 22.7656 116.725 24.0311 113.543 24.0347ZM113.543 0.606101C111.283 0.606101 109.073 1.27637 107.194 2.53216C105.314 3.78795 103.849 5.57285 102.984 7.66115C102.119 9.74944 101.893 12.0474 102.334 14.2643C102.775 16.4812 103.863 18.5176 105.462 20.1159C107.06 21.7142 109.097 22.8027 111.314 23.2436C113.531 23.6846 115.829 23.4583 117.917 22.5933C120.005 21.7283 121.79 20.2635 123.046 18.384C124.302 16.5046 124.972 14.295 124.972 12.0347C124.969 9.00468 123.764 6.09976 121.621 3.95723C119.478 1.8147 116.573 0.609519 113.543 0.606101Z" fill="#3F3D56"/>
<path d="M168.974 42.8918C166.6 42.8918 164.28 42.188 162.307 40.8695C160.333 39.5509 158.795 37.6767 157.887 35.484C156.979 33.2913 156.741 30.8785 157.204 28.5507C157.667 26.223 158.81 24.0848 160.488 22.4065C162.167 20.7283 164.305 19.5854 166.633 19.1224C168.961 18.6594 171.373 18.897 173.566 19.8053C175.759 20.7135 177.633 22.2516 178.952 24.225C180.27 26.1984 180.974 28.5184 180.974 30.8918C180.971 34.0733 179.705 37.1235 177.455 39.3731C175.206 41.6228 172.155 42.8882 168.974 42.8918ZM168.974 19.4632C166.713 19.4632 164.504 20.1335 162.624 21.3893C160.745 22.6451 159.28 24.43 158.415 26.5183C157.55 28.6066 157.323 30.9045 157.764 33.1214C158.205 35.3384 159.294 37.3747 160.892 38.973C162.491 40.5714 164.527 41.6598 166.744 42.1008C168.961 42.5418 171.259 42.3154 173.348 41.4504C175.436 40.5854 177.221 39.1206 178.477 37.2412C179.733 35.3618 180.403 33.1522 180.403 30.8918C180.399 27.8618 179.194 24.9569 177.052 22.8144C174.909 20.6718 172.004 19.4667 168.974 19.4632Z" fill="#3F3D56"/>
<path d="M219.833 71.749C217.46 71.749 215.139 71.0452 213.166 69.7266C211.192 68.408 209.654 66.5339 208.746 64.3411C207.838 62.1484 207.6 59.7356 208.063 57.4079C208.526 55.0801 209.669 52.9419 211.347 51.2637C213.026 49.5854 215.164 48.4425 217.492 47.9795C219.82 47.5165 222.233 47.7541 224.425 48.6624C226.618 49.5706 228.492 51.1087 229.811 53.0821C231.13 55.0555 231.833 57.3756 231.833 59.7489C231.83 62.9304 230.564 65.9806 228.315 68.2302C226.065 70.4799 223.015 71.7453 219.833 71.749ZM219.833 48.3204C217.573 48.3204 215.363 48.9906 213.483 50.2464C211.604 51.5022 210.139 53.2871 209.274 55.3754C208.409 57.4637 208.183 59.7616 208.624 61.9786C209.065 64.1955 210.153 66.2319 211.751 67.8302C213.35 69.4285 215.386 70.517 217.603 70.9579C219.82 71.3989 222.118 71.1726 224.207 70.3076C226.295 69.4426 228.08 67.9777 229.336 66.0983C230.592 64.2189 231.262 62.0093 231.262 59.7489C231.259 56.7189 230.053 53.814 227.911 51.6715C225.768 49.529 222.863 48.3238 219.833 48.3204Z" fill="#3F3D56"/>
<path d="M68.3986 27.034L69.8273 26.7483C69.8273 26.7483 68.6272 28.0912 68.3986 28.1769C68.3773 28.4622 68.3773 28.7487 68.3986 29.034C65.6557 40.8055 55.541 35.6055 55.541 35.6055C59.2269 35.6912 59.5412 34.1769 59.5412 34.1769C57.3982 33.8626 56.9696 32.4626 56.9696 32.4626C57.1619 32.564 57.3848 32.5909 57.5957 32.5382C57.8066 32.4855 57.9906 32.3568 58.1125 32.1769C55.7982 31.5769 56.1125 29.3197 56.1125 29.3197C56.525 29.6176 57.0071 29.8045 57.5125 29.8626C57.2554 29.5483 55.0839 26.9483 56.3982 25.6055C56.3982 25.6055 57.9982 28.4626 62.1984 28.7197L62.4841 28.6626C62.4356 28.4568 62.4163 28.2452 62.427 28.034C62.427 27.2384 62.7431 26.4753 63.3057 25.9127C63.8683 25.3501 64.6314 25.034 65.4271 25.034C67.4272 25.034 67.8558 26.1769 67.8558 26.1769L69.2844 25.3197C69.2558 25.3197 69.113 26.7483 68.3986 27.034Z" fill="#3F3D56"/>
<path d="M159.639 154.216L162.785 155.757L170.228 144.359L165.586 142.084L159.639 154.216Z" fill="#FFB8B8"/>
<path d="M159.34 152.795L165.535 155.832L165.535 155.832C166.053 156.086 166.516 156.44 166.898 156.873C167.28 157.306 167.572 157.81 167.759 158.356C167.946 158.902 168.024 159.48 167.987 160.056C167.951 160.632 167.801 161.196 167.547 161.714L167.484 161.842L157.342 156.871L159.34 152.795Z" fill="#2F2E41"/>
<path d="M190.81 159.59L194.313 159.59L195.979 146.079H190.809L190.81 159.59Z" fill="#FFB8B8"/>
<path d="M189.916 157.303L196.815 157.303H196.815C197.392 157.303 197.964 157.417 198.498 157.638C199.031 157.859 199.516 158.182 199.924 158.591C200.332 158.999 200.656 159.483 200.877 160.017C201.098 160.55 201.211 161.122 201.211 161.699V161.842L189.917 161.842L189.916 157.303Z" fill="#2F2E41"/>
<path d="M183.286 66.3459C187.161 66.3459 190.303 63.2041 190.303 59.3284C190.303 55.4528 187.161 52.311 183.286 52.311C179.41 52.311 176.268 55.4528 176.268 59.3284C176.268 63.2041 179.41 66.3459 183.286 66.3459Z" fill="#FFB8B8"/>
<path d="M190.274 155.133C189.943 155.133 189.625 155.005 189.386 154.776C189.147 154.547 189.005 154.235 188.991 153.904L186.278 117.801C186.275 117.706 186.241 117.615 186.181 117.542C186.12 117.469 186.038 117.418 185.945 117.397C185.853 117.376 185.756 117.386 185.67 117.425C185.584 117.465 185.514 117.532 185.47 117.616L168.118 150.742C167.96 151.039 167.693 151.263 167.373 151.367C167.053 151.47 166.705 151.444 166.404 151.296L161.566 148.877C161.263 148.724 161.032 148.458 160.924 148.136C160.815 147.814 160.839 147.463 160.988 147.158L171.343 126.178L178.201 110.462C180.848 105.248 183.659 102.561 186.794 102.247C190.011 101.926 193.446 104.138 197.298 109.009L197.33 109.049L197.329 109.1L196.757 153.202C196.758 153.522 196.639 153.831 196.423 154.068C196.207 154.305 195.911 154.452 195.592 154.48L190.4 155.127C190.357 155.132 190.316 155.134 190.274 155.133Z" fill="#2F2E41"/>
<path d="M175.879 113C176.261 112.764 176.586 112.448 176.833 112.073C177.079 111.698 177.24 111.273 177.305 110.829C177.369 110.385 177.336 109.932 177.206 109.503C177.077 109.073 176.855 108.677 176.556 108.342L177.614 80.3836L172.471 81.0245L172.037 108.224C171.508 108.764 171.196 109.479 171.159 110.233C171.122 110.988 171.363 111.73 171.837 112.318C172.31 112.907 172.983 113.302 173.728 113.427C174.473 113.553 175.238 113.401 175.879 113Z" fill="#FFB8B8"/>
<path d="M179.132 85.3266L172.226 84.5418C172.029 84.5195 171.84 84.4551 171.67 84.3529C171.501 84.2508 171.356 84.1134 171.244 83.95C171.133 83.7867 171.058 83.6012 171.024 83.4062C170.991 83.2113 171 83.0115 171.051 82.8204L172.834 76.1239C172.954 75.1192 173.468 74.2031 174.262 73.5765C175.056 72.9498 176.067 72.6637 177.072 72.7809C178.077 72.8981 178.995 73.409 179.624 74.2016C180.252 74.9943 180.541 76.0039 180.427 77.0093L180.663 83.9126C180.67 84.1102 180.634 84.307 180.558 84.4895C180.481 84.672 180.367 84.8359 180.221 84.9701C180.076 85.1043 179.904 85.2056 179.716 85.2672C179.528 85.3287 179.329 85.349 179.132 85.3266V85.3266Z" fill="#5375E2"/>
<path d="M208.884 67.7267C208.849 67.8808 208.826 68.0375 208.815 68.1953L196.541 75.2758L193.558 73.5584L190.377 77.7219L195.363 81.2755C195.766 81.5626 196.251 81.7113 196.746 81.6992C197.24 81.6872 197.718 81.5151 198.106 81.2087L210.763 71.2242C211.334 71.4356 211.956 71.4681 212.546 71.3174C213.136 71.1667 213.666 70.8399 214.066 70.3805C214.466 69.9211 214.716 69.3509 214.784 68.7456C214.852 68.1404 214.734 67.5288 214.446 66.9923C214.158 66.4557 213.713 66.0197 213.171 65.742C212.629 65.4644 212.015 65.3584 211.411 65.4382C210.807 65.5179 210.242 65.7795 209.791 66.1883C209.339 66.5971 209.023 67.1337 208.884 67.7267Z" fill="#FFB8B8"/>
<path d="M196.131 75.6112L192.164 80.7523C192.051 80.8986 191.908 81.0188 191.745 81.1048C191.581 81.1908 191.401 81.2406 191.216 81.2507C191.032 81.2608 190.847 81.231 190.675 81.1634C190.503 81.0957 190.348 80.9919 190.22 80.8588L185.729 76.1956C184.983 75.6141 184.499 74.7605 184.382 73.8221C184.264 72.8838 184.524 71.9372 185.104 71.1902C185.684 70.4432 186.537 69.9567 187.475 69.8375C188.413 69.7183 189.36 69.9762 190.108 70.5544L195.741 73.7038C195.902 73.794 196.042 73.9179 196.151 74.0671C196.26 74.2162 196.336 74.3871 196.373 74.5681C196.41 74.7491 196.407 74.936 196.366 75.116C196.324 75.296 196.244 75.4649 196.131 75.6112H196.131Z" fill="#5375E2"/>
<path d="M199.367 111.196L191.751 74.1016C191.389 72.3386 190.358 70.7844 188.874 69.7658C187.39 68.7472 185.569 68.3434 183.794 68.6393L181.254 69.0626C180.372 69.2096 179.527 69.529 178.768 70.0025C178.009 70.476 177.351 71.0943 176.831 71.8222C176.005 72.9786 175.449 74.3054 175.203 75.7052C174.957 77.1049 175.028 78.5419 175.41 79.9107L179.614 94.955L176.494 111.073C176.459 111.251 176.468 111.436 176.519 111.611C176.57 111.786 176.662 111.946 176.787 112.078C176.913 112.21 177.068 112.31 177.24 112.37C177.412 112.429 177.596 112.447 177.776 112.421C179.338 112.198 181.912 111.879 184.869 111.705L186.471 105.526L187.123 111.607C190.755 111.505 194.698 111.683 197.951 112.528C198.139 112.579 198.337 112.58 198.526 112.532C198.715 112.485 198.888 112.39 199.03 112.256C199.172 112.123 199.277 111.955 199.336 111.77C199.395 111.584 199.406 111.386 199.367 111.196Z" fill="#5375E2"/>
<path d="M185.986 57.7671C187.79 59.0016 190.158 60.2705 192 58.9559C193.21 58.0928 193.591 56.4944 193.1 55.0917C192.218 52.5692 189.795 51.4587 187.477 50.6075C184.464 49.5009 181.184 48.6206 178.074 49.4131C174.963 50.2056 172.215 53.2168 172.776 56.3768C173.228 58.918 175.625 61.0325 175.284 63.5909C174.942 66.1658 172.046 67.5212 169.489 67.9814C166.933 68.4416 164.072 68.5894 162.235 70.4257C159.891 72.7682 160.476 76.9552 162.682 79.4285C164.887 81.9017 168.215 83.0228 171.44 83.7849C175.713 84.7947 180.335 85.3254 184.393 83.6495C188.451 81.9737 191.609 77.4626 190.433 73.2325C189.937 71.4457 188.767 69.9356 187.636 68.4655C186.506 66.9953 185.361 65.458 184.93 63.6543C184.571 62.1513 184.837 60.4062 185.833 59.2787C186.015 59.0813 186.129 58.8316 186.159 58.5654C186.19 58.2991 186.135 58.0301 186.003 57.7968L185.986 57.7671Z" fill="#2F2E41"/>
<path d="M116.812 6.09831C117.611 6.10069 118.377 6.41929 118.942 6.98452C119.507 7.54975 119.826 8.31567 119.828 9.11502V15.1478C119.826 15.9472 119.507 16.7131 118.942 17.2783C118.377 17.8435 117.611 18.1621 116.812 18.1645H110.779C109.979 18.1621 109.213 17.8435 108.648 17.2783C108.083 16.7131 107.764 15.9472 107.762 15.1478V9.11502C107.764 8.31567 108.083 7.54975 108.648 6.98452C109.213 6.41929 109.979 6.10069 110.779 6.09831H116.812ZM116.812 4.89182H110.779C109.66 4.89507 108.587 5.34106 107.796 6.13236C107.005 6.92366 106.559 7.99596 106.555 9.11502V15.1478C106.559 16.2669 107.005 17.3392 107.796 18.1305C108.587 18.9218 109.66 19.3678 110.779 19.371H116.812C117.931 19.3678 119.003 18.9218 119.794 18.1305C120.586 17.3392 121.032 16.2669 121.035 15.1478V9.11502C121.032 7.99596 120.586 6.92366 119.794 6.13236C119.003 5.34106 117.931 4.89507 116.812 4.89182Z" fill="#3F3D56"/>
<path d="M117.717 9.11504C117.477 9.11452 117.248 9.01902 117.079 8.84952C116.91 8.68002 116.815 8.45038 116.816 8.21106C116.816 7.97173 116.911 7.7423 117.08 7.57316C117.25 7.40402 117.479 7.30902 117.719 7.30902C117.958 7.30902 118.187 7.40402 118.357 7.57316C118.526 7.7423 118.621 7.97173 118.622 8.21106C118.622 8.45038 118.527 8.68002 118.358 8.84952C118.189 9.01902 117.96 9.11452 117.721 9.11504C117.719 9.11504 117.718 9.11504 117.717 9.11504Z" fill="#3F3D56"/>
<path d="M113.795 9.71809C114.273 9.71809 114.739 9.85963 115.136 10.1248C115.533 10.39 115.842 10.7669 116.025 11.2079C116.208 11.6488 116.255 12.1341 116.162 12.6022C116.069 13.0703 115.839 13.5004 115.502 13.8379C115.164 14.1754 114.734 14.4052 114.266 14.4983C113.798 14.5914 113.313 14.5437 112.872 14.361C112.431 14.1783 112.054 13.869 111.789 13.4722C111.523 13.0753 111.382 12.6087 111.382 12.1314C111.382 11.4913 111.636 10.8775 112.089 10.4249C112.541 9.97234 113.155 9.71809 113.795 9.71809ZM113.795 8.5116C113.079 8.51159 112.379 8.72389 111.784 9.12163C111.189 9.51938 110.725 10.0847 110.451 10.7462C110.177 11.4076 110.105 12.1354 110.245 12.8376C110.385 13.5397 110.729 14.1847 111.236 14.691C111.742 15.1972 112.387 15.542 113.089 15.6816C113.791 15.8213 114.519 15.7496 115.181 15.4757C115.842 15.2017 116.407 14.7377 116.805 14.1424C117.203 13.5472 117.415 12.8473 117.415 12.1314C117.415 11.1714 117.034 10.2507 116.355 9.57182C115.676 8.89297 114.755 8.5116 113.795 8.5116V8.5116Z" fill="#3F3D56"/>
<path d="M47.4545 158.243L44.0449 157.44L45.5207 143.907L50.5529 145.093L47.4545 158.243Z" fill="#FFB8B8"/>
<path d="M47.5454 161.753L36.5515 159.163L36.5843 159.024C36.7166 158.462 36.9584 157.932 37.2957 157.463C37.6331 156.995 38.0594 156.597 38.5504 156.294C39.0413 155.99 39.5873 155.786 40.1571 155.693C40.727 155.6 41.3095 155.621 41.8714 155.753L41.8717 155.753L48.5863 157.335L47.5454 161.753Z" fill="#2F2E41"/>
<path d="M60.7412 158.358H57.2382L55.5719 144.847L60.7418 144.847L60.7412 158.358Z" fill="#FFB8B8"/>
<path d="M61.6347 161.753L50.3398 161.753V161.61C50.3398 161.033 50.4535 160.461 50.6745 159.928C50.8954 159.394 51.2192 158.91 51.6275 158.502C52.0357 158.093 52.5204 157.77 53.0537 157.549C53.5871 157.328 54.1588 157.214 54.7361 157.214H54.7364L61.6349 157.214L61.6347 161.753Z" fill="#2F2E41"/>
<path d="M79.6603 104.925C79.8949 104.542 80.0428 104.113 80.0936 103.667C80.1444 103.221 80.0969 102.77 79.9543 102.344C79.8117 101.919 79.5775 101.53 79.2683 101.205C78.9591 100.88 78.5823 100.626 78.1646 100.462L67.9087 74.4558L62.2026 77.9195L74.0781 102.394C73.8494 103.114 73.8927 103.893 74.1999 104.583C74.5072 105.273 75.0569 105.827 75.745 106.139C76.433 106.451 77.2117 106.499 77.9333 106.276C78.6549 106.052 79.2694 105.571 79.6603 104.925Z" fill="#FFB8B8"/>
<path d="M70.0883 78.7567L63.5695 81.1696C63.3841 81.2383 63.186 81.2662 62.9887 81.2514C62.7915 81.2365 62.5998 81.1794 62.4267 81.0838C62.2535 80.9883 62.103 80.8565 61.9854 80.6975C61.8677 80.5385 61.7858 80.356 61.745 80.1625L60.3177 73.3814C59.9719 72.4305 60.0172 71.3813 60.4438 70.4638C60.8704 69.5463 61.6434 68.8353 62.5934 68.4869C63.5434 68.1384 64.5927 68.1808 65.5115 68.6048C66.4302 69.0288 67.1433 69.7998 67.4945 70.7487L70.8173 76.8044C70.9124 76.9778 70.969 77.1696 70.9833 77.3669C70.9975 77.5642 70.9691 77.7622 70.8999 77.9474C70.8307 78.1327 70.7224 78.3009 70.5823 78.4405C70.4423 78.5802 70.2738 78.688 70.0883 78.7567V78.7567Z" fill="#5375E2"/>
<path d="M60.5086 153.508C60.4915 153.508 60.4743 153.507 60.4571 153.507L55.4919 153.308C55.1564 153.297 54.8388 153.154 54.6079 152.91C54.377 152.666 54.2512 152.341 54.2577 152.006L54.6386 124.577C54.6402 124.467 54.5992 124.36 54.5241 124.279C54.449 124.198 54.3457 124.15 54.2355 124.143C54.1254 124.137 54.017 124.173 53.9328 124.244C53.8487 124.316 53.7953 124.417 53.7838 124.526L50.9035 151.985C50.8736 152.265 50.7531 152.527 50.5604 152.731C50.3677 152.936 50.1134 153.072 49.8362 153.119L49.8189 153.122L45.1577 152.756C44.974 152.784 44.7864 152.772 44.6078 152.72C44.4292 152.669 44.2639 152.579 44.1233 152.457C43.9827 152.336 43.8701 152.185 43.7933 152.016C43.7165 151.847 43.6773 151.663 43.6784 151.477L43.957 104.969L66.8296 106.416L61.7866 152.362C61.7511 152.677 61.6013 152.967 61.3657 153.178C61.13 153.389 60.825 153.507 60.5086 153.508Z" fill="#2F2E41"/>
<path d="M56.3279 64.3689C60.2036 64.3689 63.3456 61.2271 63.3456 57.3515C63.3456 53.4759 60.2036 50.3341 56.3279 50.3341C52.4521 50.3341 49.3102 53.4759 49.3102 57.3515C49.3102 61.2271 52.4521 64.3689 56.3279 64.3689Z" fill="#FFB8B8"/>
<path d="M65.6924 108.464C65.6601 108.464 65.6278 108.463 65.5953 108.461L44.4563 106.914C44.1277 106.89 43.8208 106.741 43.599 106.497C43.3773 106.254 43.2575 105.934 43.2646 105.605L43.8219 79.0607C43.7846 77.432 44.08 75.8128 44.6901 74.3022C45.3002 72.7917 46.2121 71.4214 47.3701 70.2755C48.528 69.1295 49.9077 68.2319 51.4245 67.6375C52.9414 67.0431 54.5636 66.7646 56.1919 66.8188C57.8202 66.873 59.4203 67.259 60.8942 67.9529C62.3682 68.6469 63.6851 69.6344 64.7642 70.8549C65.8433 72.0754 66.662 73.5032 67.1702 75.0511C67.6784 76.5989 67.8654 78.2341 67.7198 79.8567C67.3501 83.9477 67.0561 101.82 66.9748 107.2C66.9696 107.536 66.8323 107.858 66.5924 108.094C66.3525 108.331 66.0293 108.464 65.6924 108.464Z" fill="#5375E2"/>
<path d="M28.0209 65.2323C28.056 65.3864 28.0788 65.5431 28.0893 65.7009L40.3633 72.7815L43.3467 71.0641L46.5271 75.2276L41.5411 78.7812C41.1383 79.0682 40.6532 79.2169 40.1587 79.2049C39.6643 79.1928 39.187 79.0207 38.7987 78.7143L26.142 68.7298C25.5709 68.9412 24.9488 68.9738 24.3587 68.8231C23.7686 68.6724 23.2383 68.3456 22.8384 67.8861C22.4386 67.4267 22.1881 66.8565 22.1202 66.2512C22.0524 65.646 22.1704 65.0344 22.4586 64.4979C22.7469 63.9613 23.1916 63.5253 23.7337 63.2477C24.2759 62.97 24.8896 62.8641 25.4935 62.9438C26.0973 63.0235 26.6625 63.2852 27.114 63.694C27.5655 64.1028 27.8818 64.6393 28.0209 65.2323Z" fill="#FFB8B8"/>
<path d="M40.5319 72.0737C40.5689 71.8927 40.6445 71.7217 40.7535 71.5726C40.8625 71.4234 41.0025 71.2996 41.1637 71.2094L46.7962 68.06C47.5446 67.4829 48.4913 67.2259 49.4288 67.3455C50.3663 67.4651 51.2182 67.9514 51.7977 68.6979C52.3773 69.4445 52.6372 70.3903 52.5206 71.3282C52.4039 72.266 51.9202 73.1194 51.1754 73.7012L46.6846 78.3644C46.5564 78.4975 46.4011 78.6014 46.2291 78.669C46.0572 78.7366 45.8727 78.7664 45.6882 78.7563C45.5037 78.7462 45.3236 78.6965 45.16 78.6105C44.9965 78.5245 44.8534 78.4042 44.7405 78.2579L40.7736 73.1168C40.6607 72.9706 40.5806 72.8017 40.5389 72.6216C40.4972 72.4416 40.4948 72.2547 40.5319 72.0737Z" fill="#5375E2"/>
<path d="M59.9544 62.9072C58.8744 62.8992 57.814 62.6176 56.8722 62.0888C55.9305 61.56 55.1381 60.8012 54.5691 59.8832C54.5073 59.7864 54.1695 59.2903 53.7784 58.7161C52.6793 57.1022 52.4216 56.7183 52.3997 56.6619C52.1023 55.8946 51.1583 55.5983 50.4187 55.4848C50.2807 55.4636 50.1408 55.4449 50.0004 55.4259C48.9588 55.2864 47.8817 55.1421 47.2912 53.9973C46.858 53.1572 46.1496 49.7362 46.6937 48.9002C47.3757 47.8517 48.6854 48.1921 49.952 48.5216C50.7624 48.732 51.6003 48.9499 52.268 48.8109C55.1621 48.2088 58.4424 47.5263 61.3394 49.2906C63.6451 50.6943 65.0319 53.3455 64.9587 56.2097C64.88 59.2853 63.5386 61.713 61.3703 62.7041L60.9189 62.8355L60.665 62.8668C60.4291 62.8937 60.1919 62.9072 59.9544 62.9072Z" fill="#2F2E41"/>
<path d="M220.253 51.9772C218.446 51.9773 216.694 52.5993 215.292 53.7385C213.889 54.8778 212.921 56.465 212.551 58.2335C212.181 60.002 212.43 61.8442 213.257 63.4505C214.085 65.0568 215.44 66.3295 217.095 67.0548C217.062 66.4495 217.108 65.8425 217.232 65.2491C217.383 64.6098 218.244 60.9598 218.244 60.9598C218.072 60.568 217.985 60.144 217.991 59.7162C217.991 58.5499 218.665 57.6787 219.508 57.6787C220.225 57.6787 220.569 58.2162 220.569 58.8591C220.569 59.5792 220.109 60.6542 219.874 61.6519C219.827 61.8367 219.824 62.0299 219.866 62.216C219.907 62.4021 219.992 62.5759 220.113 62.7232C220.234 62.8706 220.388 62.9874 220.562 63.0643C220.737 63.1412 220.927 63.176 221.117 63.1659C222.607 63.1659 223.612 61.2514 223.612 58.982C223.612 57.2571 222.449 55.9679 220.337 55.9679C217.952 55.9679 216.463 57.749 216.463 59.7373C216.439 60.298 216.624 60.8474 216.982 61.2795C217.045 61.3313 217.09 61.4018 217.11 61.4807C217.13 61.5596 217.125 61.6429 217.095 61.7186C217.056 61.8626 216.972 62.2104 216.933 62.3509C216.927 62.3934 216.91 62.4337 216.884 62.4684C216.859 62.5031 216.826 62.5313 216.787 62.5505C216.749 62.5697 216.706 62.5795 216.663 62.579C216.62 62.5785 216.578 62.5678 216.54 62.5477C215.44 62.098 214.927 60.8966 214.927 59.5406C214.927 57.3063 216.814 54.6259 220.552 54.6259C223.555 54.6259 225.533 56.8005 225.533 59.1331C225.533 62.221 223.815 64.5255 221.286 64.5255C220.436 64.5255 219.638 64.0653 219.364 63.5453C219.364 63.5453 218.908 65.358 218.809 65.7093C218.628 66.3062 218.361 66.874 218.019 67.3955C219.101 67.7152 220.24 67.7984 221.357 67.6394C222.474 67.4805 223.544 67.0831 224.495 66.4742C225.445 65.8654 226.253 65.0593 226.864 64.1107C227.476 63.1621 227.876 62.0931 228.038 60.9762C228.199 59.8594 228.119 58.7208 227.802 57.6376C227.485 56.5545 226.939 55.5522 226.201 54.6987C225.463 53.8452 224.549 53.1604 223.523 52.6908C222.497 52.2212 221.382 51.9779 220.253 51.9772Z" fill="#3F3D56"/>
<path d="M175.939 26.168L165.817 23.0541C165.689 23.0078 165.553 22.9872 165.417 22.9936C165.281 22.9999 165.147 23.0332 165.024 23.0913C164.901 23.1494 164.79 23.2313 164.698 23.3323C164.607 23.4333 164.536 23.5514 164.49 23.6798L161.37 33.8235C161.293 34.0986 161.324 34.3927 161.457 34.6453C161.591 34.8979 161.816 35.0898 162.086 35.1816L172.205 38.2945C172.474 38.366 172.761 38.3284 173.003 38.1899C173.245 38.0514 173.423 37.8232 173.497 37.5546L176.618 27.4109C176.659 27.2847 176.674 27.1515 176.662 27.0194C176.65 26.8873 176.611 26.7591 176.547 26.6427C176.483 26.5263 176.397 26.4241 176.292 26.3425C176.187 26.2609 176.067 26.2015 175.939 26.168ZM165.43 34.0007L163.693 33.4662L165.355 28.0643L167.092 28.5988L165.43 34.0007ZM166.536 27.5288L166.524 27.5249C166.274 27.4464 166.066 27.2721 165.945 27.0404C165.824 26.8086 165.799 26.5383 165.877 26.2886C165.955 26.0388 166.128 25.8301 166.36 25.7081C166.591 25.5861 166.861 25.5608 167.111 25.6377C167.361 25.7146 167.571 25.8874 167.693 26.1184C167.816 26.3493 167.842 26.6195 167.766 26.8697C167.69 27.12 167.518 27.3298 167.287 27.4534C167.057 27.5769 166.787 27.604 166.536 27.5288ZM171.78 35.9542L170.043 35.4197L170.951 32.466C171.169 31.7584 171.065 31.1972 170.436 31.0038C170.239 30.9448 170.029 30.9485 169.834 31.0143C169.639 31.0801 169.469 31.2047 169.348 31.371C169.26 31.494 169.195 31.6324 169.157 31.7791L168.21 34.8559L166.473 34.3214L168.135 28.9196L169.872 29.4541L169.641 30.2058C169.883 29.9809 170.182 29.8254 170.505 29.7557C170.828 29.6859 171.164 29.7046 171.478 29.8097C172.618 30.1605 173.25 31.1777 172.751 32.7984L171.78 35.9542Z" fill="#3F3D56"/>
<path fill-rule="evenodd" clip-rule="evenodd" d="M20.813 68.9389C20.8127 67.4398 20.3829 65.9722 19.5744 64.7098C18.766 63.4474 17.6127 62.443 16.2511 61.8157C14.8896 61.1883 13.3768 60.9642 11.8918 61.1699C10.4068 61.3756 9.0119 62.0024 7.87212 62.9762C6.73234 63.95 5.89546 65.2299 5.46055 66.6645C5.02563 68.0992 5.0109 69.6284 5.4181 71.0711C5.8253 72.5138 6.63737 73.8097 7.75818 74.8052C8.87898 75.8008 10.2616 76.4544 11.7423 76.6886V71.2072H9.74992V68.9389H11.7423V67.2103C11.7423 65.2446 12.9138 64.1579 14.7055 64.1579C15.2939 64.1661 15.881 64.2173 16.4619 64.3113V66.242H15.4722C14.4982 66.242 14.1935 66.8464 14.1935 67.4677V68.9392H16.3691L16.0217 71.2075H14.1935V76.6893C16.039 76.397 17.7196 75.4559 18.933 74.0351C20.1464 72.6144 20.8131 70.8073 20.813 68.9389L20.813 68.9389Z" fill="#3F3D56"/>
<path d="M231.699 161.749C231.699 161.825 231.669 161.897 231.615 161.951C231.562 162.004 231.489 162.034 231.413 162.035H1.1191C1.04332 162.035 0.970645 162.005 0.917061 161.951C0.863477 161.897 0.833374 161.825 0.833374 161.749C0.833374 161.673 0.863477 161.601 0.917061 161.547C0.970645 161.493 1.04332 161.463 1.1191 161.463H231.413C231.489 161.463 231.562 161.494 231.615 161.547C231.669 161.601 231.699 161.673 231.699 161.749Z" fill="#3F3D56"/>
</g>
<defs>
<clipPath id="clip0">
<rect width="231" height="162" fill="white" transform="translate(0.833374 0.034668)"/>
</clipPath>
</defs>
</svg>
