<svg width="65" height="65" viewBox="0 0 65 65" fill="none" xmlns="http://www.w3.org/2000/svg">
<path d="M2.0703 39.8853C2.42128 40.1285 2.79159 40.3425 3.1775 40.5253C3.63936 40.761 4.41163 41.1557 4.46603 41.433C4.53392 41.7972 4.49042 42.1734 4.34123 42.5125C4.1823 42.8538 4.01483 43.1472 3.8719 43.401C3.48043 44.0901 2.82763 45.2453 3.81323 46.0517C4.04363 46.265 4.4415 46.5733 4.80523 46.8517C4.53794 47.3184 4.41681 47.8546 4.4575 48.3909C4.51353 48.8106 4.74001 49.1888 5.08363 49.4362C5.32363 49.6069 5.5807 49.7562 5.8303 49.9002C6.4575 50.2576 6.70283 50.424 6.7903 50.7536C6.84767 51.1875 6.80758 51.6288 6.67296 52.0453C6.61003 52.3226 6.54923 52.5989 6.50976 52.8826C6.40404 53.8555 6.52751 54.8396 6.8703 55.7562C7.34902 57.4548 8.88503 58.6383 10.6495 58.6682C10.9423 58.6671 11.2343 58.6364 11.521 58.5765C14.5682 57.8543 17.571 56.9557 20.514 55.8853C22.9162 57.2954 24.4351 61.5834 24.8308 63.193C24.9494 63.6684 25.3766 64.0019 25.8666 64.0016L52.6399 63.9269C52.9792 63.9263 53.298 63.7642 53.4984 63.4905C53.6989 63.2167 53.7572 62.8639 53.6554 62.5402C53.3916 61.8176 53.0279 61.1354 52.5748 60.5136C52.3186 60.1457 52.0877 59.7608 51.8836 59.3616C51.4013 58.3833 50.9986 57.3677 50.6794 56.3248C50.0709 54.2633 49.6486 52.1513 49.4175 50.0144C49.0431 46.8231 49.5269 43.5898 50.8191 40.648C51.6076 39.0164 52.5796 37.4801 53.7162 36.0688C54.3562 35.2048 55.0207 34.3098 55.617 33.3701C56.6422 31.7775 57.3855 30.0203 57.8143 28.1754C57.937 27.606 57.5802 27.0433 57.0127 26.9117C56.4452 26.78 55.877 27.128 55.7364 27.6933C55.3614 29.3034 54.7119 30.8369 53.8164 32.2266C53.2628 33.1024 52.6228 33.9642 52.0031 34.7984C50.7688 36.3385 49.7155 38.0152 48.8639 39.7957C47.4194 43.0858 46.8795 46.7019 47.3002 50.2704C47.5461 52.5367 47.9963 54.7762 48.6452 56.9616C48.9957 58.1091 49.4384 59.2263 49.969 60.3024C50.2122 60.7831 50.4884 61.2465 50.7956 61.689L50.8671 61.7957L26.673 61.8682C25.964 59.3381 24.6785 57.0065 22.9172 55.0565L23.8772 54.7226C24.594 54.472 25.1348 54.2832 25.4143 54.1893C29.9818 52.7333 32.2666 50.6533 32.2036 48.0026C32.2007 47.7195 32.0832 47.4496 31.8781 47.2545C31.6729 47.0594 31.3975 46.9556 31.1146 46.9669C30.5258 46.9809 30.0598 47.4693 30.0735 48.0581C30.0991 49.1493 29.1999 50.7472 24.7658 52.1594C24.4756 52.2522 23.9124 52.4474 23.1754 52.7066C22.3828 52.9829 21.378 53.3349 20.2687 53.7114H20.2612C17.2615 54.8114 14.2007 55.7374 11.0943 56.4848C10.1008 56.6716 9.13499 56.0476 8.89696 55.065C8.66756 54.463 8.57748 53.8168 8.6335 53.1749C8.66443 52.9616 8.71456 52.7376 8.76363 52.52C8.99064 51.7754 9.02731 50.9858 8.8703 50.2234C8.56052 49.2467 7.84211 48.4524 6.90123 48.0464L6.6719 47.9152C6.78687 47.6816 6.9248 47.4601 7.08363 47.2538C7.26235 47.0268 7.34134 46.737 7.30254 46.4508C7.26373 46.1645 7.11046 45.9062 6.87776 45.7349C6.62283 45.5472 6.02443 45.0949 5.57643 44.7386C5.62763 44.6458 5.6831 44.5434 5.7375 44.4517C5.90496 44.1573 6.09696 43.8117 6.28256 43.4202C6.6206 42.6731 6.7197 41.8397 6.5663 41.0341C6.31136 39.7328 5.06443 39.0949 4.15456 38.6298C3.84802 38.484 3.55405 38.3131 3.27563 38.1189C3.04704 37.9658 2.83283 37.7923 2.63563 37.6005C2.63563 37.4384 2.8095 37.0469 3.62123 36.0581C5.52995 33.5988 7.16619 30.9397 8.50123 28.1274C8.75185 27.6866 8.89304 27.192 8.91296 26.6853C8.80125 25.612 8.23063 24.6396 7.34816 24.0186C6.91616 23.6218 6.50763 23.2485 6.46176 22.9338C6.47154 22.6725 6.53015 22.4152 6.63456 22.1754C6.80843 21.7189 7.01003 21.2709 7.21056 20.8218C7.66036 19.8954 8.01765 18.9268 8.27723 17.9301C8.52166 16.7347 8.84231 15.5561 9.23723 14.4016C10.078 12.0807 11.3799 9.9541 13.0644 8.14984C15.1039 5.98984 18.3146 4.46237 22.6239 3.6069C25.9202 2.88321 29.2649 2.40122 32.6314 2.16477C33.7641 2.1064 34.8995 2.13064 36.0287 2.2373C36.409 2.27274 36.7794 2.10259 37.0002 1.79095C37.2211 1.4793 37.2589 1.0735 37.0994 0.726413C36.9399 0.379325 36.6074 0.143678 36.2271 0.108237C34.9945 -0.00470025 33.7555 -0.0292964 32.5194 0.0346369C29.0489 0.275442 25.6007 0.770279 22.2026 1.51517C17.393 2.47517 13.8975 4.16157 11.5124 6.68317C9.62904 8.69653 8.17325 11.0707 7.23296 13.6624C6.80069 14.9236 6.44975 16.2112 6.1823 17.5173C5.95432 18.3549 5.6479 19.1692 5.2671 19.9493C5.05376 20.4346 4.83403 20.92 4.64203 21.4245C4.39927 21.9885 4.29961 22.6037 4.3519 23.2154C4.57255 24.1676 5.12596 25.0096 5.91243 25.5898C6.4351 26.0688 6.77963 26.4058 6.7839 26.7002C6.74507 26.8622 6.68405 27.018 6.60256 27.1632C5.32549 29.8529 3.76042 32.3961 1.93483 34.7482C1.16256 35.6901 0.351895 36.7877 0.521495 37.8864C0.748636 38.7335 1.30673 39.4538 2.0703 39.8853Z" fill="black"/>
<path d="M13.235 15.8831C13.8774 14.1023 14.873 12.4696 16.162 11.0831C17.5838 9.57804 20.0425 8.46978 23.4708 7.78818C24.0487 7.6736 24.4243 7.11222 24.3097 6.53431C24.1951 5.9564 23.6338 5.5808 23.0558 5.69538C19.1849 6.46551 16.3444 7.78391 14.6121 9.61431C13.1236 11.2119 11.9741 13.0943 11.2329 15.1482C10.8738 16.2138 10.5814 17.3007 10.3572 18.4026L12.4404 18.8644C12.6448 17.8555 12.9102 16.8599 13.235 15.8831Z" fill="black"/>
<path d="M35.5507 5.97493L34.9107 9.1664C34.2938 9.36899 33.6933 9.61861 33.1145 9.91306L30.4062 8.09973C29.56 7.54556 28.4409 7.66183 27.7267 8.37813L25.9561 10.1477C25.2257 10.8648 25.1075 11.9995 25.6745 12.8517L27.4793 15.5472C27.1848 16.126 26.9352 16.7265 26.7326 17.3435L23.5454 17.9835C22.5495 18.1846 21.8337 19.0602 21.8345 20.0763V22.5936C21.8338 23.6079 22.5473 24.4825 23.5411 24.6853L26.7326 25.3253C26.9352 25.9423 27.1848 26.5428 27.4793 27.1216L25.6659 29.8299C25.1118 30.6761 25.228 31.7951 25.9443 32.5093L27.715 34.28C28.4334 35.007 29.5656 35.1246 30.4179 34.5605L33.1134 32.7557C33.6922 33.0502 34.2927 33.2998 34.9097 33.5024L35.5497 36.6896C35.7504 37.6859 36.6261 38.4023 37.6425 38.4016H40.1598C41.1741 38.4023 42.0487 37.6887 42.2515 36.6949L42.8915 33.5035C43.5085 33.3009 44.109 33.0512 44.6878 32.7568L47.3961 34.5701C48.2423 35.1243 49.3613 35.008 50.0755 34.2917L51.8451 32.5221C52.5755 31.8051 52.6937 30.6703 52.1267 29.8181L50.3219 27.1227C50.6164 26.5439 50.866 25.9434 51.0686 25.3264L54.2558 24.6864C54.8889 24.5584 55.4294 24.1494 55.7246 23.5749L57.3321 24.6523C57.6422 24.8476 58.0012 24.9515 58.3678 24.952C58.8792 24.9521 59.3694 24.7482 59.7299 24.3856L61.1486 22.9669C61.7938 22.3185 61.8974 21.3071 61.3971 20.5413L60.0211 18.4827C60.2207 18.0815 60.3932 17.6674 60.5374 17.2432L62.9513 16.7621C63.8544 16.5847 64.5046 15.7913 64.5011 14.8709V12.8656C64.5044 11.9486 63.8588 11.1574 62.9598 10.9765L60.5353 10.4933C60.3922 10.069 60.2204 9.65488 60.0211 9.25386L61.4185 7.17066C61.9027 6.40769 61.7918 5.41075 61.1518 4.7728L59.7331 3.35413C59.0849 2.70858 58.0732 2.60493 57.3075 3.1056L55.2489 4.4816C54.8477 4.28201 54.4336 4.10953 54.0094 3.96533L53.5273 1.55147C53.3499 0.64872 52.5571 -0.0013459 51.6371 0.00159902H49.6318C48.7148 -0.00163679 47.9236 0.643976 47.7427 1.54293L47.2595 3.96746C46.8351 4.11157 46.421 4.28442 46.0201 4.4848L43.9369 3.08746C43.1737 2.6041 42.1773 2.71491 41.539 3.35413L40.579 4.31413C40.4411 4.28537 40.3007 4.27001 40.1598 4.26826H37.6425C36.6282 4.26755 35.7536 4.98112 35.5507 5.97493ZM51.8579 10.1563L51.3598 9.65813C53.2087 9.90562 54.6792 11.3313 54.9839 13.1715C55.2887 15.0118 54.3561 16.8354 52.6857 17.6656L51.0665 17.3456C50.8639 16.7286 50.6143 16.1281 50.3198 15.5493L52.1331 12.8411C52.6893 11.9951 52.5743 10.8748 51.8579 10.1595V10.1563ZM42.9299 4.97653L45.3683 6.61493C45.7103 6.84423 46.1537 6.85627 46.5075 6.64586C47.1181 6.2865 47.7748 6.01198 48.4595 5.82986C48.8508 5.72421 49.1483 5.40597 49.2275 5.00853L49.8003 2.13493H51.4686L52.0414 5.01493C52.1206 5.41237 52.4182 5.73061 52.8094 5.83626C53.4941 6.01838 54.1508 6.2929 54.7614 6.65226C55.1165 6.86076 55.5599 6.84623 55.9006 6.61493L58.339 4.97866L59.523 6.16266L57.8878 8.60213C57.6585 8.94407 57.6465 9.38745 57.8569 9.74133C58.2162 10.3519 58.4908 11.0086 58.6729 11.6933C58.7785 12.0846 59.0968 12.3821 59.4942 12.4613L62.3742 13.0341V14.7024L59.4995 15.2752C59.1021 15.3544 58.7839 15.652 58.6782 16.0432C58.4961 16.7279 58.2216 17.3846 57.8622 17.9952C57.6518 18.3491 57.6638 18.7924 57.8931 19.1344L59.5294 21.5728L58.3454 22.7568L55.9678 21.1664V20.0763C55.9679 19.4517 55.6952 18.8583 55.2211 18.4517C57.099 16.6427 57.6882 13.8735 56.7095 11.4566C55.7307 9.03973 53.3807 7.46085 50.7731 7.46826C50.1282 7.47232 49.4879 7.57741 48.8755 7.77973C48.3544 7.7038 47.8234 7.82061 47.3822 8.10826L44.6889 9.91306C44.1101 9.61861 43.5096 9.36899 42.8926 9.1664L42.2526 5.9792C42.2337 5.89373 42.2091 5.80963 42.179 5.72746L42.9299 4.97653ZM36.8745 10.2171L37.6425 6.4016H40.1598L40.9267 10.2203C41.0065 10.6166 41.3034 10.9338 41.6937 11.0395C42.575 11.277 43.4216 11.6284 44.2121 12.0848C44.5643 12.2891 45.0022 12.275 45.3406 12.0485L48.5683 9.8896L50.3561 11.6677L48.1907 14.8987C47.9642 15.2371 47.9501 15.6749 48.1545 16.0272C48.6108 16.8177 48.9622 17.6643 49.1998 18.5456C49.3055 18.9358 49.6227 19.2328 50.019 19.3125L53.8345 20.0752V22.5936L50.0158 23.3605C49.6195 23.4403 49.3023 23.7372 49.1966 24.1275C48.959 25.0088 48.6076 25.8554 48.1513 26.6459C47.9469 26.9981 47.961 27.436 48.1875 27.7744L50.3465 31.0021L48.5683 32.7899L45.3374 30.6245C44.999 30.398 44.5611 30.3839 44.2089 30.5883C43.4184 31.0446 42.5718 31.396 41.6905 31.6336C41.3002 31.7392 41.0033 32.0564 40.9235 32.4528L40.1598 36.2683H37.6425L36.8755 32.4496C36.7958 32.0532 36.4988 31.736 36.1086 31.6304C35.2273 31.3928 34.3807 31.0414 33.5902 30.5851C33.2379 30.3807 32.8001 30.3948 32.4617 30.6213L29.2339 32.7803L27.4462 31.0021L29.6115 27.7712C29.8381 27.4328 29.8521 26.9949 29.6478 26.6427C29.1915 25.8522 28.8401 25.0056 28.6025 24.1243C28.4968 23.734 28.1796 23.4371 27.7833 23.3573L23.9678 22.5936V20.0763L27.7865 19.3093C28.1828 19.2296 28.5 18.9326 28.6057 18.5424C28.8433 17.6611 29.1947 16.8145 29.651 16.024C29.8553 15.6717 29.8413 15.2339 29.6147 14.8955L27.4558 11.6677L29.2339 9.88L32.4649 12.0453C32.8033 12.2719 33.2411 12.2859 33.5934 12.0816C34.3839 11.6252 35.2305 11.2738 36.1118 11.0363C36.5004 10.9292 36.7954 10.6123 36.8745 10.2171Z" fill="#F65868"/>
<path d="M38.9012 28.8016C43.025 28.8016 46.3679 25.4587 46.3679 21.335C46.3679 17.2112 43.025 13.8683 38.9012 13.8683C34.7775 13.8683 31.4346 17.2112 31.4346 21.335C31.4393 25.4567 34.7795 28.7969 38.9012 28.8016ZM38.9012 16.0016C41.8468 16.0016 44.2346 18.3894 44.2346 21.335C44.2346 24.2805 41.8468 26.6683 38.9012 26.6683C35.9557 26.6683 33.5679 24.2805 33.5679 21.335C33.5714 18.3909 35.9572 16.0051 38.9012 16.0016Z" fill="#F65868"/>
<path d="M38.9011 22.4015C39.4902 22.4015 39.9678 21.924 39.9678 21.3349C39.9678 20.7458 39.4902 20.2682 38.9011 20.2682C38.312 20.2682 37.8345 20.7458 37.8345 21.3349C37.8345 21.924 38.312 22.4015 38.9011 22.4015Z" fill="#F65868"/>
<path d="M10.1011 23.4683C10.6902 23.4683 11.1678 22.9907 11.1678 22.4016C11.1678 21.8125 10.6902 21.335 10.1011 21.335C9.51199 21.335 9.03442 21.8125 9.03442 22.4016C9.03442 22.9907 9.51199 23.4683 10.1011 23.4683Z" fill="black"/>
</svg>
