<svg width="128" height="128" viewBox="0 0 128 128" fill="none" xmlns="http://www.w3.org/2000/svg">
<path d="M51.0564 25.709H25.5283V51.2336H51.0564V25.709Z" fill="#FEFEFE"/>
<path d="M102.114 25.709H76.585V51.2336H102.114V25.709Z" fill="#FEFEFE"/>
<path d="M51.0564 76.7607H25.5283V102.29H51.0564V76.7607Z" fill="#FEFEFE"/>
<path d="M102.114 76.7607H76.585V102.29H102.114V76.7607Z" fill="#FEFEFE"/>
<path d="M25.5285 0.182129H0V25.7087H25.5285V0.182129Z" fill="#FEFEFE"/>
<path d="M76.5847 0.182129H51.0566V25.7087H76.5847V0.182129Z" fill="#FEFEFE"/>
<path d="M25.5285 51.2334H0V76.7607H25.5285V51.2334Z" fill="#FEFEFE"/>
<path d="M128 0.182129H102.472V25.7087H128V0.182129Z" fill="#FEFEFE"/>
<path d="M128 51.2334H102.472V76.7607H128V51.2334Z" fill="#FEFEFE"/>
<path d="M76.5847 51.2334H51.0566V76.7607H76.5847V51.2334Z" fill="#FEFEFE"/>
<path d="M25.5285 102.29H0V127.818H25.5285V102.29Z" fill="#FEFEFE"/>
<path d="M128 102.29H102.472V127.818H128V102.29Z" fill="#FEFEFE"/>
<path d="M76.5847 102.29H51.0566V127.818H76.5847V102.29Z" fill="#FEFEFE"/>
</svg>
