<svg width="16" height="16" viewBox="0 0 16 16" fill="none" xmlns="http://www.w3.org/2000/svg">
<g clip-path="url(#clip0)">
<path d="M14.9008 9.44549C14.5635 9.44549 14.2901 9.71886 14.2901 10.0562V14.7788H1.22138V1.71014H5.94403C6.28134 1.71014 6.55472 1.43677 6.55472 1.09946C6.55472 0.762145 6.28134 0.48877 5.94403 0.48877H0.610687C0.273375 0.48877 0 0.762145 0 1.09946V15.3895C0 15.7268 0.273406 16.0002 0.610687 16.0002H14.9008C15.2381 16.0002 15.5114 15.7268 15.5114 15.3895V10.0562C15.5115 9.7189 15.2381 9.44549 14.9008 9.44549Z" fill="#FEFEFE"/>
<path d="M15.821 2.35706L13.6431 0.178937C13.5287 0.0643125 13.3734 0 13.2114 0C13.0493 0 12.8942 0.0643125 12.7796 0.178937L5.57349 7.38503C5.4994 7.45894 5.44587 7.55053 5.41737 7.65109L4.5624 10.6842C4.50256 10.8969 4.56221 11.1253 4.71852 11.2817C4.83456 11.3977 4.99049 11.4606 5.15027 11.4606C5.20543 11.4606 5.26121 11.4531 5.31577 11.4378L8.34887 10.5828C8.44962 10.5543 8.54124 10.5006 8.61512 10.4267L15.821 3.22059C16.0596 2.98219 16.0596 2.59541 15.821 2.35706ZM7.86437 9.45037L6.03374 9.96619L6.54977 8.13597L13.2114 1.47441L14.5258 2.78881L7.86437 9.45037Z" fill="#FEFEFE"/>
<path d="M6.4569 7.36391L5.59326 8.22754L7.77104 10.4053L8.63467 9.54168L6.4569 7.36391Z" fill="#FEFEFE"/>
</g>
<defs>
<clipPath id="clip0">
<rect width="16" height="16" fill="white"/>
</clipPath>
</defs>
</svg>
