<svg width="24" height="23" viewBox="0 0 24 23" fill="none" xmlns="http://www.w3.org/2000/svg">
<path d="M12 -0.000244141C18.63 -0.000244141 24 5.27976 24 11.7918C24 17.0028 20.562 21.4218 15.795 22.9798C15.195 23.0908 14.975 22.7258 14.975 22.4128C14.975 22.1328 14.985 21.3908 14.99 20.4078C18.328 21.1188 19.032 18.8258 19.032 18.8258C19.578 17.4648 20.367 17.1008 20.367 17.1008C21.454 16.3698 20.283 16.3848 20.283 16.3848C19.078 16.4668 18.445 17.5998 18.445 17.5998C17.375 19.4028 15.636 18.8818 14.95 18.5808C14.842 17.8178 14.533 17.2988 14.19 17.0038C16.855 16.7088 19.656 15.6948 19.656 11.1768C19.656 9.88976 19.191 8.83776 18.421 8.01276C18.556 7.71476 18.961 6.51576 18.316 4.89176C18.316 4.89176 17.311 4.57576 15.016 6.10076C14.056 5.83876 13.036 5.70876 12.016 5.70276C10.996 5.70876 9.976 5.83876 9.016 6.10076C6.736 4.57576 5.731 4.89176 5.731 4.89176C5.086 6.51576 5.491 7.71476 5.611 8.01276C4.846 8.83776 4.381 9.88976 4.381 11.1768C4.381 15.7068 7.186 16.7038 9.856 16.9938C9.436 17.3478 9.046 18.0708 9.046 19.1758C9.046 20.7538 9.061 22.0218 9.061 22.4048C9.061 22.7138 8.851 23.0828 8.236 22.9648C3.435 21.4168 0 16.9948 0 11.7918C0 5.27976 5.373 -0.000244141 12 -0.000244141Z" fill="white"/>
</svg>
