<svg width="24" height="25" viewBox="0 0 24 25" fill="none" xmlns="http://www.w3.org/2000/svg">
<g clip-path="url(#clip0)">
<path d="M5.31891 15.0034L4.4835 18.1221L1.43011 18.1867C0.517594 16.4942 0 14.5577 0 12.4999C0 10.51 0.483938 8.6335 1.34175 6.9812H1.34241L4.06078 7.47958L5.25159 10.1816C5.00236 10.9082 4.86652 11.6882 4.86652 12.4999C4.86661 13.3808 5.02617 14.2247 5.31891 15.0034Z" fill="#FBBB00"/>
<path d="M23.7902 10.2583C23.928 10.9842 23.9999 11.7339 23.9999 12.5001C23.9999 13.3592 23.9095 14.1972 23.7375 15.0056C23.1533 17.7563 21.6269 20.1583 19.5124 21.8581L19.5118 21.8574L16.0878 21.6827L15.6032 18.6576C17.0063 17.8348 18.1028 16.5471 18.6804 15.0056H12.2637V10.2583H18.774H23.7902Z" fill="#518EF8"/>
<path d="M19.5124 21.8575L19.5131 21.8581C17.4566 23.5111 14.8443 24.5001 12.0006 24.5001C7.43066 24.5001 3.45749 21.9459 1.43066 18.1869L5.31946 15.0037C6.33285 17.7083 8.94187 19.6336 12.0006 19.6336C13.3153 19.6336 14.5469 19.2781 15.6038 18.6577L19.5124 21.8575Z" fill="#28B446"/>
<path d="M19.6596 3.26262L15.7721 6.44525C14.6783 5.76153 13.3853 5.36656 12 5.36656C8.87213 5.36656 6.21431 7.38017 5.25169 10.1818L1.34245 6.98131H1.3418C3.33895 3.13077 7.36223 0.5 12 0.5C14.9117 0.5 17.5814 1.53716 19.6596 3.26262Z" fill="#F14336"/>
</g>
<defs>
<clipPath id="clip0">
<rect width="24" height="24" fill="white" transform="translate(0 0.5)"/>
</clipPath>
</defs>
</svg>
