<svg width="24" height="24" viewBox="0 0 24 24" fill="none" xmlns="http://www.w3.org/2000/svg">
<path d="M22.4761 2.6665H1.52383C0.682308 2.6665 0 3.34877 0 4.19029V19.8093C0 20.6508 0.682308 21.3331 1.52383 21.3331H22.4761C23.3177 21.3331 24 20.6508 24 19.8093V4.19029C24 3.34877 23.3177 2.6665 22.4761 2.6665ZM22.4761 4.19029V15.2725L19.4731 12.5423C19.0217 12.132 18.3276 12.1484 17.8963 12.58L14.8571 15.6188L8.86438 8.46074C8.4114 7.91978 7.58169 7.91447 7.1219 8.44893L1.52383 14.9548V4.19029H22.4761ZM16 8.19028C16 7.03294 16.9378 6.09504 18.0952 6.09504C19.2526 6.09504 20.1904 7.03294 20.1904 8.19028C20.1904 9.34762 19.2526 10.2855 18.0952 10.2855C16.9379 10.2855 16 9.34762 16 8.19028Z" fill="#FEFEFE"/>
</svg>
