<svg width="143" height="36" viewBox="0 0 143 36" fill="none" xmlns="http://www.w3.org/2000/svg">
<rect y="4" width="28" height="28.0247" fill="#27272A"/>
<path d="M13.3169 6.39191C13.3169 6.01474 13.6227 5.70898 13.9998 5.70898V5.70898C14.377 5.70898 14.6827 6.01474 14.6827 6.39191V29.6331C14.6827 30.0103 14.377 30.316 13.9998 30.316V30.316C13.6227 30.316 13.3169 30.0103 13.3169 29.6331V6.39191Z" fill="#FAFAFA"/>
<path d="M25.5956 17.9473C25.9805 17.9473 26.2925 18.2592 26.2925 18.6441V18.6441C26.2925 19.0289 25.9805 19.3409 25.5956 19.3409L2.40395 19.3409C2.0191 19.3409 1.70712 19.0289 1.70712 18.6441V18.6441C1.70712 18.2592 2.0191 17.9473 2.40395 17.9473L25.5956 17.9473Z" fill="#FAFAFA"/>
<path d="M23.3181 21.4515C23.6038 21.1657 24.0671 21.1657 24.3528 21.4515V21.4515C24.6386 21.7372 24.6386 22.2005 24.3528 22.4863L18.1441 28.695C17.8583 28.9808 17.3951 28.9808 17.1093 28.695V28.695C16.8236 28.4093 16.8236 27.946 17.1093 27.6602L23.3181 21.4515Z" fill="#2563EB"/>
<path d="M24.3532 27.6603C24.639 27.9461 24.639 28.4094 24.3532 28.6951V28.6951C24.0675 28.9809 23.6042 28.9809 23.3184 28.6951L17.1097 22.4864C16.8239 22.2006 16.8239 21.7373 17.1097 21.4516V21.4516C17.3954 21.1658 17.8587 21.1658 18.1445 21.4516L24.3532 27.6603Z" fill="#2563EB"/>
<path d="M10.7802 11.3838C10.7802 13.4104 9.10396 15.0826 6.99972 15.0826C4.89549 15.0826 3.21924 13.4104 3.21924 11.3838C3.21924 9.35723 4.89549 7.68506 6.99972 7.68506C9.10396 7.68506 10.7802 9.35723 10.7802 11.3838Z" fill="#27272A" stroke="#DC2626" stroke-width="2"/>
<path d="M56.957 27V10.0898H52.7969L48.1094 21.5039H47.8984L43.2227 10.0898H39.0508V27H42.332V15.6914H42.5195L46.832 26.0859H49.1875L53.4883 15.6914H53.6758V27H56.957ZM62.3242 31.6992C65.5469 31.6992 67.1289 30.5273 68.2305 27.1992L72.6836 14.0742H69.0742L66.3555 23.8711H66.1445L63.4258 14.0742H59.6641L64.1992 27.082L64.082 27.5508C63.8008 28.5352 63.0742 28.9453 61.7969 28.9453C61.6562 28.9453 61.1406 28.9453 61.0234 28.9219V31.6641C61.1641 31.6875 62.1953 31.6992 62.3242 31.6992ZM90.2617 20.0977V17.9414H83.1602V20.6016H86.8281L86.8164 20.9062C86.7461 22.9453 85.1406 24.3164 82.8203 24.3164C80.0312 24.3164 78.2734 22.1133 78.2734 18.4922C78.2734 14.9414 79.9492 12.7734 82.6797 12.7734C84.6484 12.7734 86.0664 13.7695 86.5938 15.4805H90.1094C89.6172 11.9648 86.6758 9.65625 82.6797 9.65625C77.7578 9.65625 74.6523 13.0781 74.6523 18.5273C74.6523 24.0586 77.7344 27.4336 82.7617 27.4336C87.3789 27.4336 90.2617 24.6211 90.2617 20.0977ZM97.8672 24.6328C96.6836 24.6328 95.8516 24.0469 95.8516 23.0859C95.8516 22.1602 96.5664 21.6328 98.0312 21.5273L100.645 21.3633V22.3125C100.645 23.625 99.4492 24.6328 97.8672 24.6328ZM96.7422 27.1992C98.418 27.1992 99.8242 26.4961 100.492 25.3125H100.703V27H104.008V18.1758C104.008 15.4102 102.074 13.793 98.6523 13.793C95.4062 13.793 93.2148 15.293 92.9922 17.6836H96.1328C96.4141 16.9102 97.2344 16.4883 98.4648 16.4883C99.8711 16.4883 100.645 17.0977 100.645 18.1758V19.2305L97.5156 19.418C94.3047 19.6055 92.5117 20.9648 92.5117 23.3086C92.5117 25.6758 94.2578 27.1992 96.7422 27.1992ZM107.359 27H110.77V19.2188C110.77 17.7773 111.719 16.7344 113.055 16.7344C114.391 16.7344 115.188 17.5195 115.188 18.8906V27H118.469V19.0898C118.469 17.7188 119.359 16.7344 120.742 16.7344C122.184 16.7344 122.898 17.4961 122.898 19.0312V27H126.309V18.1289C126.309 15.4688 124.703 13.793 122.125 13.793C120.32 13.793 118.832 14.7422 118.234 16.1836H118.023C117.508 14.6836 116.266 13.793 114.449 13.793C112.75 13.793 111.402 14.707 110.875 16.1836H110.664V14.0742H107.359V27ZM135.215 16.4062C136.809 16.4062 137.84 17.4727 137.91 19.1836H132.402C132.52 17.5078 133.633 16.4062 135.215 16.4062ZM137.98 23.3203C137.617 24.1758 136.691 24.6562 135.344 24.6562C133.562 24.6562 132.438 23.4609 132.391 21.5391V21.3633H141.262V20.3203C141.262 16.2188 139.012 13.793 135.203 13.793C131.359 13.793 128.992 16.3945 128.992 20.6016C128.992 24.7969 131.312 27.2812 135.25 27.2812C138.414 27.2812 140.652 25.7461 141.156 23.3203H137.98Z" fill="#C5C3C0"/>
</svg>
