<svg width="198" height="49" viewBox="0 0 198 49" fill="none" xmlns="http://www.w3.org/2000/svg">
<rect width="48" height="48.0423" fill="#27272A"/>
<path d="M22.8291 4.10042C22.8291 3.45384 23.3533 2.92969 23.9998 2.92969V2.92969C24.6464 2.92969 25.1706 3.45384 25.1706 4.10042V43.9425C25.1706 44.5891 24.6464 45.1132 23.9998 45.1132V45.1132C23.3533 45.1132 22.8291 44.5891 22.8291 43.9425V4.10042Z" fill="#FAFAFA"/>
<path d="M43.8787 23.9097C44.5384 23.9097 45.0732 24.4445 45.0732 25.1042V25.1042C45.0732 25.764 44.5384 26.2988 43.8787 26.2988L4.12148 26.2988C3.46174 26.2988 2.92691 25.764 2.92691 25.1042V25.1042C2.92691 24.4445 3.46174 23.9097 4.12148 23.9097L43.8787 23.9097Z" fill="#FAFAFA"/>
<path d="M39.9739 29.9158C40.4637 29.4259 41.2579 29.4259 41.7478 29.9158V29.9158C42.2377 30.4056 42.2377 31.1998 41.7478 31.6897L31.1042 42.3333C30.6144 42.8231 29.8202 42.8231 29.3303 42.3333V42.3333C28.8404 41.8434 28.8404 41.0492 29.3303 40.5593L39.9739 29.9158Z" fill="#2563EB"/>
<path d="M41.7478 40.5593C42.2377 41.0492 42.2377 41.8434 41.7478 42.3333V42.3333C41.2579 42.8231 40.4637 42.8231 39.9739 42.3333L29.3303 31.6897C28.8405 31.1998 28.8405 30.4056 29.3303 29.9158V29.9158C29.8202 29.4259 30.6144 29.4259 31.1042 29.9158L41.7478 40.5593Z" fill="#2563EB"/>
<path d="M19.1949 12.6575C19.1949 16.5377 15.9899 19.7125 11.9998 19.7125C8.00972 19.7125 4.80469 16.5377 4.80469 12.6575C4.80469 8.77736 8.00972 5.60254 11.9998 5.60254C15.9899 5.60254 19.1949 8.77736 19.1949 12.6575Z" fill="#27272A" stroke="#DC2626" stroke-width="2"/>
<path d="M83.6094 35V12.4531H78.0625L71.8125 27.6719H71.5312L65.2969 12.4531H59.7344V35H64.1094V19.9219H64.3594L70.1094 33.7812H73.25L78.9844 19.9219H79.2344V35H83.6094ZM90.7656 41.2656C95.0625 41.2656 97.1719 39.7031 98.6406 35.2656L104.578 17.7656H99.7656L96.1406 30.8281H95.8594L92.2344 17.7656H87.2188L93.2656 35.1094L93.1094 35.7344C92.7344 37.0469 91.7656 37.5938 90.0625 37.5938C89.875 37.5938 89.1875 37.5938 89.0312 37.5625V41.2188C89.2188 41.25 90.5938 41.2656 90.7656 41.2656ZM128.016 25.7969V22.9219H118.547V26.4688H123.438L123.422 26.875C123.328 29.5938 121.188 31.4219 118.094 31.4219C114.375 31.4219 112.031 28.4844 112.031 23.6562C112.031 18.9219 114.266 16.0312 117.906 16.0312C120.531 16.0312 122.422 17.3594 123.125 19.6406H127.812C127.156 14.9531 123.234 11.875 117.906 11.875C111.344 11.875 107.203 16.4375 107.203 23.7031C107.203 31.0781 111.312 35.5781 118.016 35.5781C124.172 35.5781 128.016 31.8281 128.016 25.7969ZM138.156 31.8438C136.578 31.8438 135.469 31.0625 135.469 29.7812C135.469 28.5469 136.422 27.8438 138.375 27.7031L141.859 27.4844V28.75C141.859 30.5 140.266 31.8438 138.156 31.8438ZM136.656 35.2656C138.891 35.2656 140.766 34.3281 141.656 32.75H141.938V35H146.344V23.2344C146.344 19.5469 143.766 17.3906 139.203 17.3906C134.875 17.3906 131.953 19.3906 131.656 22.5781H135.844C136.219 21.5469 137.312 20.9844 138.953 20.9844C140.828 20.9844 141.859 21.7969 141.859 23.2344V24.6406L137.688 24.8906C133.406 25.1406 131.016 26.9531 131.016 30.0781C131.016 33.2344 133.344 35.2656 136.656 35.2656ZM150.812 35H155.359V24.625C155.359 22.7031 156.625 21.3125 158.406 21.3125C160.188 21.3125 161.25 22.3594 161.25 24.1875V35H165.625V24.4531C165.625 22.625 166.812 21.3125 168.656 21.3125C170.578 21.3125 171.531 22.3281 171.531 24.375V35H176.078V23.1719C176.078 19.625 173.938 17.3906 170.5 17.3906C168.094 17.3906 166.109 18.6562 165.312 20.5781H165.031C164.344 18.5781 162.688 17.3906 160.266 17.3906C158 17.3906 156.203 18.6094 155.5 20.5781H155.219V17.7656H150.812V35ZM187.953 20.875C190.078 20.875 191.453 22.2969 191.547 24.5781H184.203C184.359 22.3438 185.844 20.875 187.953 20.875ZM191.641 30.0938C191.156 31.2344 189.922 31.875 188.125 31.875C185.75 31.875 184.25 30.2812 184.188 27.7188V27.4844H196.016V26.0938C196.016 20.625 193.016 17.3906 187.938 17.3906C182.812 17.3906 179.656 20.8594 179.656 26.4688C179.656 32.0625 182.75 35.375 188 35.375C192.219 35.375 195.203 33.3281 195.875 30.0938H191.641Z" fill="#C5C3C0"/>
</svg>
