<svg width="64" height="64" viewBox="0 0 64 64" fill="none" xmlns="http://www.w3.org/2000/svg">
<g clip-path="url(#clip0)">
<path d="M63.6016 50.2973C60.7509 48.0114 56.2763 46.3565 52.329 44.8944C51.5831 44.6184 50.8509 44.3477 50.137 44.0749C48.5705 43.4898 47.3098 42.9912 46.259 42.4764C45.5953 42.1537 44.9639 41.7679 44.3739 41.3244C41.5521 39.0865 41.3805 35.037 41.4753 33.1242C42.3208 31.8504 42.9784 30.4614 43.4276 29.0001C43.4532 28.9148 43.467 28.8231 43.4904 28.7368C43.5746 28.7549 43.662 28.7859 43.7429 28.7954C43.8442 28.81 43.9465 28.8171 44.0487 28.8168C45.0871 28.7516 46.022 28.1652 46.5328 27.2587C47.4305 25.5493 47.9193 23.655 47.9608 21.7247C48.0277 20.998 47.9428 20.2654 47.7114 19.5731C47.6241 19.3496 47.5088 19.1379 47.3682 18.9434C49.5549 11.6362 49.4697 6.262 47.0741 3.00858C45.7852 1.23776 43.7659 0.143297 41.5786 0.0300293H22.3968C20.21 0.142423 18.1907 1.23576 16.9012 3.00533C14.5056 6.263 14.4203 11.6372 16.6071 18.9401C16.4666 19.1343 16.3512 19.3456 16.2639 19.5689C16.0328 20.26 15.9479 20.9915 16.0145 21.7172C16.0563 23.6546 16.548 25.5558 17.4511 27.2703C17.9605 28.1682 18.8878 28.7492 19.9181 28.8155C20.0179 28.8154 20.1177 28.8083 20.2164 28.7941C20.3027 28.7835 20.3955 28.7516 20.4849 28.7313C20.5073 28.8197 20.5223 28.9114 20.5478 28.9977C20.9982 30.4588 21.6568 31.8474 22.5033 33.1207C22.5981 35.0292 22.4266 39.0766 19.61 41.3167C19.0211 41.7601 18.3909 42.1459 17.7281 42.4687C16.6688 42.9929 15.4081 43.4917 13.8362 44.0789C13.1275 44.3495 12.3944 44.6203 11.6496 44.8963C7.70667 46.3563 3.23091 48.0112 0.376987 50.297C0.160567 50.4876 0.0273187 50.7553 0.00608877 51.0429C-0.00490082 51.1427 -0.00102949 51.2437 0.0178277 51.3424V56.5098C0.0225732 60.6276 3.35954 63.9647 7.47739 63.9693H56.4976C60.6154 63.9646 63.9525 60.6276 63.9571 56.5098V51.4266C64.0783 51.013 63.9378 50.5671 63.6016 50.2973ZM45.8328 21.6087C45.8203 23.1763 45.4434 24.7195 44.732 26.1164C44.4762 26.5139 44.1576 26.6951 44.0223 26.6801C43.9436 26.6702 43.8663 26.6508 43.7921 26.6226L44.2429 20.3097C44.309 20.2681 44.3687 20.2149 44.4348 20.1797C44.7446 20.0004 45.111 19.9452 45.4599 20.0252C45.589 20.0785 45.6852 20.1902 45.7189 20.3257C45.8391 20.742 45.8778 21.1776 45.8328 21.6087ZM19.9362 26.6844C19.64 26.605 19.3914 26.4035 19.2521 26.1303C18.5349 24.7286 18.155 23.1788 18.1428 21.6045C18.0982 21.1747 18.1373 20.7405 18.2579 20.3257C18.2915 20.1909 18.3873 20.08 18.5158 20.0273C18.8635 19.9472 19.2286 20.0016 19.5377 20.1797C19.6059 20.2159 19.6656 20.2692 19.7328 20.3118L20.1825 26.6195C20.1039 26.6528 20.021 26.6748 19.9362 26.6844ZM22.3532 27.0489L22.3426 26.8923C22.3426 26.8731 22.3426 26.855 22.3426 26.8359L21.3313 12.8235C21.2841 11.9616 21.6055 11.1201 22.2154 10.5092C22.8253 9.8983 23.6662 9.57548 24.5282 9.62119C25.6477 9.52191 26.7646 9.83749 27.6666 10.5078C28.9177 11.4141 30.4464 11.8544 31.9879 11.7525C32.5765 11.7525 33.0535 11.2754 33.0535 10.6869C33.0535 10.0985 32.5765 9.62132 31.9879 9.62132C30.8685 9.7206 29.7515 9.40502 28.8495 8.73466C27.5985 7.82839 26.0698 7.38806 24.5282 7.48996C23.0867 7.43901 21.6899 7.99448 20.6771 9.02163C19.6645 10.0487 19.1286 11.4533 19.1999 12.894L19.5622 17.9548C19.2156 17.8742 18.8587 17.8473 18.5039 17.8749C16.2214 9.97623 17.2646 6.1335 18.5924 4.30161C19.4761 3.05479 20.8722 2.26953 22.3968 2.16176H41.5786C43.0883 2.26691 44.4728 3.03868 45.3564 4.26751C46.7012 6.09616 47.7626 9.94101 45.4629 17.8749C45.1081 17.8473 44.7512 17.8745 44.4047 17.9558L44.7617 12.9472C45.1415 10.9531 44.5098 8.90012 43.0748 7.46436C39.5901 4.11815 32.123 5.31702 31.8066 5.37034C31.24 5.48086 30.8645 6.02235 30.9594 6.59169C31.0544 7.16102 31.5854 7.55128 32.1571 7.47185C34.022 7.16489 39.3492 6.83995 41.5999 9.00315C42.5507 9.99696 42.9425 11.3999 42.6443 12.7425L41.6373 26.8475V26.888L41.6255 27.0489C41.5952 27.5021 41.5151 27.9506 41.3869 28.3863C40.5563 31.1633 38.8382 33.5912 36.4955 35.2981C35.5979 35.9306 34.5255 36.2677 33.4276 36.2626H30.5503C29.4526 36.2674 28.3806 35.9304 27.4833 35.2981C25.141 33.5914 23.4228 31.1638 22.5919 28.3873C22.4637 27.9512 22.3836 27.5024 22.3532 27.0489ZM20.9294 42.9901C23.0816 41.1126 24.3875 38.4479 24.5526 35.5966C25.0762 36.1153 25.6379 36.594 26.2331 37.0288C27.4945 37.9212 29.0027 38.3984 30.5479 38.3939H33.4252C34.9711 38.3984 36.4799 37.9214 37.7422 37.0288C38.3377 36.5944 38.8995 36.1156 39.4228 35.5966C39.5896 38.4501 40.8986 41.1163 43.0546 42.9933C43.5111 43.3437 43.9927 43.6604 44.4953 43.9407C43.3796 45.7618 39.863 50.6543 33.5915 51.9864C32.5193 52.211 31.412 52.2073 30.3412 51.9758C24.0954 50.6192 20.582 45.7215 19.4864 43.9408C19.9895 43.6586 20.4718 43.341 20.9294 42.9901ZM17.5641 44.8944C20.2582 49.4939 24.7052 52.8018 29.8852 54.0591C30.5791 54.2093 31.2872 54.285 31.9973 54.285C32.6814 54.2854 33.3635 54.2139 34.0327 54.0718C39.2391 52.8286 43.7108 49.5111 46.4104 44.889C47.0082 45.1501 47.6518 45.4111 48.3594 45.6829C46.5905 48.5005 41.8759 54.6631 33.7013 56.2478C32.5694 56.4662 31.4061 56.4662 30.2742 56.2478C22.0995 54.6631 17.385 48.5005 15.6161 45.6829C16.3226 45.4101 16.962 45.149 17.5641 44.8944ZM56.4978 61.8383H54.3996C54.463 59.0005 55.4672 56.2642 57.2545 54.0591C57.6576 53.6401 57.6504 52.9754 57.2384 52.5651C56.8264 52.1549 56.1616 52.1505 55.7444 52.5554C55.609 52.6908 52.5954 55.7832 52.2682 61.8341H11.7073C11.3801 55.7833 8.36642 52.6908 8.23105 52.5554C7.81382 52.1505 7.14907 52.1549 6.73709 52.5651C6.3251 52.9754 6.31798 53.6401 6.72098 54.0591C8.50966 56.2634 9.51408 59.0003 9.5759 61.8383H7.47764C4.53642 61.8348 2.15293 59.4513 2.14931 56.51V51.6229C4.76121 49.7153 8.79901 48.2214 12.385 46.8956C12.7942 46.7443 13.1842 46.5973 13.5827 46.448C15.323 49.3253 20.5308 56.5291 29.8681 58.3386C31.2682 58.6079 32.707 58.6079 34.1073 58.3386C43.4446 56.527 48.6524 49.3243 50.3926 46.4469C50.7911 46.5962 51.1822 46.7431 51.5904 46.8945C55.1763 48.2201 59.214 49.7142 61.8207 51.6218L61.826 56.5099C61.8227 59.4513 59.4392 61.8348 56.4978 61.8383Z" fill="#EF4444"/>
</g>
<defs>
<clipPath id="clip0">
<rect width="64" height="64" fill="white"/>
</clipPath>
</defs>
</svg>
