<svg width="64" height="64" viewBox="0 0 64 64" fill="none" xmlns="http://www.w3.org/2000/svg">
<g clip-path="url(#clip0)">
<path d="M44.424 43.6824H41.4864V40.3876H50.1759C50.4595 40.3941 50.733 40.2836 50.9325 40.0825C51.1325 39.8814 51.2408 39.6074 51.2333 39.3237V28.8111C53.5671 28.2743 55.1287 26.2623 55.1287 23.869C55.1287 21.4752 53.5671 19.4626 51.2333 18.9258V11.9304C51.2408 11.6478 51.132 11.3743 50.932 11.1743C50.7319 10.9743 50.4585 10.8654 50.1759 10.8729H32.9751V8.56599C35.1018 8.08283 36.5385 6.09495 36.3309 3.92367C36.1229 1.75239 34.335 0.0733938 32.1546 0.00207251C29.9748 -0.0687126 28.0813 1.49017 27.7322 3.64321C27.3831 5.79626 28.6878 7.8737 30.7786 8.49467V10.8724H13.8518C13.5692 10.8649 13.2958 10.9738 13.0957 11.1738C12.8957 11.3738 12.7869 11.6468 12.7949 11.9294V18.9247C10.4611 19.4615 8.89903 21.4735 8.89903 23.8668C8.89903 26.2607 10.4611 28.2743 12.7949 28.8111V39.3237C12.7869 39.6074 12.8952 39.8814 13.0952 40.0825C13.2947 40.2836 13.5682 40.3941 13.8518 40.3876H22.5418V43.6824H19.6037C13.3783 43.6824 8.26465 48.7789 8.26465 55.0048V62.9289C8.26465 63.536 8.80465 63.9998 9.41115 63.9998H54.6165C55.223 63.9998 55.7636 63.5354 55.7636 62.9289V55.0048C55.7636 48.7789 50.6499 43.6824 44.424 43.6824V43.6824ZM29.8723 4.33819C29.8723 3.15523 30.8311 2.19641 32.0141 2.19641C33.1965 2.19641 34.1554 3.15523 34.1554 4.33819C34.1554 5.52063 33.1965 6.47944 32.0141 6.47944C30.8317 6.47837 29.8734 5.52009 29.8723 4.33819ZM52.9322 23.8684C52.9322 25.0369 52.3316 26.0429 51.2333 26.4971V21.2392C52.3316 21.6934 52.9322 22.7 52.9322 23.8684ZM11.0955 23.8684C11.0955 22.7 11.6967 21.6934 12.7949 21.2392V26.4971C11.6967 26.0429 11.0955 25.0369 11.0955 23.8684ZM14.9914 13.0689H49.0369V38.1912H14.9914V13.0689ZM24.7383 40.3876H39.29V43.6824H24.7383V40.3876ZM42.4474 61.8033H21.5808V54.1157H42.4474V61.8033ZM53.5671 61.8033H44.6439V52.9997C44.6439 52.3932 44.084 51.9192 43.477 51.9192H20.5512C19.9447 51.9192 19.3843 52.3932 19.3843 52.9997V61.8033H10.4611V55.0048C10.4611 49.9903 14.5892 45.8788 19.6037 45.8788H44.424C49.439 45.8788 53.5671 49.9903 53.5671 55.0048V61.8033Z" fill="#2563EB"/>
<path d="M42.0352 27.8951C42.0352 27.2886 41.5434 26.7969 40.9369 26.7969H22.9532C22.3467 26.7969 21.855 27.2886 21.855 27.8951V34.6219C21.855 35.2284 22.3467 35.7201 22.9532 35.7201H40.9369C41.5434 35.7201 42.0352 35.2284 42.0352 34.6219V27.8951ZM39.976 28.9934V30.2289H24.0515V28.9934H39.976ZM24.0515 33.6609V32.4254H39.976V33.6609H24.0515Z" fill="#2563EB"/>
<path d="M28.3076 17.7364C28.3076 17.1299 27.8158 16.6382 27.2093 16.6382H22.13C21.5235 16.6382 21.0317 17.1299 21.0317 17.7364V22.8158C21.0317 23.4223 21.5235 23.914 22.13 23.914H27.2093C27.8158 23.914 28.3076 23.4223 28.3076 22.8158V17.7364ZM23.2282 18.8347H26.2484V21.7175H23.2282V18.8347Z" fill="#2563EB"/>
<path d="M42.8589 17.7364C42.8589 17.1299 42.3671 16.6382 41.7606 16.6382H36.6812C36.0748 16.6382 35.583 17.1299 35.583 17.7364V22.8158C35.583 23.4223 36.0748 23.914 36.6812 23.914H41.7606C42.3671 23.914 42.8589 23.4223 42.8589 22.8158V17.7364ZM37.7795 18.8347H40.7997V21.7175H37.7795V18.8347Z" fill="#2563EB"/>
</g>
<defs>
<clipPath id="clip0">
<rect width="64" height="64" fill="white"/>
</clipPath>
</defs>
</svg>
