<svg width="128" height="128" viewBox="0 0 128 128" fill="none" xmlns="http://www.w3.org/2000/svg">
<path d="M90.25 0H82.75V37.75H45.25V0H37.75V37.75H0V45.25H37.75V82.75H0V90.25H37.75V128H45.25V90.25H82.75V128H90.25V90.25H128V82.75H90.25V45.25H128V37.75H90.25V0ZM82.75 82.75H45.25V45.25H82.75V82.75Z" fill="#FEFEFE"/>
<path d="M52.75 19C52.75 25.2246 57.7744 30.25 64 30.25C70.2256 30.25 75.25 25.2246 75.25 19C75.25 12.7744 70.2256 7.75 64 7.75C57.7744 7.75 52.75 12.7744 52.75 19ZM67.75 19C67.75 21.0996 66.1006 22.75 64 22.75C61.8994 22.75 60.25 21.0996 60.25 19C60.25 16.8994 61.8994 15.25 64 15.25C66.1006 15.25 67.75 16.8994 67.75 19Z" fill="#FEFEFE"/>
<path d="M64 75.25C70.2256 75.25 75.25 70.2246 75.25 64C75.25 57.7744 70.2256 52.75 64 52.75C57.7744 52.75 52.75 57.7744 52.75 64C52.75 70.2246 57.7744 75.25 64 75.25ZM64 60.25C66.1006 60.25 67.75 61.8994 67.75 64C67.75 66.0996 66.1006 67.75 64 67.75C61.8994 67.75 60.25 66.0996 60.25 64C60.25 61.8994 61.8994 60.25 64 60.25Z" fill="#FEFEFE"/>
<path d="M30.25 64C30.25 57.7744 25.2256 52.75 19 52.75C12.7744 52.75 7.75 57.7744 7.75 64C7.75 70.2246 12.7744 75.25 19 75.25C25.2256 75.25 30.25 70.2246 30.25 64ZM15.25 64C15.25 61.8994 16.8994 60.25 19 60.25C21.1006 60.25 22.75 61.8994 22.75 64C22.75 66.0996 21.1006 67.75 19 67.75C16.8994 67.75 15.25 66.0996 15.25 64Z" fill="#FEFEFE"/>
<path d="M57.2764 121.276L64 114.553L70.7236 121.276L76.0264 115.974L69.3027 109.25L76.0264 102.526L70.7236 97.2236L64 103.947L57.2764 97.2236L51.9736 102.526L58.6973 109.25L51.9736 115.974L57.2764 121.276Z" fill="#FEFEFE"/>
<path d="M115.724 51.9736L109 58.6973L102.276 51.9736L96.9736 57.2764L103.697 64L96.9736 70.7236L102.276 76.0264L109 69.3027L115.724 76.0264L121.026 70.7236L114.303 64L121.026 57.2764L115.724 51.9736Z" fill="#FEFEFE"/>
<path d="M12.2764 121.276L19 114.553L25.7236 121.276L31.0264 115.974L24.3027 109.25L31.0264 102.526L25.7236 97.2236L19 103.947L12.2764 97.2236L6.97363 102.526L13.6973 109.25L6.97363 115.974L12.2764 121.276Z" fill="#FEFEFE"/>
<path d="M120.25 109.25C120.25 103.024 115.226 98 109 98C102.774 98 97.75 103.024 97.75 109.25C97.75 115.475 102.774 120.5 109 120.5C115.226 120.5 120.25 115.475 120.25 109.25ZM105.25 109.25C105.25 107.149 106.899 105.5 109 105.5C111.101 105.5 112.75 107.149 112.75 109.25C112.75 111.35 111.101 113 109 113C106.899 113 105.25 111.35 105.25 109.25Z" fill="#FEFEFE"/>
<path d="M25.7236 6.97363L19 13.6973L12.2764 6.97363L6.97363 12.2764L13.6973 19L6.97363 25.7236L12.2764 31.0264L19 24.3027L25.7236 31.0264L31.0264 25.7236L24.3027 19L31.0264 12.2764L25.7236 6.97363Z" fill="#FEFEFE"/>
<path d="M115.724 6.97363L109 13.6973L102.276 6.97363L96.9736 12.2764L103.697 19L96.9736 25.7236L102.276 31.0264L109 24.3027L115.724 31.0264L121.026 25.7236L114.303 19L121.026 12.2764L115.724 6.97363Z" fill="#FEFEFE"/>
</svg>
